<svg xmlns="http://www.w3.org/2000/svg" xmlns:xlink="http://www.w3.org/1999/xlink" width="1080" zoomAndPan="magnify" viewBox="0 0 810 809.999993" height="1080" preserveAspectRatio="xMidYMid meet" version="1.0"><defs><clipPath id="f3dd60fbb0"><path d="M 206.1875 206.1875 L 603.6875 206.1875 L 603.6875 603.6875 L 206.1875 603.6875 Z M 206.1875 206.1875 " clip-rule="nonzero"/></clipPath></defs><path fill="#3579ee" d="M 96.472656 532.714844 C 91.492188 529.914062 86.683594 527.050781 82.050781 524.117188 C 29.679688 490.953125 -0.0117188 449.179688 -0.0117188 404.941406 C -0.0117188 360.710938 29.679688 318.933594 82.050781 285.773438 C 86.683594 282.839844 91.492188 279.972656 96.472656 277.171875 C 94.933594 271.667969 93.558594 266.238281 92.359375 260.890625 C 78.773438 200.410156 87.316406 149.875 118.597656 118.597656 C 149.875 87.316406 200.410156 78.773438 260.890625 92.359375 C 266.238281 93.558594 271.667969 94.933594 277.171875 96.472656 C 279.972656 91.492188 282.839844 86.683594 285.773438 82.050781 C 318.933594 29.679688 360.710938 -0.0117188 404.941406 -0.0117188 C 449.179688 -0.0117188 490.953125 29.679688 524.117188 82.050781 C 527.050781 86.683594 529.914062 91.492188 532.714844 96.472656 C 538.21875 94.933594 543.648438 93.558594 548.996094 92.359375 C 609.480469 78.773438 660.015625 87.320312 691.292969 118.597656 C 722.570312 149.875 731.113281 200.410156 717.53125 260.890625 C 716.328125 266.238281 714.957031 271.667969 713.414062 277.171875 C 718.394531 279.972656 723.207031 282.839844 727.835938 285.773438 C 780.207031 318.933594 809.902344 360.710938 809.902344 404.941406 C 809.902344 449.179688 780.207031 490.953125 727.835938 524.117188 C 723.207031 527.050781 718.394531 529.914062 713.414062 532.714844 C 714.957031 538.21875 716.328125 543.648438 717.53125 548.996094 C 731.113281 609.480469 722.570312 660.015625 691.292969 691.292969 C 660.015625 722.570312 609.480469 731.113281 548.996094 717.53125 C 543.648438 716.328125 538.21875 714.957031 532.714844 713.414062 C 529.914062 718.394531 527.050781 723.207031 524.117188 727.835938 C 490.953125 780.207031 449.179688 809.902344 404.941406 809.902344 C 360.710938 809.902344 318.933594 780.207031 285.773438 727.835938 C 282.839844 723.207031 279.972656 718.394531 277.171875 713.414062 C 271.667969 714.957031 266.238281 716.328125 260.890625 717.53125 C 200.410156 731.113281 149.875 722.570312 118.597656 691.292969 C 87.316406 660.015625 78.773438 609.480469 92.359375 548.996094 C 93.558594 543.648438 94.933594 538.21875 96.472656 532.714844 Z M 105.484375 304.976562 C 102.710938 306.605469 100.003906 308.257812 97.355469 309.9375 C 54.902344 336.816406 28.589844 369.089844 28.589844 404.941406 C 28.589844 440.796875 54.902344 473.070312 97.355469 499.953125 C 100.003906 501.628906 102.710938 503.28125 105.484375 504.914062 C 117.148438 473.023438 133.941406 439.242188 155.382812 404.941406 C 133.941406 370.648438 117.148438 336.863281 105.484375 304.976562 Z M 263.882812 122.503906 C 260.769531 121.699219 257.683594 120.949219 254.625 120.265625 C 205.601562 109.253906 164.171875 113.46875 138.820312 138.820312 C 113.46875 164.171875 109.253906 205.601562 120.265625 254.625 C 120.949219 257.683594 121.699219 260.769531 122.503906 263.882812 C 153.300781 249.582031 189.0625 237.566406 228.476562 228.476562 C 237.566406 189.0625 249.582031 153.300781 263.882812 122.503906 Z M 504.914062 105.484375 C 503.28125 102.710938 501.628906 100.003906 499.953125 97.355469 C 473.070312 54.902344 440.796875 28.589844 404.941406 28.589844 C 369.089844 28.589844 336.816406 54.902344 309.9375 97.355469 C 308.257812 100.003906 306.605469 102.710938 304.976562 105.484375 C 336.863281 117.148438 370.648438 133.941406 404.941406 155.382812 C 439.242188 133.941406 473.023438 117.148438 504.914062 105.484375 Z M 687.386719 263.882812 C 688.191406 260.769531 688.9375 257.683594 689.625 254.625 C 700.636719 205.601562 696.417969 164.171875 671.066406 138.820312 C 645.714844 113.46875 604.285156 109.253906 555.261719 120.265625 C 552.207031 120.949219 549.117188 121.699219 546.007812 122.503906 C 560.304688 153.300781 572.320312 189.0625 581.410156 228.476562 C 620.828125 237.566406 656.585938 249.582031 687.386719 263.882812 Z M 704.40625 504.914062 C 707.179688 503.28125 709.886719 501.628906 712.535156 499.953125 C 754.984375 473.070312 781.300781 440.796875 781.300781 404.941406 C 781.300781 369.089844 754.984375 336.816406 712.535156 309.9375 C 709.886719 308.257812 707.179688 306.605469 704.40625 304.976562 C 692.738281 336.863281 675.949219 370.648438 654.507812 404.941406 C 675.949219 439.242188 692.738281 473.023438 704.40625 504.914062 Z M 546.007812 687.386719 C 549.117188 688.191406 552.207031 688.9375 555.261719 689.625 C 604.289062 700.636719 645.714844 696.421875 671.066406 671.066406 C 696.421875 645.714844 700.636719 604.289062 689.625 555.261719 C 688.9375 552.207031 688.191406 549.117188 687.386719 546.007812 C 656.585938 560.304688 620.828125 572.320312 581.410156 581.410156 C 572.320312 620.828125 560.304688 656.585938 546.007812 687.386719 Z M 304.976562 704.40625 C 306.605469 707.179688 308.257812 709.886719 309.9375 712.535156 C 336.816406 754.984375 369.089844 781.300781 404.941406 781.300781 C 440.796875 781.300781 473.070312 754.984375 499.953125 712.535156 C 501.628906 709.886719 503.28125 707.179688 504.914062 704.40625 C 473.023438 692.738281 439.242188 675.949219 404.941406 654.507812 C 370.648438 675.949219 336.863281 692.738281 304.976562 704.40625 Z M 122.503906 546.007812 C 121.699219 549.117188 120.949219 552.207031 120.265625 555.261719 C 109.253906 604.289062 113.46875 645.714844 138.820312 671.066406 C 164.171875 696.421875 205.601562 700.636719 254.625 689.625 C 257.683594 688.9375 260.769531 688.191406 263.882812 687.386719 C 249.582031 656.585938 237.566406 620.828125 228.476562 581.410156 C 189.0625 572.320312 153.300781 560.304688 122.503906 546.007812 Z M 222.105469 259.332031 C 188.285156 267.871094 157.574219 278.726562 130.96875 291.460938 C 140.777344 319.277344 154.816406 348.667969 172.691406 378.621094 C 184.945312 360.871094 198.394531 343.078125 212.984375 325.433594 C 215.144531 302.636719 218.214844 280.542969 222.105469 259.332031 Z M 172.691406 431.269531 C 154.816406 461.222656 140.777344 490.609375 130.96875 518.425781 C 157.574219 531.160156 188.285156 542.015625 222.105469 550.554688 C 218.214844 529.34375 215.144531 507.25 212.984375 484.457031 C 198.394531 466.808594 184.945312 449.019531 172.691406 431.269531 Z M 378.621094 172.691406 C 348.667969 154.816406 319.277344 140.777344 291.460938 130.96875 C 278.726562 157.574219 267.871094 188.285156 259.332031 222.105469 C 280.542969 218.214844 302.636719 215.144531 325.433594 212.984375 C 343.078125 198.394531 360.871094 184.945312 378.621094 172.691406 Z M 550.554688 222.105469 C 542.015625 188.285156 531.160156 157.574219 518.425781 130.96875 C 490.609375 140.777344 461.222656 154.816406 431.269531 172.691406 C 449.019531 184.945312 466.808594 198.394531 484.457031 212.984375 C 507.25 215.144531 529.34375 218.214844 550.554688 222.105469 Z M 637.195312 378.621094 C 655.070312 348.667969 669.113281 319.277344 678.917969 291.460938 C 652.3125 278.726562 621.605469 267.871094 587.785156 259.332031 C 591.675781 280.542969 594.742188 302.636719 596.90625 325.433594 C 611.496094 343.078125 624.945312 360.871094 637.195312 378.621094 Z M 587.785156 550.554688 C 621.605469 542.015625 652.3125 531.160156 678.917969 518.425781 C 669.113281 490.609375 655.070312 461.222656 637.195312 431.269531 C 624.945312 449.019531 611.496094 466.808594 596.90625 484.457031 C 594.742188 507.25 591.675781 529.34375 587.785156 550.554688 Z M 431.269531 637.195312 C 461.222656 655.070312 490.609375 669.113281 518.425781 678.917969 C 531.160156 652.3125 542.015625 621.605469 550.554688 587.785156 C 529.34375 591.675781 507.25 594.742188 484.457031 596.90625 C 466.808594 611.496094 449.019531 624.945312 431.269531 637.195312 Z M 259.332031 587.785156 C 267.871094 621.605469 278.726562 652.3125 291.460938 678.917969 C 319.277344 669.113281 348.667969 655.070312 378.621094 637.195312 C 360.871094 624.945312 343.078125 611.496094 325.433594 596.90625 C 302.636719 594.742188 280.542969 591.675781 259.332031 587.785156 Z M 209.757812 375.835938 C 202.5625 385.542969 195.738281 395.257812 189.300781 404.941406 C 195.738281 414.628906 202.5625 424.347656 209.757812 434.054688 C 209.429688 424.441406 209.265625 414.734375 209.265625 404.941406 C 209.265625 395.15625 209.429688 385.449219 209.757812 375.835938 Z M 252.460938 252.460938 C 250.164062 263.863281 248.121094 275.5625 246.34375 287.511719 C 252.910156 280.484375 259.65625 273.5 266.582031 266.582031 C 273.5 259.65625 280.484375 252.90625 287.511719 246.34375 C 275.5625 248.121094 263.863281 250.164062 252.460938 252.460938 Z M 246.34375 522.378906 C 248.121094 534.328125 250.164062 546.023438 252.460938 557.425781 C 263.863281 559.722656 275.5625 561.765625 287.511719 563.546875 C 280.484375 556.976562 273.5 550.230469 266.582031 543.308594 C 259.65625 536.386719 252.910156 529.40625 246.34375 522.378906 Z M 404.941406 189.300781 C 395.257812 195.738281 385.542969 202.5625 375.835938 209.757812 C 385.449219 209.429688 395.15625 209.265625 404.941406 209.265625 C 414.734375 209.265625 424.441406 209.429688 434.054688 209.757812 C 424.347656 202.5625 414.628906 195.738281 404.941406 189.300781 Z M 557.425781 252.460938 C 546.023438 250.164062 534.328125 248.121094 522.378906 246.339844 C 529.40625 252.90625 536.386719 259.65625 543.308594 266.578125 C 550.230469 273.5 556.976562 280.484375 563.546875 287.511719 C 561.765625 275.5625 559.722656 263.863281 557.425781 252.460938 Z M 620.589844 404.941406 C 614.148438 395.253906 607.324219 385.542969 600.128906 375.835938 C 600.453125 385.449219 600.621094 395.15625 600.621094 404.941406 C 600.621094 414.734375 600.453125 424.441406 600.128906 434.054688 C 607.324219 424.347656 614.148438 414.628906 620.589844 404.941406 Z M 557.425781 557.425781 C 559.722656 546.023438 561.765625 534.328125 563.546875 522.378906 C 556.976562 529.40625 550.230469 536.386719 543.308594 543.308594 C 536.386719 550.230469 529.40625 556.976562 522.378906 563.546875 C 534.328125 561.765625 546.023438 559.722656 557.425781 557.425781 Z M 404.941406 620.589844 C 414.628906 614.148438 424.347656 607.324219 434.054688 600.128906 C 424.441406 600.453125 414.734375 600.621094 404.941406 600.621094 C 395.15625 600.621094 385.449219 600.453125 375.835938 600.128906 C 385.542969 607.324219 395.257812 614.148438 404.941406 620.589844 Z M 343.277344 433.726562 L 321.90625 486.144531 L 296.070312 475.613281 L 358.308594 322.941406 L 384.148438 322.941406 L 446.386719 475.613281 L 420.550781 486.144531 L 399.175781 433.726562 Z M 387.800781 405.820312 L 371.226562 365.167969 L 354.65625 405.820312 Z M 460.753906 320.675781 L 488.65625 320.675781 L 488.65625 483.355469 L 460.753906 483.355469 Z M 460.753906 320.675781 " fill-opacity="1" fill-rule="evenodd"/><g clip-path="url(#f3dd60fbb0)"><path fill="#ffffff" d="M 404.933594 206.136719 C 295.324219 206.136719 206.136719 295.324219 206.136719 404.933594 C 206.136719 514.546875 295.324219 603.730469 404.933594 603.730469 C 514.546875 603.730469 603.730469 514.546875 603.730469 404.933594 C 603.730469 295.324219 514.546875 206.136719 404.933594 206.136719 Z M 404.933594 578.882812 C 309.015625 578.882812 230.988281 500.828125 230.988281 404.933594 C 230.988281 309.039062 309.015625 230.988281 404.933594 230.988281 C 500.855469 230.988281 578.882812 309.039062 578.882812 404.933594 C 578.882812 500.828125 500.855469 578.882812 404.933594 578.882812 Z M 404.933594 578.882812 " fill-opacity="1" fill-rule="nonzero"/></g></svg>