<svg xmlns="http://www.w3.org/2000/svg" xmlns:xlink="http://www.w3.org/1999/xlink" width="500" zoomAndPan="magnify" viewBox="0 0 375 374.999991" height="500" preserveAspectRatio="xMidYMid meet" version="1.0"><defs><clipPath id="77d98b8e12"><path d="M 3.75 0 L 344 0 L 344 375 L 3.75 375 Z M 3.75 0 " clip-rule="nonzero"/></clipPath><clipPath id="57e639ac9e"><path d="M 285 151 L 371.25 151 L 371.25 191 L 285 191 Z M 285 151 " clip-rule="nonzero"/></clipPath></defs><g clip-path="url(#77d98b8e12)"><path fill="#ffffff" d="M 181.425781 0.226562 C 179.503906 0.574219 177.472656 2.179688 176.324219 4.207031 C 175.84375 5.0625 175.738281 5.675781 175.738281 7.414062 C 175.738281 9.550781 175.976562 10.296875 177.285156 12.195312 C 177.738281 12.808594 180.222656 14.492188 180.730469 14.492188 C 181.371094 14.492188 181.453125 19.300781 181.371094 46.25 C 181.292969 68.339844 181.238281 71.492188 180.890625 71.652344 C 180.679688 71.757812 180.144531 72.027344 179.742188 72.210938 C 178.433594 72.828125 176.964844 74.269531 176.378906 75.523438 C 175.601562 77.207031 175.578125 80.304688 176.378906 81.722656 C 177.207031 83.21875 178.40625 84.390625 179.875 85.058594 L 181.160156 85.675781 L 181.160156 88.480469 L 169.511719 88.480469 C 157.734375 88.480469 157.308594 88.503906 156.34375 89.46875 C 155.890625 89.949219 155.542969 93.472656 155.597656 97.375 L 155.652344 100.230469 L 144.566406 100.230469 L 144.566406 75.925781 L 145.261719 75.925781 C 146.488281 75.925781 148.757812 74 149.480469 72.347656 C 150.550781 69.914062 150.550781 68.257812 149.507812 65.910156 C 149 64.8125 147.316406 63.15625 146.167969 62.675781 C 145.660156 62.4375 145.019531 62.140625 144.78125 62.007812 C 144.113281 61.660156 142.242188 61.714844 141.121094 62.089844 C 138.636719 62.945312 136.6875 65 136.074219 67.457031 C 135.589844 69.328125 135.726562 70.367188 136.632812 72.371094 C 137.21875 73.65625 139.785156 75.925781 140.640625 75.925781 C 140.851562 75.925781 141.121094 76.113281 141.199219 76.351562 C 141.28125 76.59375 141.359375 82.042969 141.359375 88.503906 L 141.359375 100.230469 L 128.539062 100.230469 L 128.539062 41.015625 L 127.953125 40.480469 C 126.777344 39.410156 126.296875 39.332031 121.488281 39.332031 L 116.789062 39.332031 L 116.789062 28.515625 C 116.789062 18.792969 116.839844 17.695312 117.214844 17.695312 C 118.097656 17.695312 121.0625 15.078125 121.0625 14.304688 C 121.0625 14.117188 121.140625 13.957031 121.273438 13.957031 C 121.59375 13.957031 122.128906 11.925781 122.128906 10.699219 C 122.128906 10.085938 121.996094 9.148438 121.808594 8.640625 C 121.433594 7.546875 120.101562 5.4375 119.484375 4.957031 C 118.789062 4.421875 117 3.621094 115.800781 3.300781 C 113.234375 2.605469 109.601562 4.5 107.972656 7.414062 C 107.492188 8.269531 107.359375 8.910156 107.359375 10.617188 C 107.359375 12.863281 107.785156 14.039062 109.121094 15.53125 C 109.894531 16.359375 111.847656 17.695312 112.328125 17.695312 C 112.78125 17.695312 113.046875 23.277344 113.046875 32.976562 L 113.046875 39.332031 L 101.5625 39.332031 L 101.402344 38.585938 C 100.976562 36.609375 99.90625 35.246094 97.902344 34.070312 C 96.863281 33.457031 96.328125 33.347656 94.777344 33.320312 C 93.710938 33.320312 92.480469 33.480469 91.945312 33.722656 C 90.613281 34.257812 88.875 35.964844 88.234375 37.355469 C 87.433594 39.011719 87.460938 41.816406 88.289062 43.339844 C 89.167969 45.019531 90.34375 46.144531 91.894531 46.785156 L 92.75 47.132812 L 92.800781 55.464844 C 92.910156 70.234375 92.910156 79.796875 92.800781 80.117188 C 92.722656 80.386719 90.050781 80.464844 80.703125 80.464844 L 68.710938 80.464844 L 68.710938 79.128906 C 68.710938 75.976562 66.386719 73.386719 62.484375 72.1875 C 60.1875 71.464844 56.261719 73.496094 55.058594 75.976562 C 53.671875 78.835938 53.671875 79.957031 55.140625 83.058594 C 56.046875 84.925781 58.292969 86.609375 59.921875 86.609375 C 61.230469 86.609375 62.378906 87.25 64.0625 88.933594 C 66.785156 91.65625 73.785156 99.109375 73.785156 99.296875 C 73.785156 99.375 73.4375 99.964844 73.035156 100.578125 C 72.636719 101.191406 72.15625 102.128906 71.96875 102.660156 C 71.566406 103.808594 71.539062 106.535156 71.914062 106.777344 C 72.074219 106.855469 72.183594 107.175781 72.183594 107.46875 C 72.183594 108.40625 75.066406 110.996094 76.589844 111.449219 L 77.925781 111.878906 L 77.925781 124.136719 L 48.835938 124.136719 L 48.089844 122.667969 C 46.566406 119.757812 44.429688 118.394531 41.332031 118.394531 C 37.566406 118.394531 34.921875 120.585938 34.039062 124.457031 C 33.746094 125.6875 33.984375 127.15625 34.707031 128.785156 C 35.214844 129.878906 37.109375 132.015625 37.617188 132.015625 C 37.832031 132.015625 37.992188 132.125 37.992188 132.285156 C 37.992188 132.417969 38.234375 132.550781 38.5 132.550781 C 38.792969 132.550781 39.113281 132.65625 39.195312 132.816406 C 39.273438 132.953125 40.316406 133.085938 41.464844 133.085938 C 42.613281 133.085938 43.65625 132.953125 43.734375 132.816406 C 43.816406 132.65625 44.109375 132.550781 44.375 132.550781 C 45.070312 132.550781 46.886719 130.894531 47.875 129.34375 L 48.730469 128.011719 L 78.058594 128.011719 L 78.058594 133.457031 C 78.058594 136.449219 77.976562 139.09375 77.898438 139.335938 C 77.816406 139.574219 77.496094 139.761719 77.203125 139.761719 C 76.535156 139.761719 75.652344 140.242188 75.066406 140.882812 C 74.824219 141.152344 74.238281 141.5 73.757812 141.632812 C 73.25 141.792969 68.84375 141.898438 63.953125 141.898438 L 55.085938 141.898438 L 54.632812 140.882812 C 54.417969 140.351562 54.070312 139.601562 53.9375 139.226562 C 53.511719 138.265625 51.613281 136.316406 50.679688 135.890625 C 47.609375 134.527344 44.484375 135.089844 42.453125 137.332031 C 40.878906 139.066406 40.554688 139.894531 40.582031 142.300781 C 40.582031 144.007812 40.691406 144.652344 41.171875 145.503906 C 41.890625 146.789062 43.574219 148.578125 44.054688 148.578125 C 44.242188 148.578125 44.402344 148.683594 44.402344 148.789062 C 44.402344 149.21875 46.21875 149.644531 48.035156 149.644531 C 49.636719 149.644531 50.09375 149.539062 51.105469 148.898438 C 52.414062 148.042969 53.9375 146.441406 54.285156 145.476562 L 54.550781 144.835938 L 64.167969 144.835938 C 72.046875 144.835938 73.785156 144.890625 73.785156 145.183594 C 73.785156 146.652344 76.160156 149.003906 77.949219 149.269531 C 79.925781 149.566406 81.128906 149.191406 82.4375 147.910156 C 83.347656 146.972656 83.640625 146.464844 83.800781 145.503906 C 84.09375 143.5 83.746094 142.378906 82.4375 140.832031 L 81.261719 139.441406 L 81.261719 134.019531 C 81.261719 131.027344 81.316406 128.4375 81.394531 128.222656 C 81.503906 127.957031 82.359375 127.902344 85.402344 127.957031 L 89.277344 128.035156 L 89.277344 130.332031 C 89.277344 132.445312 89.222656 132.65625 88.609375 133.136719 C 86.335938 134.925781 86.871094 138.265625 89.648438 139.628906 C 90.636719 140.136719 91.359375 140.136719 92.507812 139.65625 C 95.578125 138.375 95.953125 134.234375 93.148438 132.65625 C 92.695312 132.390625 92.613281 132.070312 92.613281 130.253906 L 92.613281 128.144531 L 105.835938 128.089844 C 113.101562 128.035156 119.191406 128.117188 119.324219 128.222656 C 119.484375 128.332031 120.179688 129.078125 120.902344 129.878906 C 122.398438 131.535156 128.085938 137.625 131.371094 141.097656 C 132.546875 142.355469 134.230469 144.144531 135.109375 145.105469 C 135.964844 146.039062 137.542969 147.722656 138.582031 148.84375 C 139.625 149.9375 141.175781 151.621094 142.054688 152.582031 C 142.910156 153.519531 144.78125 155.496094 146.222656 156.992188 C 147.636719 158.460938 149.054688 160.007812 149.402344 160.4375 L 149.988281 161.183594 L 149.242188 162.574219 C 148.8125 163.320312 147.957031 164.976562 147.34375 166.234375 C 146.703125 167.488281 146.035156 168.636719 145.847656 168.796875 C 145.339844 169.199219 118.257812 169.117188 117.855469 168.714844 C 117.640625 168.503906 117.804688 168.289062 118.441406 167.996094 C 121.433594 166.527344 123.144531 163.1875 122.421875 160.25 C 121.488281 156.535156 118.683594 154.1875 115.160156 154.1875 C 113.261719 154.1875 111.152344 155.066406 109.949219 156.375 C 109.042969 157.363281 108.027344 159.3125 107.917969 160.328125 C 107.839844 160.96875 107.785156 160.996094 105.78125 160.996094 C 104.632812 160.996094 90.292969 160.945312 73.917969 160.917969 L 44.136719 160.863281 L 44.136719 160.300781 C 44.136719 160.007812 43.519531 159.152344 42.71875 158.351562 C 41.625 157.230469 41.089844 156.910156 40.15625 156.75 C 36.738281 156.214844 33.71875 158.59375 33.71875 161.851562 C 33.71875 163.667969 35.109375 166.207031 36.121094 166.207031 C 36.257812 166.207031 36.390625 166.3125 36.390625 166.472656 C 36.390625 166.605469 36.628906 166.738281 36.898438 166.738281 C 37.191406 166.738281 37.511719 166.847656 37.589844 167.007812 C 37.886719 167.460938 39.808594 167.300781 41.0625 166.714844 C 41.730469 166.394531 42.667969 165.671875 43.175781 165.109375 L 44.054688 164.070312 L 108.1875 164.070312 L 108.640625 164.789062 C 109.871094 166.660156 111.125 167.59375 113.664062 168.582031 L 114.382812 168.875 L 114.382812 181.429688 L 109.710938 181.429688 C 105.355469 181.429688 105.035156 181.402344 105.035156 180.949219 C 105.035156 179.5625 103.003906 177.15625 100.949219 176.113281 C 99.210938 175.234375 96.300781 175.207031 94.75 176.089844 C 92.429688 177.371094 91.359375 178.625 90.746094 180.816406 L 90.585938 181.429688 L 54.527344 181.429688 C 23.753906 181.429688 18.492188 181.375 18.492188 181.054688 C 18.492188 179.933594 15.984375 176.621094 15.128906 176.621094 C 14.914062 176.621094 14.753906 176.488281 14.753906 176.355469 C 14.753906 176.195312 14.515625 176.089844 14.246094 176.089844 C 13.953125 176.089844 13.632812 175.953125 13.550781 175.820312 C 13.152344 175.152344 7.542969 175.714844 7.542969 176.410156 C 7.542969 176.515625 7.382812 176.621094 7.195312 176.621094 C 6.632812 176.621094 5.058594 178.464844 4.390625 179.882812 C 3.964844 180.84375 3.804688 181.644531 3.804688 183.140625 C 3.804688 184.234375 3.9375 185.222656 4.070312 185.304688 C 4.230469 185.382812 4.335938 185.703125 4.335938 185.996094 C 4.335938 186.265625 4.472656 186.503906 4.605469 186.503906 C 4.765625 186.503906 4.871094 186.664062 4.871094 186.851562 C 4.871094 187.28125 6.792969 189.175781 7.222656 189.175781 C 7.410156 189.175781 7.542969 189.257812 7.542969 189.390625 C 7.542969 189.898438 9.414062 190.351562 11.414062 190.351562 C 13.125 190.351562 13.765625 190.21875 14.566406 189.765625 C 15.957031 188.960938 17.160156 187.679688 17.960938 186.15625 L 18.628906 184.902344 L 90.746094 184.902344 L 91.199219 185.890625 C 92.214844 188.269531 95.285156 190.246094 97.957031 190.246094 C 100.65625 190.246094 103.699219 188.214844 104.820312 185.675781 L 105.167969 184.902344 L 109.363281 184.902344 C 111.660156 184.902344 113.714844 184.824219 113.957031 184.742188 C 114.332031 184.582031 114.382812 185.355469 114.382812 192.113281 L 114.382812 199.648438 L 85.617188 199.566406 C 54.550781 199.484375 56.023438 199.433594 55.378906 200.847656 C 55.195312 201.25 55.085938 203.601562 55.085938 206.804688 L 55.085938 212.148438 L 25.570312 212.148438 L 25.089844 211.078125 C 22.980469 206.191406 16.515625 204.960938 12.882812 208.726562 C 12.351562 209.316406 11.734375 210.089844 11.550781 210.492188 C 11.363281 210.890625 11.121094 211.425781 10.988281 211.667969 C 10.535156 212.574219 10.722656 215.566406 11.308594 216.792969 C 11.976562 218.210938 13.578125 220.160156 14.113281 220.160156 C 14.328125 220.160156 14.488281 220.242188 14.488281 220.375 C 14.488281 220.855469 16.355469 221.335938 18.226562 221.335938 C 19.855469 221.335938 20.496094 221.203125 21.433594 220.667969 C 23.007812 219.839844 24.183594 218.558594 25.039062 216.792969 L 25.730469 215.351562 L 55.085938 215.351562 L 55.085938 217.570312 C 55.085938 219.679688 55.058594 219.839844 54.285156 220.5625 C 52.09375 222.644531 54.605469 226.757812 57.464844 225.769531 C 59.066406 225.207031 59.734375 224.273438 59.761719 222.671875 C 59.761719 221.550781 59.652344 221.175781 59.171875 220.746094 C 58.613281 220.292969 58.558594 220 58.558594 217.785156 L 58.558594 215.351562 L 72.714844 215.351562 C 80.515625 215.351562 86.871094 215.433594 86.871094 215.539062 C 86.871094 215.644531 85.832031 216.820312 84.546875 218.15625 C 83.238281 219.492188 80.222656 222.671875 77.789062 225.234375 C 64.59375 239.230469 61.628906 242.167969 61.070312 241.957031 C 60.242188 241.636719 58.238281 242.410156 57.222656 243.398438 C 55.246094 245.402344 55.300781 247.886719 57.355469 249.96875 C 58.53125 251.144531 59.839844 251.519531 61.683594 251.222656 C 63.3125 250.957031 65.503906 248.394531 65.503906 246.789062 C 65.503906 246.175781 64.996094 244.574219 64.621094 244.011719 C 64.488281 243.800781 64.941406 243.15625 65.824219 242.277344 C 66.597656 241.5 68.441406 239.605469 69.882812 238.054688 C 71.328125 236.507812 73.730469 233.996094 75.226562 232.445312 C 79.582031 227.933594 85.402344 221.710938 86.230469 220.695312 C 87.753906 218.851562 91.171875 215.621094 91.761719 215.484375 C 92.082031 215.40625 102.496094 215.378906 114.917969 215.40625 L 137.488281 215.484375 L 137.488281 221.148438 L 133.347656 225.527344 C 129.128906 229.960938 123.464844 235.867188 117.75 241.714844 C 114.332031 245.214844 114.089844 245.347656 112.273438 244.707031 C 110.722656 244.171875 107.8125 245.292969 106.183594 247.085938 C 102.84375 250.742188 103.941406 256.246094 108.453125 258.570312 C 110.191406 259.449219 112.996094 259.398438 114.863281 258.460938 C 116.253906 257.769531 117.507812 256.539062 118.121094 255.203125 C 118.308594 254.804688 118.550781 254.269531 118.683594 254.027344 C 119.03125 253.335938 118.976562 250.476562 118.605469 249.621094 C 118.417969 249.222656 117.988281 248.417969 117.617188 247.859375 L 116.972656 246.871094 L 118.417969 245.453125 C 121.59375 242.304688 136.5 226.785156 139.089844 223.898438 C 139.839844 223.097656 140.507812 222.378906 140.640625 222.351562 C 140.746094 222.296875 140.828125 220.722656 140.828125 218.851562 L 140.828125 215.433594 L 146.488281 215.484375 L 149.347656 212.46875 C 150.894531 210.8125 152.257812 209.476562 152.367188 209.476562 C 152.472656 209.476562 153.085938 210.035156 153.699219 210.730469 C 155.519531 212.761719 157.09375 214.175781 159.65625 216.125 C 162.035156 217.941406 162.835938 218.449219 165.667969 219.945312 C 166.46875 220.375 167.269531 220.882812 167.457031 221.042969 C 167.671875 221.253906 167.777344 222.886719 167.804688 226.304688 C 167.859375 234.421875 167.859375 234.851562 167.429688 234.851562 C 167.082031 234.851562 160.539062 241.367188 154.582031 247.671875 C 151.832031 250.554688 151.964844 250.421875 147.503906 255.042969 C 142.320312 260.359375 134.578125 268.53125 133.613281 269.628906 C 132.894531 270.480469 132.601562 270.644531 131.664062 270.644531 C 130.277344 270.644531 127.203125 271.605469 127.203125 272.03125 C 127.203125 272.164062 127.042969 272.246094 126.832031 272.246094 C 126.347656 272.246094 124.960938 273.847656 124.425781 274.96875 C 122.664062 278.871094 124 282.609375 127.953125 284.851562 C 129.421875 285.679688 132.601562 285.652344 134.28125 284.800781 C 135.699219 284.078125 137.246094 282.421875 137.808594 280.980469 L 138.210938 279.992188 L 151.457031 279.992188 L 151.644531 285.386719 C 151.722656 288.378906 151.777344 294.761719 151.722656 299.625 L 151.644531 308.4375 L 129.207031 308.519531 C 116.867188 308.542969 105.78125 308.519531 104.582031 308.410156 C 102.683594 308.277344 102.363281 308.195312 102.363281 307.769531 C 102.363281 306.96875 101.242188 305.046875 100.171875 303.976562 C 99.238281 303.070312 98.757812 302.773438 96.675781 301.921875 C 95.714844 301.546875 94.324219 301.546875 93.363281 301.921875 C 91.332031 302.773438 90.878906 303.015625 89.96875 303.949219 C 88.820312 305.152344 88.449219 305.847656 87.96875 307.554688 C 87.648438 308.730469 87.648438 309.292969 88.074219 311.402344 C 88.339844 312.632812 90.023438 314.714844 91.519531 315.648438 C 92.695312 316.371094 93.042969 316.449219 94.992188 316.449219 C 96.273438 316.449219 97.53125 316.289062 98.089844 316.078125 C 99.238281 315.597656 101.082031 313.832031 101.777344 312.578125 L 102.285156 311.644531 L 126.804688 311.5625 C 146.25 311.507812 151.378906 311.5625 151.5625 311.828125 C 151.671875 312.015625 151.777344 318.988281 151.777344 327.347656 L 151.777344 342.492188 L 150.335938 343.1875 C 148.546875 344.042969 147.425781 345.058594 146.835938 346.417969 C 146.597656 346.980469 146.277344 347.648438 146.140625 347.886719 C 145.609375 348.902344 146.117188 353.175781 146.757812 353.175781 C 146.890625 353.175781 146.96875 353.335938 146.96875 353.550781 C 146.96875 354.085938 148.945312 356.007812 149.960938 356.460938 C 151.964844 357.316406 152.390625 357.449219 153.328125 357.449219 C 154.476562 357.449219 155.890625 356.996094 156.988281 356.277344 C 158.1875 355.5 160.058594 353.417969 160.058594 352.882812 C 160.058594 352.617188 160.191406 352.320312 160.324219 352.242188 C 160.9375 351.867188 160.40625 346.5 159.738281 346.5 C 159.605469 346.5 159.523438 346.339844 159.523438 346.152344 C 159.523438 345.589844 157.707031 343.910156 156.453125 343.320312 L 155.25 342.761719 L 155.25 311.507812 L 161.605469 311.507812 C 167.191406 311.507812 167.992188 311.457031 168.5 311.027344 C 169.511719 310.199219 169.726562 308.890625 169.511719 304.699219 L 169.328125 300.824219 L 176.03125 300.824219 L 176.726562 302.242188 C 177.554688 303.949219 177.898438 304.296875 179.824219 305.285156 L 181.292969 306.058594 L 181.371094 331.835938 C 181.398438 345.992188 181.371094 358.089844 181.292969 358.707031 C 181.1875 359.453125 181 359.855469 180.757812 359.855469 C 180.222656 359.855469 178.488281 360.84375 177.660156 361.644531 C 176.269531 362.925781 175.683594 364.527344 175.710938 366.90625 C 175.710938 369.390625 176.191406 370.484375 178.007812 372.222656 C 180.917969 375 185.433594 375 188.289062 372.195312 C 189.945312 370.566406 190.507812 369.230469 190.507812 366.800781 C 190.507812 365.625 190.402344 364.609375 190.242188 364.527344 C 190.105469 364.449219 189.972656 364.15625 189.972656 363.914062 C 189.945312 363.273438 188.183594 360.921875 187.703125 360.921875 C 187.488281 360.921875 187.300781 360.84375 187.300781 360.710938 C 187.300781 360.496094 185.992188 359.855469 185.511719 359.855469 C 185.246094 359.855469 185.164062 357.183594 185.164062 345.886719 C 185.164062 338.21875 185.085938 326.199219 185.003906 319.175781 C 184.84375 305.980469 184.84375 305.632812 185.886719 305.632812 C 186.101562 305.632812 186.796875 305.285156 187.4375 304.832031 C 189.304688 303.550781 190.507812 301.226562 190.507812 298.902344 C 190.507812 297.726562 190.402344 297.300781 189.546875 295.351562 C 189.09375 294.28125 187.410156 292.707031 186.101562 292.089844 L 185.03125 291.609375 L 185.03125 261.695312 L 192.457031 261.613281 L 199.855469 261.5625 L 199.855469 277.855469 C 199.855469 295.027344 199.882812 295.296875 201.058594 296.285156 C 201.457031 296.605469 202.472656 296.683594 206.320312 296.683594 L 211.074219 296.683594 L 211.074219 303.949219 C 211.074219 309.746094 210.996094 311.242188 210.726562 311.242188 C 210.246094 311.242188 208.9375 311.882812 208.9375 312.097656 C 208.9375 312.230469 208.777344 312.308594 208.5625 312.308594 C 208.136719 312.308594 206.71875 313.859375 206.1875 314.929688 C 205.386719 316.476562 205.089844 318.347656 205.4375 319.574219 C 206.160156 322.195312 207.546875 323.929688 209.792969 325.105469 C 210.753906 325.613281 214.414062 325.558594 215.617188 325.050781 C 216.816406 324.515625 218.527344 322.835938 219.300781 321.417969 C 220.101562 319.84375 220.128906 316.824219 219.328125 315.113281 C 218.660156 313.726562 217.113281 312.230469 215.617188 311.589844 L 214.546875 311.109375 L 214.546875 296.660156 L 218.367188 296.738281 C 220.449219 296.820312 222.320312 296.898438 222.507812 296.953125 C 222.667969 297.03125 222.828125 297.351562 222.828125 297.671875 C 222.855469 299.570312 225.605469 302.480469 228.035156 303.203125 C 231.292969 304.164062 235.085938 302.320312 236.636719 299.089844 L 237.089844 298.15625 L 239.949219 298.15625 C 243.101562 298.15625 244.195312 298.421875 244.195312 299.167969 C 244.195312 299.757812 245.957031 301.894531 246.4375 301.894531 C 246.625 301.894531 247 302.105469 247.238281 302.402344 C 247.640625 302.828125 247.695312 303.46875 247.640625 307.101562 L 247.585938 311.296875 L 246.839844 311.988281 C 245.398438 313.246094 244.917969 314.902344 245.609375 316.101562 C 247.132812 318.800781 249.882812 319.230469 251.835938 317.066406 C 252.609375 316.210938 253.167969 314.5 252.769531 314.101562 C 252.609375 313.941406 252.476562 313.621094 252.476562 313.40625 C 252.476562 313.191406 252.128906 312.632812 251.699219 312.175781 C 250.953125 311.402344 250.925781 311.296875 250.847656 308.171875 C 250.738281 303.335938 250.820312 301.894531 251.21875 301.894531 C 251.835938 301.894531 253.4375 299.917969 253.785156 298.769531 C 254.34375 296.792969 253.0625 294.359375 250.792969 293.105469 C 249.003906 292.117188 246.734375 292.570312 245.261719 294.199219 L 244.488281 295.027344 L 240.964844 294.976562 C 239.011719 294.949219 237.304688 294.84375 237.195312 294.789062 C 237.089844 294.707031 236.984375 294.386719 236.984375 294.039062 C 236.984375 292.652344 234.847656 289.980469 233.136719 289.234375 C 230.226562 288.003906 229.183594 288.003906 226.40625 289.234375 C 225.390625 289.6875 223.601562 291.582031 223.066406 292.757812 L 222.691406 293.613281 L 214.546875 293.613281 L 214.546875 273.046875 L 238.210938 273.101562 L 261.878906 273.179688 L 261.984375 275.90625 C 262.117188 280.445312 262.492188 280.792969 267.433594 280.792969 L 270.800781 280.792969 L 271.277344 281.648438 C 272.480469 283.652344 274.511719 285.332031 275.738281 285.332031 C 276.113281 285.332031 276.246094 285.652344 276.40625 287.148438 C 276.703125 289.953125 276.355469 297.058594 275.875 297.59375 C 275.660156 297.832031 275.3125 298.472656 275.097656 299.007812 C 274.726562 299.890625 274.726562 300.128906 275.046875 300.933594 C 275.765625 302.667969 277.957031 303.496094 279.53125 302.613281 C 281.269531 301.652344 281.9375 299.4375 280.816406 298.261719 C 279.851562 297.21875 279.800781 296.738281 279.828125 291.074219 C 279.851562 285.707031 279.878906 285.464844 280.386719 285.386719 C 281.109375 285.28125 282.148438 284.746094 282.765625 284.183594 C 283.96875 283.117188 284.289062 283.355469 289.335938 288.699219 C 293.824219 293.453125 294.945312 294.683594 294.945312 294.816406 C 294.945312 294.894531 294.730469 295.296875 294.492188 295.671875 C 292.140625 299.25 293.527344 303.976562 297.589844 306.113281 C 298.523438 306.59375 299.164062 306.699219 300.953125 306.699219 C 302.183594 306.699219 303.277344 306.566406 303.359375 306.433594 C 303.4375 306.273438 303.730469 306.167969 304.027344 306.167969 C 304.667969 306.167969 307.070312 303.789062 307.578125 302.640625 C 308.699219 300.023438 308.78125 299.542969 308.246094 297.914062 C 307.632812 295.992188 307.179688 295.164062 306.164062 294.175781 C 304.507812 292.570312 303.011719 291.929688 300.820312 291.929688 C 299.753906 291.929688 298.789062 292.0625 298.605469 292.25 C 297.9375 292.917969 296.976562 292.546875 295.800781 291.128906 C 295.160156 290.355469 292.566406 287.578125 290.003906 284.933594 C 285.730469 280.550781 285.328125 280.070312 285.488281 279.378906 C 285.648438 278.574219 285.222656 276.304688 284.714844 275.183594 C 284.101562 273.875 282.65625 272.324219 281.535156 271.789062 C 278.707031 270.429688 277.957031 270.347656 275.765625 271.148438 C 274.21875 271.710938 273.921875 271.925781 272.5625 273.152344 C 271.679688 273.980469 271.253906 274.730469 270.613281 276.574219 L 270.265625 277.585938 L 265.644531 277.585938 L 265.457031 275.957031 C 265.375 275.050781 265.296875 273.714844 265.296875 272.992188 C 265.296875 272.085938 265.136719 271.417969 264.734375 270.882812 L 264.203125 270.109375 L 214.546875 270.109375 L 214.546875 261.5625 L 226.003906 261.5625 C 232.390625 261.5625 237.542969 261.667969 237.625 261.800781 C 237.703125 261.933594 237.597656 262.203125 237.359375 262.390625 C 236.769531 262.871094 236.234375 263.992188 236.183594 264.898438 C 236.050781 266.742188 236.183594 267.171875 237.25 268.238281 C 238.238281 269.226562 238.425781 269.308594 239.761719 269.308594 C 241.042969 269.308594 241.3125 269.199219 242.351562 268.265625 C 243.449219 267.304688 243.5 267.171875 243.5 265.753906 C 243.5 264.472656 243.394531 264.125 242.621094 263.164062 C 242.136719 262.550781 241.792969 262.015625 241.816406 261.960938 C 241.871094 261.910156 242.671875 261.828125 243.582031 261.773438 C 245.210938 261.695312 245.261719 261.722656 246.386719 262.789062 C 248.628906 264.925781 249.109375 265.140625 251.78125 265.167969 C 253.542969 265.167969 254.480469 265.035156 255.144531 264.710938 C 256.457031 264.097656 258.03125 262.46875 258.644531 261.078125 C 259.074219 260.199219 259.3125 259.957031 259.902344 259.90625 C 260.300781 259.878906 270.453125 259.851562 282.496094 259.851562 L 304.347656 259.824219 L 305.121094 258.890625 L 305.894531 257.980469 L 305.894531 252.425781 C 305.894531 247.058594 305.921875 246.871094 306.429688 246.871094 C 306.722656 246.871094 306.964844 246.738281 306.964844 246.601562 C 306.964844 246.441406 307.125 246.335938 307.339844 246.335938 C 307.871094 246.335938 309.824219 244.121094 310.304688 242.96875 C 310.757812 241.875 310.863281 238.191406 310.4375 237.921875 C 310.304688 237.84375 310.167969 237.546875 310.167969 237.253906 C 310.167969 236.425781 307.765625 234.023438 306.214844 233.328125 C 303.945312 232.339844 301.917969 232.527344 299.136719 233.96875 C 298.898438 234.101562 298.121094 233.328125 292.273438 227.105469 C 287.066406 221.550781 286.71875 221.226562 285.675781 220.800781 C 284.980469 220.507812 280.066406 220.453125 257.628906 220.613281 C 242.671875 220.695312 230.09375 220.695312 229.691406 220.585938 C 229.289062 220.507812 228.96875 220.265625 228.96875 220.054688 C 228.96875 218.929688 227.046875 216.6875 225.097656 215.59375 C 223.574219 214.738281 220.53125 214.738281 218.742188 215.59375 C 217.21875 216.339844 215.5625 218.128906 215.082031 219.597656 C 214.894531 220.1875 214.546875 220.722656 214.308594 220.800781 C 214.066406 220.855469 211.664062 220.90625 208.9375 220.90625 C 203.675781 220.933594 203.597656 220.90625 203.597656 219.597656 C 203.597656 219.011719 203.996094 218.636719 206.214844 217.195312 C 210.433594 214.445312 216.445312 208.113281 218.339844 204.453125 C 219.328125 202.503906 219.167969 202.53125 226.96875 202.53125 C 230.785156 202.53125 234.179688 202.613281 234.472656 202.691406 C 234.792969 202.773438 235.222656 203.171875 235.40625 203.546875 C 236.449219 205.601562 238.371094 207.339844 240.457031 208.058594 C 243.820312 209.261719 247.800781 207.125 249.484375 203.253906 L 249.804688 202.53125 L 262.894531 202.53125 L 262.894531 207.875 C 262.894531 211.371094 263 213.429688 263.210938 213.882812 C 263.90625 215.40625 262.707031 215.351562 293.476562 215.40625 L 321.789062 215.484375 L 321.816406 217.0625 C 321.84375 218.449219 321.761719 218.71875 321.199219 219.199219 C 319.011719 221.015625 318.449219 222.324219 318.851562 224.539062 C 319.0625 225.554688 320.667969 227.640625 321.28125 227.640625 C 321.496094 227.640625 321.65625 227.851562 321.65625 228.09375 C 321.683594 228.359375 321.65625 232.234375 321.65625 236.71875 C 321.628906 244.734375 321.65625 244.894531 322.214844 245.507812 C 322.667969 245.988281 322.964844 246.097656 323.605469 245.960938 C 325.101562 245.667969 325.101562 245.613281 325.128906 236.320312 L 325.128906 227.746094 L 325.929688 227.292969 C 326.945312 226.675781 327.691406 225.609375 327.90625 224.378906 C 328.199219 222.722656 327.851562 221.628906 326.4375 220.027344 L 325.128906 218.53125 L 325.128906 216.074219 C 325.101562 213.347656 324.808594 212.65625 323.417969 212.308594 C 322.992188 212.199219 309.984375 212.121094 294.542969 212.148438 L 266.417969 212.175781 L 266.230469 208.886719 C 266.125 207.074219 266.097656 204.933594 266.152344 204.132812 L 266.230469 202.664062 L 297.347656 202.585938 C 314.46875 202.53125 329.589844 202.585938 330.949219 202.664062 L 333.40625 202.851562 L 333.40625 244.921875 L 332.179688 245.5625 C 331.484375 245.910156 330.628906 246.601562 330.230469 247.136719 C 329.855469 247.644531 329.480469 248.125 329.375 248.207031 C 328.492188 249.007812 328.144531 253.519531 328.867188 255.070312 C 329.082031 255.550781 329.347656 255.953125 329.453125 255.953125 C 329.589844 255.953125 329.667969 256.113281 329.667969 256.324219 C 329.667969 256.78125 331.402344 258.277344 332.472656 258.730469 C 334.824219 259.746094 335.945312 259.878906 337.441406 259.398438 C 341.234375 258.167969 343.289062 255.605469 343.289062 252.078125 C 343.289062 251.117188 343.183594 250.128906 343.050781 249.863281 C 342.917969 249.621094 342.648438 249.0625 342.460938 248.632812 C 341.742188 247.109375 338.964844 245 337.679688 245 C 337.414062 245 337.121094 244.8125 337.039062 244.574219 C 336.960938 244.332031 336.878906 234.449219 336.878906 222.617188 L 336.878906 201.0625 L 335.492188 199.460938 L 249.910156 199.648438 L 249.539062 198.523438 C 249.109375 197.242188 247.535156 195.347656 246.171875 194.519531 C 244.597656 193.53125 242.753906 193.183594 241.042969 193.503906 C 238.53125 194.011719 236.050781 196.121094 235.246094 198.417969 L 234.898438 199.460938 L 233.058594 199.539062 C 232.070312 199.59375 228.917969 199.566406 226.113281 199.460938 C 220.691406 199.246094 220.582031 199.21875 221.222656 198.042969 C 222.238281 196.175781 223.628906 189.628906 223.628906 186.585938 C 223.628906 185.464844 223.734375 184.847656 223.976562 184.769531 C 224.136719 184.714844 233.777344 184.742188 245.398438 184.847656 L 266.472656 185.035156 L 266.632812 185.648438 C 266.871094 186.746094 269.007812 188.882812 270.53125 189.578125 C 272.882812 190.644531 275.257812 190.433594 277.636719 188.960938 C 278.679688 188.320312 279.238281 187.628906 280.226562 185.890625 C 280.65625 185.117188 280.789062 184.421875 280.789062 182.765625 C 280.789062 181.617188 280.679688 180.574219 280.519531 180.496094 C 280.386719 180.414062 280.253906 180.09375 280.253906 179.800781 C 280.253906 179.480469 279.585938 178.574219 278.730469 177.71875 C 277.53125 176.542969 276.835938 176.089844 275.605469 175.714844 C 272.882812 174.859375 270.183594 175.527344 268.179688 177.53125 C 267.300781 178.410156 266.097656 180.523438 266.097656 181.164062 C 266.097656 181.351562 258.992188 181.429688 244.863281 181.429688 L 223.628906 181.429688 L 223.628906 178.226562 L 231.214844 178.226562 C 235.515625 178.226562 239.121094 178.117188 239.492188 177.957031 C 239.867188 177.824219 240.429688 177.316406 240.722656 176.835938 C 241.203125 176.0625 241.257812 175.472656 241.257812 171.601562 L 241.257812 167.273438 L 243.472656 167.273438 C 245.425781 167.273438 245.769531 167.355469 246.226562 167.835938 C 247.132812 168.824219 248.84375 169.863281 250.179688 170.183594 C 253.25 170.933594 256.75 169.171875 258.246094 166.097656 C 259.554688 163.375 258.832031 159.5 256.640625 157.578125 C 255.972656 156.992188 253.4375 155.789062 252.875 155.789062 C 252.527344 155.789062 252.476562 154.828125 252.476562 149.246094 L 252.476562 142.699219 L 261.796875 142.699219 L 261.957031 143.554688 C 262.039062 144.035156 262.089844 147.292969 262.039062 150.765625 L 261.957031 157.097656 L 261.101562 157.953125 C 260.113281 158.886719 260.035156 159.3125 260.59375 160.625 C 261.210938 162.09375 261.957031 162.601562 263.480469 162.574219 C 264.574219 162.574219 264.921875 162.414062 265.617188 161.746094 C 266.683594 160.675781 266.820312 158.859375 265.9375 157.871094 C 265.375 157.285156 265.351562 156.964844 265.269531 150.046875 L 265.164062 142.832031 L 291.207031 142.78125 C 305.523438 142.726562 319.652344 142.808594 322.589844 142.914062 L 327.933594 143.101562 L 328.011719 143.902344 C 328.144531 145.425781 330.148438 148.578125 330.949219 148.578125 C 331.136719 148.578125 331.269531 148.683594 331.269531 148.816406 C 331.269531 148.949219 331.484375 149.109375 331.75 149.191406 C 331.992188 149.296875 332.6875 149.539062 333.273438 149.753906 C 335.277344 150.527344 337.46875 150.234375 339.605469 148.898438 C 340.644531 148.257812 341.207031 147.5625 342.222656 145.773438 C 342.941406 144.464844 343.050781 141.257812 342.410156 139.761719 C 341.582031 137.839844 339.578125 136.050781 337.414062 135.300781 C 336.320312 134.902344 334.128906 134.847656 333.460938 135.195312 C 333.21875 135.328125 332.554688 135.648438 332.019531 135.863281 C 331.457031 136.101562 330.390625 137.039062 329.613281 137.894531 L 328.226562 139.496094 L 265.296875 139.496094 L 265.296875 133.351562 L 271.386719 133.351562 C 278.089844 133.351562 278.492188 133.273438 279.265625 131.75 C 279.667969 130.949219 279.71875 130.121094 279.691406 125.875 L 279.667969 120.933594 L 305.574219 120.851562 L 331.511719 120.796875 L 332.3125 119.808594 L 333.140625 118.792969 L 333.140625 97.933594 L 334.101562 97.585938 C 335.171875 97.210938 337.09375 95.421875 337.601562 94.355469 C 338.480469 92.433594 338.457031 90.777344 337.496094 88.453125 C 336.558594 86.261719 334.023438 84.738281 331.269531 84.738281 C 329.75 84.738281 329.320312 84.847656 328.171875 85.566406 C 326.730469 86.476562 325.929688 87.222656 325.929688 87.675781 C 325.929688 87.8125 325.820312 87.945312 325.714844 87.945312 C 325.289062 87.945312 324.859375 89.734375 324.859375 91.46875 C 324.859375 94.167969 326.328125 96.492188 328.679688 97.507812 L 329.667969 97.960938 L 329.613281 107.710938 L 329.535156 117.460938 L 304.640625 117.539062 L 279.71875 117.59375 L 279.71875 114.414062 C 279.71875 111.261719 279.71875 111.234375 280.46875 110.753906 C 282.148438 109.578125 282.285156 109.578125 293.609375 109.578125 L 304.480469 109.578125 L 305.203125 108.886719 L 305.894531 108.164062 L 305.976562 96.117188 C 306.003906 89.492188 306.03125 82.253906 306.03125 80.011719 L 306.03125 75.953125 L 306.804688 75.496094 C 307.871094 74.855469 309.101562 73.519531 309.101562 72.960938 C 309.101562 72.691406 309.234375 72.398438 309.367188 72.320312 C 309.742188 72.078125 309.6875 70.636719 309.289062 69.460938 C 308.808594 68.125 308.167969 67.324219 306.910156 66.550781 L 305.871094 65.910156 L 305.921875 58.402344 L 305.949219 50.898438 L 306.964844 50.28125 C 308.808594 49.132812 309.769531 46.835938 309.234375 44.808594 C 308.539062 42.03125 306.164062 40.453125 303.277344 40.855469 C 302.371094 40.988281 301.835938 41.28125 300.980469 42.109375 C 300.394531 42.722656 299.726562 43.472656 299.566406 43.792969 C 299.136719 44.566406 299.113281 46.835938 299.539062 47.800781 C 299.832031 48.46875 301.035156 49.777344 302.261719 50.765625 C 302.636719 51.085938 302.691406 51.9375 302.636719 58.644531 L 302.558594 66.148438 L 301.941406 66.46875 C 300.125 67.378906 299.21875 68.898438 299.21875 71.0625 C 299.21875 72.320312 299.378906 72.851562 299.992188 73.839844 C 300.445312 74.5625 301.167969 75.257812 301.703125 75.523438 L 302.609375 75.953125 L 302.769531 82.949219 C 303.011719 91.738281 303.011719 105.652344 302.796875 106.214844 C 302.664062 106.589844 301.515625 106.640625 292.808594 106.640625 L 283.003906 106.640625 L 283.03125 104.800781 C 283.03125 102.636719 282.710938 101.859375 281.164062 100.363281 C 280.066406 99.324219 278.492188 98.628906 277.183594 98.628906 C 276.0625 98.628906 274.164062 99.695312 273.042969 100.953125 C 272.214844 101.886719 271.972656 102.421875 271.839844 103.570312 C 271.464844 106.375 272.429688 108.246094 275.097656 109.875 L 276.007812 110.433594 L 275.847656 117.699219 L 272.722656 117.726562 C 270.078125 117.726562 269.515625 117.808594 269.117188 118.207031 C 268.6875 118.632812 268.636719 119.328125 268.554688 124.402344 L 268.472656 130.148438 L 266.203125 130.148438 C 263.667969 130.148438 262.519531 130.546875 262.25 131.535156 C 262.171875 131.882812 262.089844 133.726562 262.089844 135.621094 C 262.089844 137.546875 261.984375 139.226562 261.851562 139.363281 C 261.691406 139.523438 259.660156 139.601562 257.042969 139.550781 L 252.476562 139.46875 L 252.476562 119.328125 L 253.863281 118.660156 C 258.269531 116.605469 259.660156 111.796875 257.070312 107.628906 C 256.402344 106.589844 254.398438 105.039062 253.703125 105.039062 C 253.492188 105.039062 253.222656 104.90625 253.144531 104.773438 C 253.0625 104.613281 252.101562 104.503906 251.007812 104.503906 C 249.910156 104.503906 248.949219 104.613281 248.871094 104.773438 C 248.789062 104.90625 248.46875 105.039062 248.148438 105.039062 C 247.855469 105.039062 246.921875 105.761719 245.984375 106.695312 C 244.195312 108.511719 243.660156 109.714844 243.660156 111.851562 L 243.660156 113.050781 L 236.984375 113.050781 L 236.984375 108.699219 L 237.011719 104.371094 L 238.507812 102.769531 C 240.667969 100.445312 244.648438 96.25 247.773438 93.019531 C 255.144531 85.355469 263.800781 76.351562 265.832031 74.214844 C 267.085938 72.90625 268.902344 71.011719 269.917969 70.023438 L 271.707031 68.207031 L 273.015625 68.847656 C 274.75 69.726562 277.316406 69.753906 279.132812 68.925781 C 280.496094 68.3125 282.390625 66.683594 282.390625 66.121094 C 282.390625 65.933594 282.472656 65.773438 282.605469 65.773438 C 283.058594 65.773438 283.539062 63.933594 283.539062 62.117188 C 283.539062 60.59375 283.40625 59.898438 282.898438 58.9375 C 282.175781 57.496094 280.921875 56.1875 279.828125 55.652344 C 279.398438 55.464844 278.867188 55.199219 278.652344 55.089844 C 278.332031 54.929688 278.25 54.128906 278.25 50.417969 C 278.25 46.222656 278.277344 45.902344 278.785156 45.636719 C 279.800781 45.074219 280.734375 43.847656 280.894531 42.859375 C 281.1875 40.960938 280.816406 39.945312 279.398438 38.691406 L 278.117188 37.570312 L 278.171875 29.824219 C 278.25 22.210938 278.25 22.105469 278.8125 22.023438 C 279.558594 21.917969 281.695312 19.941406 282.363281 18.683594 C 283.164062 17.242188 283.140625 14.410156 282.335938 12.863281 C 280.761719 9.949219 276.621094 8.5625 273.789062 10.003906 C 271.894531 10.992188 270.851562 12.300781 270.132812 14.519531 C 269.648438 16.066406 269.675781 16.335938 270.800781 18.953125 C 271.226562 19.886719 272.375 20.957031 273.683594 21.570312 L 274.566406 21.996094 L 274.726562 29.394531 C 274.832031 33.457031 274.832031 37.0625 274.75 37.382812 C 274.671875 37.703125 274.136719 38.449219 273.578125 39.039062 C 272.507812 40.160156 272.082031 41.496094 272.375 42.882812 C 272.589844 43.898438 273.738281 45.476562 274.21875 45.476562 C 274.429688 45.476562 274.671875 45.664062 274.75 45.902344 C 274.964844 46.4375 274.910156 51.566406 274.699219 53.488281 C 274.539062 54.824219 274.429688 54.984375 273.710938 55.222656 C 271.679688 55.890625 270.050781 57.496094 269.089844 59.710938 C 268.714844 60.621094 268.660156 64.066406 269.035156 64.304688 C 269.195312 64.386719 269.304688 64.839844 269.304688 65.265625 C 269.304688 66.09375 269.277344 66.148438 261.289062 74.429688 C 259.3125 76.511719 256.667969 79.265625 255.414062 80.597656 C 254.160156 81.90625 251.566406 84.605469 249.671875 86.609375 C 247.746094 88.585938 245.101562 91.363281 243.792969 92.753906 C 242.460938 94.140625 239.761719 96.945312 237.785156 98.976562 C 235.808594 101.007812 234.097656 102.929688 233.992188 103.25 C 233.910156 103.570312 233.832031 105.921875 233.804688 108.429688 L 233.777344 113.050781 L 214.28125 113.050781 L 214.28125 103.167969 L 216.628906 103.167969 C 218.6875 103.167969 219.035156 103.089844 219.753906 102.527344 L 220.554688 101.886719 L 220.636719 96.464844 C 220.691406 93.207031 220.851562 90.882812 221.011719 90.695312 C 221.171875 90.507812 221.625 90.347656 222.027344 90.347656 C 223.707031 90.347656 225.472656 88.933594 226.832031 86.476562 C 227.527344 85.246094 227.660156 82.363281 227.101562 80.945312 C 226.273438 78.835938 224.296875 77.128906 221.972656 76.433594 L 220.691406 76.085938 L 220.664062 74.722656 C 220.636719 74 220.609375 72.398438 220.582031 71.171875 L 220.53125 68.980469 L 231.722656 68.980469 C 243.714844 68.980469 243.980469 68.953125 244.675781 67.589844 C 244.863281 67.21875 245.023438 65.453125 245.050781 62.96875 C 245.128906 59.203125 245.15625 58.964844 245.664062 58.882812 C 247.320312 58.617188 249.804688 56.746094 250.445312 55.25 C 251.566406 52.765625 251.648438 51.59375 250.898438 49.535156 C 249.644531 46.144531 247.320312 44.515625 243.847656 44.566406 C 237.410156 44.675781 234.257812 52.367188 238.828125 56.855469 C 239.359375 57.359375 240.160156 58.003906 240.589844 58.214844 C 241.042969 58.457031 241.472656 58.75 241.550781 58.855469 C 241.683594 59.097656 241.710938 60.40625 241.578125 63.957031 L 241.523438 65.75 L 220.824219 65.640625 L 220.691406 62.703125 C 220.609375 61.074219 220.609375 57.789062 220.691406 55.359375 C 220.824219 51.109375 220.851562 50.949219 221.382812 50.871094 C 222.292969 50.738281 224.054688 49.082031 224.671875 47.746094 C 226.324219 44.191406 224.136719 39.972656 220.210938 39.199219 C 217.832031 38.71875 214.867188 40.105469 213.664062 42.269531 C 212.890625 43.660156 212.945312 46.597656 213.746094 48.011719 C 214.386719 49.1875 215.695312 50.445312 216.628906 50.816406 C 217.21875 51.058594 217.21875 51.109375 217.246094 56.695312 C 217.246094 59.765625 217.273438 63.050781 217.296875 63.957031 L 217.324219 65.640625 L 203.730469 65.640625 L 203.730469 44.808594 L 204.558594 44.539062 C 206.453125 43.925781 207.816406 42.457031 208.699219 40.078125 C 209.3125 38.398438 209.3125 37.730469 208.832031 36.074219 C 208.324219 34.417969 208.003906 33.882812 206.882812 32.628906 C 203.460938 28.863281 197.691406 29.714844 195.023438 34.390625 C 194.246094 35.78125 194.140625 39.226562 194.835938 40.667969 C 195.449219 41.921875 197.34375 43.6875 198.734375 44.300781 L 199.855469 44.78125 L 199.855469 100.230469 L 192.457031 100.175781 L 185.03125 100.097656 L 184.953125 93.6875 C 184.898438 90.160156 184.953125 86.902344 185.03125 86.449219 C 185.140625 85.835938 185.378906 85.566406 186.046875 85.328125 C 188.183594 84.550781 190.507812 81.160156 190.507812 78.78125 C 190.507812 77.796875 190.027344 76.136719 189.386719 74.964844 C 188.796875 73.894531 186.582031 71.917969 185.96875 71.917969 C 184.820312 71.917969 184.84375 72.480469 185.058594 42.804688 C 185.21875 19.113281 185.300781 14.492188 185.621094 14.492188 C 186.6875 14.492188 189.09375 12.246094 189.921875 10.429688 C 190.535156 9.097656 190.722656 6.371094 190.265625 5.464844 C 190.132812 5.222656 189.867188 4.660156 189.679688 4.207031 C 189.171875 3.140625 187.648438 1.671875 186.289062 0.949219 C 185.164062 0.363281 182.707031 0.015625 181.425781 0.226562 Z M 113.179688 102.074219 L 114.410156 103.304688 L 127.820312 103.355469 L 141.226562 103.4375 L 141.226562 131.617188 L 134.789062 131.695312 L 128.351562 131.75 L 124.828125 128.011719 L 121.273438 124.269531 L 106.957031 124.21875 L 92.613281 124.136719 L 92.613281 118.101562 C 92.613281 112.519531 92.589844 111.984375 92.105469 111.476562 C 91.492188 110.808594 90.425781 110.753906 89.757812 111.371094 C 89.328125 111.769531 89.277344 112.332031 89.277344 118.046875 L 89.277344 124.269531 L 81.53125 124.269531 L 81.53125 117.726562 C 81.53125 111.636719 81.558594 111.183594 82.011719 111.183594 C 82.730469 111.183594 84.386719 109.6875 85.214844 108.296875 C 85.855469 107.203125 85.9375 106.777344 85.910156 104.90625 C 85.882812 103.542969 85.722656 102.394531 85.429688 101.753906 C 84.921875 100.605469 83.292969 98.921875 82.171875 98.386719 C 81.742188 98.203125 81.183594 97.933594 80.941406 97.800781 C 80.675781 97.667969 79.582031 97.558594 78.484375 97.558594 L 76.535156 97.558594 L 75.359375 96.277344 C 74.746094 95.582031 72.367188 93.101562 70.125 90.777344 C 67.882812 88.425781 66.039062 86.316406 66.039062 86.074219 C 66.039062 85.835938 66.386719 85.246094 66.8125 84.738281 L 67.585938 83.804688 L 81.183594 83.671875 C 95.765625 83.539062 95.445312 83.5625 95.953125 82.175781 C 96.085938 81.882812 96.195312 74.667969 96.246094 66.148438 C 96.328125 48.8125 96.382812 47.078125 96.914062 47.078125 C 97.984375 47.078125 100.441406 44.996094 101.082031 43.578125 L 101.429688 42.804688 L 113.046875 42.804688 Z M 125.121094 68.632812 C 125.175781 82.871094 125.203125 95.742188 125.203125 97.292969 L 125.203125 100.097656 L 116.789062 100.257812 L 116.789062 42.804688 L 125.066406 42.804688 Z M 217.273438 72.773438 C 217.21875 74.882812 217.136719 76.644531 217.085938 76.699219 C 217.03125 76.753906 216.28125 76.804688 215.429688 76.859375 C 212.972656 76.964844 212.222656 77.207031 211.554688 78.140625 L 210.941406 78.996094 L 211.019531 89.601562 L 211.128906 100.230469 L 203.917969 100.230469 L 203.730469 97.320312 C 203.621094 95.71875 203.621094 88.773438 203.703125 81.882812 C 203.808594 75.015625 203.890625 69.300781 203.863281 69.167969 C 203.863281 69.058594 206.90625 68.980469 210.621094 68.980469 L 217.351562 68.980469 Z M 216.015625 89.199219 L 217.484375 90.160156 L 217.429688 95.128906 L 217.351562 100.097656 L 214.414062 100.097656 L 214.332031 94.140625 C 214.308594 90.882812 214.332031 88.210938 214.414062 88.210938 C 214.492188 88.210938 215.214844 88.640625 216.015625 89.199219 Z M 181.453125 100.230469 L 158.988281 100.230469 L 158.988281 96.117188 C 158.988281 93.074219 159.070312 91.949219 159.335938 91.871094 C 159.496094 91.789062 164.519531 91.738281 170.476562 91.765625 L 181.292969 91.816406 Z M 155.570312 103.675781 C 155.625 103.890625 155.625 106.800781 155.570312 110.167969 C 155.492188 115.988281 155.464844 116.257812 154.984375 116.257812 C 154.421875 116.257812 152.207031 117.40625 151.402344 118.101562 C 151.136719 118.339844 150.601562 119.0625 150.203125 119.730469 C 149.585938 120.796875 149.507812 121.226562 149.507812 123.335938 C 149.507812 125.605469 149.5625 125.820312 150.363281 126.96875 C 152.179688 129.558594 153.835938 130.441406 156.960938 130.441406 C 158.882812 130.46875 159.175781 130.386719 160.539062 129.53125 C 161.582031 128.890625 162.273438 128.171875 162.96875 127.074219 C 163.878906 125.605469 163.929688 125.390625 163.902344 123.230469 C 163.902344 121.332031 163.796875 120.746094 163.289062 119.863281 C 162.433594 118.367188 161.554688 117.484375 160.164062 116.792969 L 158.988281 116.175781 L 158.988281 103.515625 L 160.40625 103.328125 C 162.542969 103.089844 181.105469 103.144531 181.265625 103.410156 C 181.347656 103.515625 181.453125 106.453125 181.507812 109.875 L 181.613281 116.125 L 180.890625 117.191406 C 179.636719 119.0625 179.664062 121.199219 180.972656 123.148438 C 181.558594 124.082031 181.613281 124.324219 181.53125 127.074219 L 181.425781 130.011719 L 175.46875 130.148438 C 169.191406 130.28125 168.980469 130.332031 168.257812 131.589844 C 168.042969 131.960938 167.882812 134.5 167.804688 139.46875 L 167.671875 146.8125 L 165.132812 148.121094 C 161.953125 149.777344 157.308594 153.25 154.742188 155.894531 C 153.675781 157.015625 152.6875 157.925781 152.550781 157.925781 C 152.445312 157.925781 152.230469 157.765625 152.125 157.550781 C 152.019531 157.335938 151.136719 156.347656 150.175781 155.335938 C 149.214844 154.320312 147.851562 152.851562 147.105469 152.050781 C 145.3125 150.046875 139.785156 144.089844 137.460938 141.632812 C 136.417969 140.535156 134.871094 138.855469 133.988281 137.917969 C 133.132812 136.957031 132.144531 135.917969 131.824219 135.570312 C 131.476562 135.222656 131.210938 134.875 131.210938 134.820312 C 131.210938 134.742188 133.855469 134.6875 137.113281 134.6875 L 143.015625 134.6875 L 144.566406 133.03125 L 144.566406 103.222656 L 150.042969 103.25 C 154.554688 103.277344 155.519531 103.355469 155.570312 103.675781 Z M 200.125 109.097656 C 200.308594 116.65625 199.804688 116.070312 206.214844 116.257812 L 210.941406 116.390625 L 210.941406 130.011719 L 198.148438 130.09375 C 188.078125 130.148438 185.300781 130.09375 185.113281 129.824219 C 185.003906 129.640625 184.898438 128.492188 184.898438 127.261719 C 184.898438 125.230469 184.925781 125.070312 185.433594 125.070312 C 187.007812 125.070312 189.039062 123.335938 189.574219 121.519531 C 190.347656 118.902344 188.851562 116.230469 186.152344 115.429688 L 184.898438 115.082031 L 184.898438 109.285156 C 184.898438 106.132812 184.953125 103.464844 185.03125 103.382812 C 185.113281 103.304688 188.53125 103.25 192.589844 103.277344 L 199.988281 103.304688 Z M 211.074219 113.078125 L 203.730469 112.917969 L 203.648438 108.378906 C 203.621094 105.894531 203.648438 103.703125 203.703125 103.515625 C 203.808594 103.25 204.769531 103.167969 207.46875 103.167969 L 211.074219 103.167969 Z M 246.839844 117.859375 L 248.203125 118.792969 L 248.203125 141.363281 L 227.847656 141.417969 C 216.628906 141.445312 206.507812 141.5 205.332031 141.5 C 204.15625 141.5 202.929688 141.632812 202.632812 141.820312 C 202.3125 142.007812 201.539062 142.78125 200.898438 143.554688 C 199.320312 145.453125 198.601562 146.171875 198.28125 146.171875 C 198.121094 146.171875 197.078125 145.878906 195.984375 145.503906 C 193.445312 144.652344 192.21875 144.382812 188.398438 143.902344 C 186.714844 143.6875 185.246094 143.421875 185.113281 143.289062 C 184.980469 143.15625 184.925781 140.859375 184.953125 138.132812 L 185.03125 133.21875 L 198.652344 133.164062 C 208.324219 133.113281 212.4375 133.003906 212.863281 132.789062 C 214.171875 132.097656 214.308594 131.242188 214.253906 123.550781 L 214.226562 116.390625 L 233.644531 116.390625 L 233.726562 124.003906 L 233.777344 131.617188 L 232.578125 132.898438 C 231.402344 134.152344 231.375 134.207031 231.375 136.023438 C 231.375 137.707031 231.453125 137.945312 232.203125 138.828125 C 233.324219 140.082031 234.285156 140.5625 235.726562 140.5625 C 238.320312 140.5625 240.1875 138.667969 240.1875 136.023438 C 240.1875 134.3125 239.707031 133.378906 238.1875 132.148438 L 236.984375 131.160156 L 236.984375 116.285156 L 240.535156 116.203125 C 244.355469 116.125 244.222656 116.070312 246.839844 117.859375 Z M 276.273438 130.148438 L 271.441406 130.148438 L 271.441406 120.796875 L 276.167969 120.796875 Z M 181.425781 138 C 181.425781 140.5625 181.507812 142.832031 181.585938 143.046875 C 181.695312 143.367188 181.265625 143.5 179.371094 143.742188 C 177.285156 144.035156 175.28125 144.4375 172.746094 145.078125 C 171.25 145.453125 171.277344 145.53125 171.277344 139.386719 C 171.277344 136.261719 171.355469 133.621094 171.464844 133.539062 C 171.542969 133.433594 173.839844 133.351562 176.539062 133.351562 L 181.425781 133.351562 Z M 211.15625 146.546875 C 209.632812 148.578125 207.683594 150.6875 207.335938 150.6875 C 207.121094 150.714844 206.292969 150.285156 205.546875 149.777344 C 204.769531 149.269531 204.078125 148.84375 203.996094 148.84375 C 203.917969 148.84375 203.542969 148.65625 203.167969 148.417969 L 202.5 147.960938 L 203.25 147.1875 C 204.316406 146.039062 204.71875 145.933594 208.351562 145.933594 L 211.664062 145.90625 Z M 238 154.855469 C 238.023438 159.394531 238 163.402344 237.917969 163.722656 L 237.785156 164.308594 L 228.96875 164.335938 C 224.136719 164.335938 219.863281 164.28125 219.488281 164.175781 C 219.035156 164.070312 218.285156 163.265625 217.21875 161.691406 C 215.375 159.019531 214.28125 157.683594 211.796875 155.09375 L 209.980469 153.199219 L 211.128906 152.023438 C 211.769531 151.382812 213.15625 149.859375 214.253906 148.628906 L 216.230469 146.441406 L 227.074219 146.492188 L 237.917969 146.574219 Z M 249.003906 156.269531 L 248.09375 156.695312 C 246.117188 157.632812 244.195312 160.890625 244.195312 163.292969 L 244.195312 164.363281 L 242.804688 164.28125 L 241.390625 164.175781 L 241.3125 155.308594 L 241.257812 146.441406 L 249.003906 146.441406 Z M 189.972656 149.324219 C 190.480469 149.457031 191.574219 149.726562 192.378906 149.914062 C 199.375 151.460938 206.347656 156.054688 211.019531 162.171875 C 211.929688 163.375 212.675781 164.414062 212.675781 164.496094 C 212.675781 164.574219 213.023438 165.136719 213.425781 165.75 C 214.839844 167.835938 216.710938 172.320312 217.539062 175.554688 C 220.128906 185.890625 217.457031 197.484375 210.539062 205.84375 C 208.378906 208.488281 207.949219 208.914062 206.132812 210.4375 C 201.511719 214.363281 197.023438 216.5 190.507812 217.941406 C 187.996094 218.503906 179.875 218.585938 177.6875 218.078125 C 174.375 217.300781 173.734375 217.140625 172.210938 216.632812 C 169.726562 215.804688 165.398438 213.5625 163.371094 212.066406 C 161.632812 210.757812 158.027344 207.367188 156.558594 205.601562 C 153.914062 202.425781 151.378906 197.429688 150.226562 193.050781 C 149.535156 190.433594 149.402344 189.65625 149.082031 186.71875 C 148.597656 182.230469 149.082031 178.304688 150.761719 172.882812 C 153.355469 164.441406 159.976562 156.722656 168.230469 152.609375 C 169.699219 151.863281 171.089844 151.246094 171.304688 151.246094 C 171.515625 151.246094 171.808594 151.140625 171.96875 151.035156 C 172.105469 150.898438 172.746094 150.660156 173.414062 150.472656 C 174.082031 150.257812 174.910156 150.019531 175.28125 149.914062 C 175.949219 149.699219 178.382812 149.21875 179.957031 149.003906 C 181.238281 148.816406 188.957031 149.085938 189.972656 149.324219 Z M 237.917969 167.863281 C 238 168.207031 238.023438 169.972656 238 171.816406 L 237.917969 175.152344 L 230.601562 175.234375 C 222.933594 175.285156 222.558594 175.261719 222.558594 174.113281 C 222.558594 173.816406 222.132812 172.347656 221.597656 170.878906 C 221.0625 169.410156 220.582031 168.023438 220.503906 167.78125 C 220.394531 167.378906 221.171875 167.328125 229.078125 167.300781 L 237.757812 167.246094 Z M 144.726562 172.9375 C 144.246094 175.285156 144.03125 176.703125 143.738281 178.945312 L 143.417969 181.429688 L 117.855469 181.429688 L 117.855469 172.082031 L 144.886719 172.082031 Z M 143.632812 187.226562 C 144.03125 192.675781 145.207031 196.816406 147.851562 202.183594 L 149.695312 205.976562 L 147.078125 208.863281 C 145.632812 210.4375 144.300781 211.851562 144.113281 211.960938 C 143.925781 212.066406 143.175781 212.148438 142.484375 212.09375 L 141.226562 212.015625 L 141.148438 210.730469 C 141.066406 209.554688 141.148438 209.371094 142.242188 208.140625 C 143.550781 206.699219 143.871094 205.628906 143.605469 203.839844 C 143.335938 202.183594 141.386719 200.261719 139.730469 200.019531 C 139.0625 199.914062 138.289062 199.914062 137.996094 200.019531 C 136.472656 200.527344 135.671875 201.0625 134.949219 202.128906 C 134.28125 203.117188 134.148438 203.546875 134.148438 204.910156 C 134.148438 206.429688 134.203125 206.566406 135.296875 207.660156 C 135.914062 208.300781 136.742188 208.996094 137.167969 209.210938 C 137.78125 209.503906 137.886719 209.742188 137.886719 210.703125 C 137.886719 211.347656 137.78125 211.933594 137.621094 212.015625 C 137.40625 212.148438 101.1875 212.226562 67.425781 212.175781 L 58.558594 212.148438 L 58.613281 207.390625 L 58.691406 202.664062 L 87.273438 202.585938 C 108.640625 202.53125 116.011719 202.425781 116.46875 202.210938 C 117.777344 201.542969 117.855469 200.980469 117.855469 192.648438 L 117.855469 184.902344 L 143.445312 184.902344 Z M 199.9375 223.417969 C 200.042969 225.875 200.042969 228.414062 199.910156 233.328125 L 199.855469 234.851562 L 192.457031 234.796875 L 185.03125 234.71875 L 184.953125 229.296875 L 184.898438 223.898438 L 186.046875 223.898438 C 187.808594 223.898438 192.832031 223.125 194.515625 222.5625 C 194.886719 222.457031 195.714844 222.191406 196.382812 222.003906 C 197.050781 221.816406 198.011719 221.441406 198.519531 221.175781 C 199.027344 220.933594 199.535156 220.722656 199.617188 220.695312 C 199.722656 220.695312 199.855469 221.921875 199.9375 223.417969 Z M 173.414062 222.722656 C 174.988281 223.285156 178.566406 223.898438 180.144531 223.898438 C 181.238281 223.898438 181.425781 223.980469 181.558594 224.488281 C 181.640625 224.835938 181.667969 227.265625 181.640625 229.910156 L 181.558594 234.71875 L 176.699219 234.796875 L 171.808594 234.851562 L 171.808594 228.574219 C 171.808594 225.128906 171.890625 222.296875 172.023438 222.296875 C 172.132812 222.296875 172.746094 222.484375 173.414062 222.722656 Z M 215.054688 224.835938 C 215.507812 226.144531 217.804688 228.546875 219.222656 229.214844 C 220.878906 229.988281 223.175781 229.964844 225.015625 229.160156 C 226.941406 228.308594 228.300781 226.703125 229.078125 224.355469 C 229.210938 223.925781 230.785156 223.898438 257.097656 223.898438 L 284.953125 223.898438 L 285.890625 224.78125 C 286.371094 225.261719 287.757812 226.675781 288.933594 227.90625 C 290.082031 229.160156 292.300781 231.457031 293.824219 233.035156 L 296.601562 235.894531 L 296.414062 237.039062 C 295.90625 240.378906 295.960938 241.824219 296.601562 243.105469 C 297.320312 244.519531 298.765625 246.042969 299.886719 246.578125 C 300.339844 246.765625 300.902344 247.03125 301.140625 247.164062 C 301.410156 247.296875 301.808594 247.40625 302.023438 247.40625 C 302.371094 247.40625 302.421875 248.074219 302.421875 252.078125 L 302.421875 256.753906 L 280.976562 256.753906 C 264.65625 256.753906 259.445312 256.671875 259.207031 256.433594 C 259.019531 256.246094 258.886719 255.816406 258.886719 255.472656 C 258.886719 254.324219 256.9375 252.078125 255.28125 251.277344 C 253.410156 250.394531 252.261719 250.234375 250.792969 250.609375 C 247.1875 251.519531 244.730469 254.1875 244.730469 257.152344 L 244.730469 258.355469 L 241.257812 258.355469 L 241.257812 251.972656 C 241.257812 245.828125 241.285156 245.5625 241.792969 245.402344 C 242.085938 245.320312 242.671875 244.785156 243.125 244.253906 C 243.820312 243.398438 243.929688 243.078125 243.929688 241.582031 C 243.929688 239.980469 243.902344 239.871094 242.78125 238.75 C 241.523438 237.496094 240.324219 237.09375 238.746094 237.386719 C 236.957031 237.734375 235.113281 239.925781 235.113281 241.714844 C 235.113281 242.730469 236.074219 244.332031 237.277344 245.292969 L 238.371094 246.175781 L 238.105469 258.222656 L 226.324219 258.300781 L 214.546875 258.355469 L 214.546875 247.644531 C 214.546875 240.300781 214.46875 236.773438 214.253906 236.375 C 213.53125 234.957031 213.132812 234.851562 208.378906 234.851562 L 203.941406 234.851562 L 203.757812 233.433594 C 203.542969 231.59375 203.542969 224.300781 203.78125 224.085938 C 203.863281 223.980469 206.375 223.898438 209.339844 223.898438 L 214.707031 223.898438 Z M 181.425781 258.355469 L 175.578125 258.355469 L 175.257812 256.808594 C 174.882812 255.097656 173.8125 253.335938 172.613281 252.480469 L 171.808594 251.917969 L 171.808594 237.789062 L 181.425781 237.789062 Z M 199.855469 258.355469 L 184.898438 258.355469 L 184.898438 248.257812 C 184.898438 242.703125 184.980469 238.054688 185.085938 237.976562 C 185.164062 237.867188 188.53125 237.789062 192.566406 237.789062 L 199.855469 237.789062 Z M 211.074219 258.355469 L 203.941406 258.355469 L 203.78125 248.3125 C 203.675781 242.785156 203.675781 238.164062 203.757812 238.03125 C 203.835938 237.894531 205.519531 237.789062 207.496094 237.789062 L 211.074219 237.789062 Z M 168.070312 244.601562 C 168.070312 250.636719 168.042969 250.875 167.535156 250.875 C 167.269531 250.875 166.683594 251.011719 166.28125 251.171875 C 163.398438 252.371094 162.542969 253.011719 161.445312 254.855469 C 160.804688 255.925781 160.726562 256.351562 160.726562 258.355469 C 160.726562 260.332031 160.804688 260.785156 161.445312 261.828125 C 162.273438 263.242188 163.289062 264.230469 164.679688 265.007812 C 165.480469 265.460938 166.148438 265.566406 167.910156 265.566406 C 170.609375 265.566406 171.730469 265.058594 173.601562 263.082031 L 174.828125 261.773438 L 177.554688 261.613281 C 179.074219 261.5625 180.570312 261.5625 180.917969 261.640625 L 181.558594 261.800781 L 181.425781 276.839844 C 181.347656 285.121094 181.238281 291.902344 181.210938 291.929688 C 181.1875 291.984375 180.972656 292.011719 180.730469 292.011719 C 179.503906 292.011719 176.964844 294.601562 176.085938 296.765625 L 175.738281 297.648438 L 169.539062 297.488281 L 169.460938 290.140625 C 169.433594 286.109375 169.460938 282.554688 169.511719 282.261719 C 169.59375 281.96875 169.914062 281.59375 170.234375 281.460938 C 170.554688 281.300781 171.195312 280.738281 171.652344 280.179688 C 172.398438 279.214844 172.476562 278.976562 172.476562 277.1875 C 172.453125 275.503906 172.371094 275.128906 171.730469 274.300781 C 170.449219 272.59375 169.488281 272.113281 167.535156 272.136719 C 166.121094 272.136719 165.613281 272.273438 164.757812 272.832031 C 163.050781 274.007812 162.460938 275.128906 162.460938 277.265625 C 162.460938 278.976562 162.515625 279.164062 163.421875 280.203125 C 163.929688 280.820312 164.785156 281.515625 165.292969 281.753906 L 166.203125 282.179688 L 166.203125 308.570312 L 160.753906 308.570312 C 155.492188 308.570312 155.304688 308.542969 155.171875 308.035156 C 155.089844 307.714844 155.011719 301.144531 154.984375 293.398438 C 154.984375 285.652344 154.902344 279.03125 154.796875 278.65625 C 154.582031 277.773438 154.207031 277.320312 153.40625 277 C 153.03125 276.867188 149.507812 276.757812 145.554688 276.757812 L 138.371094 276.734375 L 137.835938 275.53125 C 137.542969 274.863281 136.847656 273.820312 136.285156 273.207031 L 135.269531 272.113281 L 138.636719 268.640625 C 143.632812 263.457031 147.585938 259.371094 150.550781 256.21875 C 152.019531 254.671875 154.769531 251.785156 156.691406 249.808594 C 158.617188 247.832031 161.875 244.441406 163.902344 242.25 C 165.960938 240.085938 167.722656 238.324219 167.859375 238.324219 C 167.964844 238.324219 168.070312 241.15625 168.070312 244.601562 Z M 211.074219 293.613281 L 203.863281 293.613281 L 203.863281 261.5625 L 211.074219 261.5625 Z M 211.074219 293.613281 " fill-opacity="1" fill-rule="nonzero"/></g><path fill="#ffffff" d="M 178.566406 163.265625 C 174.242188 164.390625 170.660156 166.660156 167.589844 170.210938 C 161.605469 177.128906 160.9375 187.253906 165.933594 194.890625 C 170.128906 201.277344 176.246094 204.640625 183.695312 204.640625 C 188.90625 204.667969 193.367188 203.039062 197.238281 199.726562 C 200.710938 196.761719 202.953125 193.101562 204.15625 188.507812 C 204.609375 186.71875 204.636719 180.871094 204.183594 179.160156 C 202.125 171.601562 197.160156 166.097656 190.105469 163.667969 C 187.140625 162.625 181.746094 162.464844 178.566406 163.265625 Z M 188.609375 169.917969 C 194.488281 172.109375 198.253906 177.449219 198.253906 183.566406 C 198.253906 187.921875 197.050781 190.941406 194.113281 193.878906 C 190.882812 197.136719 187.328125 198.472656 182.628906 198.152344 C 176.429688 197.75 171.652344 193.929688 169.511719 187.707031 C 168.980469 186.132812 168.898438 181.539062 169.378906 179.933594 C 171.035156 174.511719 175.84375 170.132812 181.027344 169.304688 C 182.789062 169.035156 187.167969 169.382812 188.609375 169.917969 Z M 188.609375 169.917969 " fill-opacity="1" fill-rule="nonzero"/><path fill="#ffffff" d="M 181.746094 177.503906 C 181.265625 177.636719 180.359375 178.226562 179.71875 178.785156 C 176.03125 182.042969 176.886719 187.652344 181.371094 189.628906 C 183.082031 190.378906 184.175781 190.40625 186.046875 189.710938 C 188.609375 188.75 190.054688 186.640625 190.054688 183.699219 C 190.082031 182.125 189.972656 181.671875 189.386719 180.734375 C 187.515625 177.824219 184.605469 176.570312 181.746094 177.503906 Z M 181.746094 177.503906 " fill-opacity="1" fill-rule="nonzero"/><path fill="#ffffff" d="M 242.914062 3.058594 C 240.828125 4.074219 239.65625 6.398438 240.214844 8.402344 C 240.5625 9.601562 242.539062 11.820312 243.289062 11.820312 C 243.609375 11.820312 243.660156 12.914062 243.660156 19.671875 L 243.632812 27.5 L 242.914062 27.875 C 240.589844 29.074219 239.839844 31.425781 241.097656 33.5625 C 241.765625 34.683594 242.246094 35.03125 243.929688 35.59375 C 244.757812 35.886719 245.023438 35.832031 246.144531 35.324219 C 248.042969 34.417969 248.734375 33.375 248.734375 31.371094 C 248.734375 29.796875 248.683594 29.664062 247.667969 28.648438 C 247.078125 28.058594 246.492188 27.578125 246.332031 27.578125 C 246.171875 27.578125 246.066406 24.773438 246.066406 19.699219 C 246.066406 13.074219 246.117188 11.820312 246.4375 11.820312 C 246.652344 11.820312 247.347656 11.285156 248.015625 10.644531 C 248.871094 9.765625 249.242188 9.148438 249.378906 8.402344 C 249.722656 6.105469 248.65625 3.941406 246.707031 3.03125 C 245.238281 2.339844 244.382812 2.339844 242.914062 3.058594 Z M 242.914062 3.058594 " fill-opacity="1" fill-rule="nonzero"/><g clip-path="url(#57e639ac9e)"><path fill="#ffffff" d="M 291.046875 151.355469 C 288.613281 152.261719 287.09375 153.945312 286.15625 156.832031 C 285.195312 159.769531 287.117188 163.5625 290.324219 165.058594 L 291.339844 165.539062 L 291.472656 174.378906 C 291.578125 181.484375 291.6875 183.300781 291.980469 183.675781 C 293.046875 184.957031 291.820312 184.902344 324.992188 184.902344 C 354.402344 184.902344 356.136719 184.929688 356.273438 185.355469 C 356.9375 187.359375 358.433594 189.203125 360.011719 189.949219 C 360.4375 190.136719 361 190.40625 361.238281 190.539062 C 361.507812 190.671875 362.546875 190.777344 363.5625 190.777344 C 364.953125 190.777344 365.699219 190.617188 366.554688 190.164062 C 368.476562 189.175781 370.054688 187.386719 370.722656 185.4375 C 371.121094 184.316406 371.175781 181.804688 370.800781 181.5625 C 370.667969 181.484375 370.535156 181.164062 370.535156 180.871094 C 370.535156 179.425781 367.757812 176.675781 365.539062 175.902344 C 362.203125 174.753906 358.085938 176.675781 356.59375 180.121094 L 356.003906 181.429688 L 295.078125 181.296875 L 294.917969 165.777344 L 295.613281 165.457031 C 295.984375 165.269531 296.492188 165.136719 296.707031 165.136719 C 297.214844 165.136719 299.617188 162.734375 299.859375 161.984375 C 299.964844 161.664062 300.367188 161.316406 300.714844 161.238281 C 301.59375 160.996094 318.824219 161.265625 319.199219 161.503906 C 319.386719 161.609375 319.519531 161.933594 319.519531 162.226562 C 319.519531 162.492188 319.625 162.734375 319.730469 162.734375 C 319.863281 162.734375 320.105469 163.027344 320.292969 163.375 C 320.773438 164.230469 322.5625 165.136719 323.792969 165.136719 C 324.351562 165.136719 325.289062 164.871094 325.902344 164.550781 C 329.160156 162.8125 329.1875 158.191406 325.957031 156.375 C 323.925781 155.226562 321.789062 155.707031 320.078125 157.710938 L 319.4375 158.460938 L 300.554688 158.460938 L 300.554688 157.417969 C 300.554688 155.363281 298.550781 152.664062 296.199219 151.566406 C 294.8125 150.925781 292.488281 150.820312 291.046875 151.355469 Z M 291.046875 151.355469 " fill-opacity="1" fill-rule="nonzero"/></g><path fill="#ffffff" d="M 90.078125 219.921875 C 88.714844 220.695312 86.710938 222.9375 86.472656 223.953125 C 86.070312 225.714844 86.203125 227.71875 86.820312 229 C 87.433594 230.335938 89.597656 232.445312 90.316406 232.445312 C 91.414062 232.445312 91.414062 232.5 91.414062 248.847656 L 91.414062 264.632812 L 90.503906 265.21875 C 89.328125 265.96875 88.367188 267.277344 87.992188 268.640625 C 87.433594 270.589844 88.714844 273.261719 90.636719 274.222656 C 91.734375 274.753906 94.03125 274.78125 95.097656 274.25 C 96.675781 273.445312 98.089844 271.175781 98.089844 269.46875 C 98.0625 268.210938 96.996094 266.34375 95.765625 265.433594 L 94.671875 264.632812 L 94.699219 248.765625 C 94.75 234.957031 94.804688 232.875 95.152344 232.714844 C 95.367188 232.605469 96.035156 232.285156 96.621094 231.992188 C 98.4375 231.136719 100.226562 228.226562 100.226562 226.144531 C 100.226562 223.632812 98.304688 220.746094 95.980469 219.757812 C 94.644531 219.171875 91.253906 219.253906 90.078125 219.921875 Z M 90.078125 219.921875 " fill-opacity="1" fill-rule="nonzero"/><path fill="#ffffff" d="M 46.621094 258.730469 C 45.363281 259.183594 43.335938 260.679688 43.335938 261.160156 C 43.335938 261.375 43.253906 261.5625 43.121094 261.5625 C 42.855469 261.5625 42.265625 263.511719 42.265625 264.472656 C 42.265625 266.15625 43.65625 268.210938 45.496094 269.253906 L 46.40625 269.761719 L 46.539062 279.484375 C 46.621094 285.28125 46.78125 289.367188 46.941406 289.605469 C 47.660156 290.703125 47.207031 290.675781 78.671875 290.675781 L 108.90625 290.675781 L 109.390625 291.742188 C 109.976562 293.105469 111.632812 294.734375 113.179688 295.457031 C 114.4375 296.042969 117.429688 296.230469 118.335938 295.777344 C 118.578125 295.644531 119.136719 295.375 119.539062 295.1875 C 120.605469 294.683594 121.703125 293.585938 122.582031 292.089844 C 123.226562 290.96875 123.332031 290.542969 123.332031 288.671875 C 123.332031 286.800781 123.226562 286.375 122.582031 285.253906 C 120.953125 282.5 118.949219 281.273438 115.984375 281.273438 C 114.917969 281.273438 113.929688 281.40625 113.769531 281.566406 C 113.609375 281.726562 113.289062 281.859375 113.046875 281.859375 C 112.539062 281.859375 110.402344 283.785156 109.628906 284.933594 C 109.335938 285.386719 109.042969 286.027344 109.015625 286.402344 L 108.90625 287.070312 L 50.011719 287.203125 L 50.011719 269.628906 L 51.027344 269.121094 C 51.613281 268.851562 52.363281 268.105469 52.898438 267.332031 C 53.644531 266.207031 53.75 265.808594 53.75 264.339844 C 53.75 261.535156 52.363281 259.691406 49.476562 258.703125 C 48.355469 258.300781 47.769531 258.300781 46.621094 258.730469 Z M 46.621094 258.730469 " fill-opacity="1" fill-rule="nonzero"/><path fill="#ffffff" d="M 268.609375 306.808594 C 267.460938 307.449219 267.085938 308.0625 267.085938 309.265625 C 267.085938 310.253906 267.21875 310.628906 267.941406 311.347656 L 268.769531 312.203125 L 268.714844 317.144531 L 268.636719 322.058594 L 267.914062 322.40625 C 266.925781 322.859375 266.152344 324.035156 266.070312 325.160156 C 265.910156 327.160156 266.070312 327.722656 267.058594 328.710938 C 267.96875 329.617188 268.128906 329.671875 269.730469 329.671875 C 271.414062 329.671875 271.492188 329.644531 272.640625 328.46875 C 273.765625 327.347656 273.84375 327.1875 273.84375 325.851562 C 273.84375 324.570312 273.738281 324.277344 272.988281 323.476562 C 272.507812 322.96875 271.894531 322.460938 271.652344 322.378906 C 271.226562 322.21875 271.171875 321.710938 271.171875 317.117188 L 271.171875 311.988281 L 271.972656 311.1875 C 272.613281 310.546875 272.773438 310.171875 272.773438 309.238281 C 272.773438 308.222656 272.640625 307.984375 271.785156 307.261719 C 270.71875 306.382812 269.625 306.222656 268.609375 306.808594 Z M 268.609375 306.808594 " fill-opacity="1" fill-rule="nonzero"/><path fill="#ffffff" d="M 93.015625 323.421875 C 91.066406 323.796875 88.929688 325.476562 88.128906 327.320312 C 86.980469 329.914062 86.980469 331.113281 88.128906 333.652344 C 88.6875 334.878906 90.613281 336.777344 91.839844 337.285156 C 93.070312 337.792969 95.875 337.820312 97.046875 337.3125 C 100.628906 335.816406 102.632812 331.863281 101.484375 328.605469 C 100.414062 325.53125 98.0625 323.609375 95.207031 323.421875 C 94.378906 323.339844 93.390625 323.367188 93.015625 323.421875 Z M 93.015625 323.421875 " fill-opacity="1" fill-rule="nonzero"/><path fill="#ffffff" d="M 198.171875 330.421875 C 197.558594 331.085938 197.613281 332.15625 198.226562 332.71875 C 198.734375 333.171875 200.175781 333.199219 221.199219 333.171875 L 243.660156 333.171875 L 243.660156 335.976562 C 243.660156 338.621094 243.632812 338.78125 243.074219 338.992188 C 242.378906 339.261719 241.203125 340.464844 240.75 341.34375 C 240.589844 341.664062 240.457031 342.652344 240.457031 343.5625 C 240.457031 345.539062 241.175781 346.792969 242.992188 347.914062 L 244.195312 348.691406 L 244.195312 362.152344 L 244.863281 362.738281 C 245.53125 363.328125 245.636719 363.328125 255.386719 363.328125 L 265.242188 363.328125 L 266.070312 364.609375 C 266.523438 365.332031 267.21875 366.050781 267.621094 366.238281 C 268.046875 366.453125 268.582031 366.691406 268.820312 366.824219 C 269.464844 367.148438 271.359375 367.121094 271.574219 366.800781 C 271.652344 366.640625 271.945312 366.53125 272.1875 366.53125 C 272.429688 366.53125 273.121094 365.996094 273.738281 365.355469 C 274.566406 364.449219 274.886719 363.886719 275.019531 362.953125 C 275.578125 359.347656 272.773438 356.597656 269.089844 357.105469 C 268.15625 357.238281 267.648438 357.53125 266.578125 358.546875 L 265.269531 359.855469 L 247.347656 359.855469 L 247.453125 354.085938 C 247.585938 348.742188 247.613281 348.289062 248.09375 348.023438 C 248.894531 347.59375 250.097656 346.417969 250.5 345.644531 C 250.980469 344.710938 250.980469 342.519531 250.472656 341.53125 C 250.019531 340.625 248.761719 339.367188 247.882812 338.914062 C 247.292969 338.621094 247.265625 338.460938 247.1875 335.148438 C 247.132812 331.941406 247.078125 331.648438 246.4375 330.820312 L 245.769531 329.9375 L 222.1875 329.9375 C 199.667969 329.9375 198.574219 329.964844 198.171875 330.421875 Z M 198.171875 330.421875 " fill-opacity="1" fill-rule="nonzero"/></svg>