<svg xmlns="http://www.w3.org/2000/svg" xmlns:xlink="http://www.w3.org/1999/xlink" width="500" zoomAndPan="magnify" viewBox="0 0 375 374.999991" height="500" preserveAspectRatio="xMidYMid meet" version="1.0"><defs><clipPath id="a1f097160f"><path d="M 12 0 L 368.578125 0 L 368.578125 371 L 12 371 Z M 12 0 " clip-rule="nonzero"/></clipPath></defs><g clip-path="url(#a1f097160f)"><path fill="#022350" d="M 366.359375 177.320312 C 359.277344 140.109375 338.621094 107.449219 314.980469 78.4375 C 294.101562 52.859375 269.34375 29.96875 239.4375 15.425781 C 224.972656 8.339844 208.640625 1.855469 192.460938 0.957031 C 176.351562 0.0625 160.09375 3.269531 145.328125 9.757812 C 130.339844 16.246094 116.695312 26.386719 106.476562 39.066406 C 94.84375 53.382812 88.355469 70.609375 81.570312 87.609375 C 66.210938 126.238281 42.644531 160.839844 26.984375 199.46875 C 13.113281 233.621094 6.328125 272.550781 20.496094 307.894531 C 34.070312 341.601562 65.6875 360.992188 100.4375 367.554688 C 140.183594 374.9375 181.273438 366.882812 218.261719 351.59375 C 236.828125 343.988281 254.578125 334.519531 271.878906 324.300781 C 288.953125 314.160156 306.105469 303.792969 322.066406 292.011719 C 336.53125 281.347656 349.207031 268.746094 357.1875 252.488281 C 364.792969 237.054688 368.449219 219.753906 368.597656 202.527344 C 368.671875 193.949219 367.777344 185.523438 366.359375 177.320312 " fill-opacity="1" fill-rule="nonzero"/></g></svg>