<svg xmlns="http://www.w3.org/2000/svg" xmlns:xlink="http://www.w3.org/1999/xlink" width="1080" zoomAndPan="magnify" viewBox="0 0 810 809.999993" height="1080" preserveAspectRatio="xMidYMid meet" version="1.0"><defs><g/></defs><g fill="#d3cccb" fill-opacity="1"><g transform="translate(0.0000035, 541.60245)"><g><path d="M 69.25 3.375 C 57.875 3.375 48 1.28125 39.625 -2.90625 C 31.25 -7.09375 24.804688 -13.238281 20.296875 -21.34375 C 15.785156 -29.445312 13.53125 -39.191406 13.53125 -50.578125 C 13.53125 -61.097656 15.785156 -69.925781 20.296875 -77.0625 C 24.804688 -84.207031 31.785156 -90.0625 41.234375 -94.625 C 50.679688 -99.1875 63.03125 -102.703125 78.28125 -105.171875 C 88.90625 -106.890625 96.984375 -108.765625 102.515625 -110.796875 C 108.046875 -112.835938 111.773438 -115.144531 113.703125 -117.71875 C 115.640625 -120.300781 116.609375 -123.582031 116.609375 -127.5625 C 116.609375 -133.25 114.617188 -137.59375 110.640625 -140.59375 C 106.671875 -143.601562 100.066406 -145.109375 90.828125 -145.109375 C 80.953125 -145.109375 71.554688 -142.90625 62.640625 -138.5 C 53.734375 -134.101562 46.003906 -128.304688 39.453125 -121.109375 L 36.234375 -121.109375 L 17.5625 -149.296875 C 26.570312 -159.285156 37.570312 -167.070312 50.5625 -172.65625 C 63.5625 -178.238281 77.738281 -181.03125 93.09375 -181.03125 C 116.601562 -181.03125 133.617188 -176.035156 144.140625 -166.046875 C 154.660156 -156.066406 159.921875 -141.894531 159.921875 -123.53125 L 159.921875 -46.390625 C 159.921875 -38.441406 163.410156 -34.46875 170.390625 -34.46875 C 173.078125 -34.46875 175.710938 -34.953125 178.296875 -35.921875 L 180.546875 -35.265625 L 183.765625 -4.1875 C 181.296875 -2.570312 177.859375 -1.253906 173.453125 -0.234375 C 169.054688 0.773438 164.226562 1.28125 158.96875 1.28125 C 148.332031 1.28125 140.035156 -0.753906 134.078125 -4.828125 C 128.117188 -8.910156 123.851562 -15.300781 121.28125 -24 L 117.890625 -24.3125 C 109.191406 -5.851562 92.976562 3.375 69.25 3.375 Z M 83.421875 -29.953125 C 93.734375 -29.953125 101.972656 -33.414062 108.140625 -40.34375 C 114.316406 -47.269531 117.40625 -56.90625 117.40625 -69.25 L 117.40625 -87.296875 L 114.34375 -87.9375 C 111.664062 -85.789062 108.148438 -83.992188 103.796875 -82.546875 C 99.453125 -81.097656 93.195312 -79.675781 85.03125 -78.28125 C 75.375 -76.664062 68.421875 -73.894531 64.171875 -69.96875 C 59.929688 -66.050781 57.8125 -60.5 57.8125 -53.3125 C 57.8125 -45.6875 60.066406 -39.882812 64.578125 -35.90625 C 69.085938 -31.9375 75.367188 -29.953125 83.421875 -29.953125 Z M 83.421875 -29.953125 "/></g></g></g><g fill="#ffffff" fill-opacity="1"><g transform="translate(14.376878, 528.096592)"><g><path d="M 69.25 3.375 C 57.875 3.375 48 1.28125 39.625 -2.90625 C 31.25 -7.09375 24.804688 -13.238281 20.296875 -21.34375 C 15.785156 -29.445312 13.53125 -39.191406 13.53125 -50.578125 C 13.53125 -61.097656 15.785156 -69.925781 20.296875 -77.0625 C 24.804688 -84.207031 31.785156 -90.0625 41.234375 -94.625 C 50.679688 -99.1875 63.03125 -102.703125 78.28125 -105.171875 C 88.90625 -106.890625 96.984375 -108.765625 102.515625 -110.796875 C 108.046875 -112.835938 111.773438 -115.144531 113.703125 -117.71875 C 115.640625 -120.300781 116.609375 -123.582031 116.609375 -127.5625 C 116.609375 -133.25 114.617188 -137.59375 110.640625 -140.59375 C 106.671875 -143.601562 100.066406 -145.109375 90.828125 -145.109375 C 80.953125 -145.109375 71.554688 -142.90625 62.640625 -138.5 C 53.734375 -134.101562 46.003906 -128.304688 39.453125 -121.109375 L 36.234375 -121.109375 L 17.5625 -149.296875 C 26.570312 -159.285156 37.570312 -167.070312 50.5625 -172.65625 C 63.5625 -178.238281 77.738281 -181.03125 93.09375 -181.03125 C 116.601562 -181.03125 133.617188 -176.035156 144.140625 -166.046875 C 154.660156 -156.066406 159.921875 -141.894531 159.921875 -123.53125 L 159.921875 -46.390625 C 159.921875 -38.441406 163.410156 -34.46875 170.390625 -34.46875 C 173.078125 -34.46875 175.710938 -34.953125 178.296875 -35.921875 L 180.546875 -35.265625 L 183.765625 -4.1875 C 181.296875 -2.570312 177.859375 -1.253906 173.453125 -0.234375 C 169.054688 0.773438 164.226562 1.28125 158.96875 1.28125 C 148.332031 1.28125 140.035156 -0.753906 134.078125 -4.828125 C 128.117188 -8.910156 123.851562 -15.300781 121.28125 -24 L 117.890625 -24.3125 C 109.191406 -5.851562 92.976562 3.375 69.25 3.375 Z M 83.421875 -29.953125 C 93.734375 -29.953125 101.972656 -33.414062 108.140625 -40.34375 C 114.316406 -47.269531 117.40625 -56.90625 117.40625 -69.25 L 117.40625 -87.296875 L 114.34375 -87.9375 C 111.664062 -85.789062 108.148438 -83.992188 103.796875 -82.546875 C 99.453125 -81.097656 93.195312 -79.675781 85.03125 -78.28125 C 75.375 -76.664062 68.421875 -73.894531 64.171875 -69.96875 C 59.929688 -66.050781 57.8125 -60.5 57.8125 -53.3125 C 57.8125 -45.6875 60.066406 -39.882812 64.578125 -35.90625 C 69.085938 -31.9375 75.367188 -29.953125 83.421875 -29.953125 Z M 83.421875 -29.953125 "/></g></g></g><g fill="#d3cccb" fill-opacity="1"><g transform="translate(195.662557, 541.60245)"><g><path d="M 69.25 3.375 C 57.875 3.375 48 1.28125 39.625 -2.90625 C 31.25 -7.09375 24.804688 -13.238281 20.296875 -21.34375 C 15.785156 -29.445312 13.53125 -39.191406 13.53125 -50.578125 C 13.53125 -61.097656 15.785156 -69.925781 20.296875 -77.0625 C 24.804688 -84.207031 31.785156 -90.0625 41.234375 -94.625 C 50.679688 -99.1875 63.03125 -102.703125 78.28125 -105.171875 C 88.90625 -106.890625 96.984375 -108.765625 102.515625 -110.796875 C 108.046875 -112.835938 111.773438 -115.144531 113.703125 -117.71875 C 115.640625 -120.300781 116.609375 -123.582031 116.609375 -127.5625 C 116.609375 -133.25 114.617188 -137.59375 110.640625 -140.59375 C 106.671875 -143.601562 100.066406 -145.109375 90.828125 -145.109375 C 80.953125 -145.109375 71.554688 -142.90625 62.640625 -138.5 C 53.734375 -134.101562 46.003906 -128.304688 39.453125 -121.109375 L 36.234375 -121.109375 L 17.5625 -149.296875 C 26.570312 -159.285156 37.570312 -167.070312 50.5625 -172.65625 C 63.5625 -178.238281 77.738281 -181.03125 93.09375 -181.03125 C 116.601562 -181.03125 133.617188 -176.035156 144.140625 -166.046875 C 154.660156 -156.066406 159.921875 -141.894531 159.921875 -123.53125 L 159.921875 -46.390625 C 159.921875 -38.441406 163.410156 -34.46875 170.390625 -34.46875 C 173.078125 -34.46875 175.710938 -34.953125 178.296875 -35.921875 L 180.546875 -35.265625 L 183.765625 -4.1875 C 181.296875 -2.570312 177.859375 -1.253906 173.453125 -0.234375 C 169.054688 0.773438 164.226562 1.28125 158.96875 1.28125 C 148.332031 1.28125 140.035156 -0.753906 134.078125 -4.828125 C 128.117188 -8.910156 123.851562 -15.300781 121.28125 -24 L 117.890625 -24.3125 C 109.191406 -5.851562 92.976562 3.375 69.25 3.375 Z M 83.421875 -29.953125 C 93.734375 -29.953125 101.972656 -33.414062 108.140625 -40.34375 C 114.316406 -47.269531 117.40625 -56.90625 117.40625 -69.25 L 117.40625 -87.296875 L 114.34375 -87.9375 C 111.664062 -85.789062 108.148438 -83.992188 103.796875 -82.546875 C 99.453125 -81.097656 93.195312 -79.675781 85.03125 -78.28125 C 75.375 -76.664062 68.421875 -73.894531 64.171875 -69.96875 C 59.929688 -66.050781 57.8125 -60.5 57.8125 -53.3125 C 57.8125 -45.6875 60.066406 -39.882812 64.578125 -35.90625 C 69.085938 -31.9375 75.367188 -29.953125 83.421875 -29.953125 Z M 83.421875 -29.953125 "/></g></g></g><g fill="#ffffff" fill-opacity="1"><g transform="translate(210.039427, 528.096592)"><g><path d="M 69.25 3.375 C 57.875 3.375 48 1.28125 39.625 -2.90625 C 31.25 -7.09375 24.804688 -13.238281 20.296875 -21.34375 C 15.785156 -29.445312 13.53125 -39.191406 13.53125 -50.578125 C 13.53125 -61.097656 15.785156 -69.925781 20.296875 -77.0625 C 24.804688 -84.207031 31.785156 -90.0625 41.234375 -94.625 C 50.679688 -99.1875 63.03125 -102.703125 78.28125 -105.171875 C 88.90625 -106.890625 96.984375 -108.765625 102.515625 -110.796875 C 108.046875 -112.835938 111.773438 -115.144531 113.703125 -117.71875 C 115.640625 -120.300781 116.609375 -123.582031 116.609375 -127.5625 C 116.609375 -133.25 114.617188 -137.59375 110.640625 -140.59375 C 106.671875 -143.601562 100.066406 -145.109375 90.828125 -145.109375 C 80.953125 -145.109375 71.554688 -142.90625 62.640625 -138.5 C 53.734375 -134.101562 46.003906 -128.304688 39.453125 -121.109375 L 36.234375 -121.109375 L 17.5625 -149.296875 C 26.570312 -159.285156 37.570312 -167.070312 50.5625 -172.65625 C 63.5625 -178.238281 77.738281 -181.03125 93.09375 -181.03125 C 116.601562 -181.03125 133.617188 -176.035156 144.140625 -166.046875 C 154.660156 -156.066406 159.921875 -141.894531 159.921875 -123.53125 L 159.921875 -46.390625 C 159.921875 -38.441406 163.410156 -34.46875 170.390625 -34.46875 C 173.078125 -34.46875 175.710938 -34.953125 178.296875 -35.921875 L 180.546875 -35.265625 L 183.765625 -4.1875 C 181.296875 -2.570312 177.859375 -1.253906 173.453125 -0.234375 C 169.054688 0.773438 164.226562 1.28125 158.96875 1.28125 C 148.332031 1.28125 140.035156 -0.753906 134.078125 -4.828125 C 128.117188 -8.910156 123.851562 -15.300781 121.28125 -24 L 117.890625 -24.3125 C 109.191406 -5.851562 92.976562 3.375 69.25 3.375 Z M 83.421875 -29.953125 C 93.734375 -29.953125 101.972656 -33.414062 108.140625 -40.34375 C 114.316406 -47.269531 117.40625 -56.90625 117.40625 -69.25 L 117.40625 -87.296875 L 114.34375 -87.9375 C 111.664062 -85.789062 108.148438 -83.992188 103.796875 -82.546875 C 99.453125 -81.097656 93.195312 -79.675781 85.03125 -78.28125 C 75.375 -76.664062 68.421875 -73.894531 64.171875 -69.96875 C 59.929688 -66.050781 57.8125 -60.5 57.8125 -53.3125 C 57.8125 -45.6875 60.066406 -39.882812 64.578125 -35.90625 C 69.085938 -31.9375 75.367188 -29.953125 83.421875 -29.953125 Z M 83.421875 -29.953125 "/></g></g></g><g fill="#d3cccb" fill-opacity="1"><g transform="translate(391.32511, 541.602399)"><g><path d="M 87.78125 3.375 C 73.707031 3.375 61.273438 -0.03125 50.484375 -6.84375 C 39.703125 -13.664062 31.25 -23.972656 25.125 -37.765625 C 19 -51.566406 15.9375 -68.554688 15.9375 -88.734375 C 15.9375 -109.035156 19.078125 -126.082031 25.359375 -139.875 C 31.640625 -153.675781 40.335938 -163.984375 51.453125 -170.796875 C 62.566406 -177.617188 75.425781 -181.03125 90.03125 -181.03125 C 101.09375 -181.03125 110.675781 -179.125 118.78125 -175.3125 C 126.882812 -171.5 133.726562 -165.566406 139.3125 -157.515625 L 142.703125 -158.3125 L 142.703125 -249 L 187.3125 -249 L 187.3125 0 L 142.703125 0 L 142.703125 -23.03125 L 139.3125 -23.671875 C 134.375 -15.296875 127.609375 -8.691406 119.015625 -3.859375 C 110.429688 0.960938 100.019531 3.375 87.78125 3.375 Z M 102.265625 -34.46875 C 114.828125 -34.46875 124.757812 -38.945312 132.0625 -47.90625 C 139.363281 -56.875 143.015625 -70.484375 143.015625 -88.734375 C 143.015625 -106.992188 139.363281 -120.628906 132.0625 -129.640625 C 124.757812 -138.660156 114.828125 -143.171875 102.265625 -143.171875 C 89.171875 -143.171875 79.160156 -138.796875 72.234375 -130.046875 C 65.304688 -121.296875 61.84375 -107.523438 61.84375 -88.734375 C 61.84375 -70.054688 65.304688 -56.34375 72.234375 -47.59375 C 79.160156 -38.84375 89.171875 -34.46875 102.265625 -34.46875 Z M 102.265625 -34.46875 "/></g></g></g><g fill="#ffffff" fill-opacity="1"><g transform="translate(405.701983, 528.096541)"><g><path d="M 87.78125 3.375 C 73.707031 3.375 61.273438 -0.03125 50.484375 -6.84375 C 39.703125 -13.664062 31.25 -23.972656 25.125 -37.765625 C 19 -51.566406 15.9375 -68.554688 15.9375 -88.734375 C 15.9375 -109.035156 19.078125 -126.082031 25.359375 -139.875 C 31.640625 -153.675781 40.335938 -163.984375 51.453125 -170.796875 C 62.566406 -177.617188 75.425781 -181.03125 90.03125 -181.03125 C 101.09375 -181.03125 110.675781 -179.125 118.78125 -175.3125 C 126.882812 -171.5 133.726562 -165.566406 139.3125 -157.515625 L 142.703125 -158.3125 L 142.703125 -249 L 187.3125 -249 L 187.3125 0 L 142.703125 0 L 142.703125 -23.03125 L 139.3125 -23.671875 C 134.375 -15.296875 127.609375 -8.691406 119.015625 -3.859375 C 110.429688 0.960938 100.019531 3.375 87.78125 3.375 Z M 102.265625 -34.46875 C 114.828125 -34.46875 124.757812 -38.945312 132.0625 -47.90625 C 139.363281 -56.875 143.015625 -70.484375 143.015625 -88.734375 C 143.015625 -106.992188 139.363281 -120.628906 132.0625 -129.640625 C 124.757812 -138.660156 114.828125 -143.171875 102.265625 -143.171875 C 89.171875 -143.171875 79.160156 -138.796875 72.234375 -130.046875 C 65.304688 -121.296875 61.84375 -107.523438 61.84375 -88.734375 C 61.84375 -70.054688 65.304688 -56.34375 72.234375 -47.59375 C 79.160156 -38.84375 89.171875 -34.46875 102.265625 -34.46875 Z M 102.265625 -34.46875 "/></g></g></g><g fill="#d3cccb" fill-opacity="1"><g transform="translate(586.987654, 541.60245)"><g><path d="M 69.25 3.375 C 57.875 3.375 48 1.28125 39.625 -2.90625 C 31.25 -7.09375 24.804688 -13.238281 20.296875 -21.34375 C 15.785156 -29.445312 13.53125 -39.191406 13.53125 -50.578125 C 13.53125 -61.097656 15.785156 -69.925781 20.296875 -77.0625 C 24.804688 -84.207031 31.785156 -90.0625 41.234375 -94.625 C 50.679688 -99.1875 63.03125 -102.703125 78.28125 -105.171875 C 88.90625 -106.890625 96.984375 -108.765625 102.515625 -110.796875 C 108.046875 -112.835938 111.773438 -115.144531 113.703125 -117.71875 C 115.640625 -120.300781 116.609375 -123.582031 116.609375 -127.5625 C 116.609375 -133.25 114.617188 -137.59375 110.640625 -140.59375 C 106.671875 -143.601562 100.066406 -145.109375 90.828125 -145.109375 C 80.953125 -145.109375 71.554688 -142.90625 62.640625 -138.5 C 53.734375 -134.101562 46.003906 -128.304688 39.453125 -121.109375 L 36.234375 -121.109375 L 17.5625 -149.296875 C 26.570312 -159.285156 37.570312 -167.070312 50.5625 -172.65625 C 63.5625 -178.238281 77.738281 -181.03125 93.09375 -181.03125 C 116.601562 -181.03125 133.617188 -176.035156 144.140625 -166.046875 C 154.660156 -156.066406 159.921875 -141.894531 159.921875 -123.53125 L 159.921875 -46.390625 C 159.921875 -38.441406 163.410156 -34.46875 170.390625 -34.46875 C 173.078125 -34.46875 175.710938 -34.953125 178.296875 -35.921875 L 180.546875 -35.265625 L 183.765625 -4.1875 C 181.296875 -2.570312 177.859375 -1.253906 173.453125 -0.234375 C 169.054688 0.773438 164.226562 1.28125 158.96875 1.28125 C 148.332031 1.28125 140.035156 -0.753906 134.078125 -4.828125 C 128.117188 -8.910156 123.851562 -15.300781 121.28125 -24 L 117.890625 -24.3125 C 109.191406 -5.851562 92.976562 3.375 69.25 3.375 Z M 83.421875 -29.953125 C 93.734375 -29.953125 101.972656 -33.414062 108.140625 -40.34375 C 114.316406 -47.269531 117.40625 -56.90625 117.40625 -69.25 L 117.40625 -87.296875 L 114.34375 -87.9375 C 111.664062 -85.789062 108.148438 -83.992188 103.796875 -82.546875 C 99.453125 -81.097656 93.195312 -79.675781 85.03125 -78.28125 C 75.375 -76.664062 68.421875 -73.894531 64.171875 -69.96875 C 59.929688 -66.050781 57.8125 -60.5 57.8125 -53.3125 C 57.8125 -45.6875 60.066406 -39.882812 64.578125 -35.90625 C 69.085938 -31.9375 75.367188 -29.953125 83.421875 -29.953125 Z M 83.421875 -29.953125 "/></g></g></g><g fill="#ffffff" fill-opacity="1"><g transform="translate(601.364565, 528.096592)"><g><path d="M 69.25 3.375 C 57.875 3.375 48 1.28125 39.625 -2.90625 C 31.25 -7.09375 24.804688 -13.238281 20.296875 -21.34375 C 15.785156 -29.445312 13.53125 -39.191406 13.53125 -50.578125 C 13.53125 -61.097656 15.785156 -69.925781 20.296875 -77.0625 C 24.804688 -84.207031 31.785156 -90.0625 41.234375 -94.625 C 50.679688 -99.1875 63.03125 -102.703125 78.28125 -105.171875 C 88.90625 -106.890625 96.984375 -108.765625 102.515625 -110.796875 C 108.046875 -112.835938 111.773438 -115.144531 113.703125 -117.71875 C 115.640625 -120.300781 116.609375 -123.582031 116.609375 -127.5625 C 116.609375 -133.25 114.617188 -137.59375 110.640625 -140.59375 C 106.671875 -143.601562 100.066406 -145.109375 90.828125 -145.109375 C 80.953125 -145.109375 71.554688 -142.90625 62.640625 -138.5 C 53.734375 -134.101562 46.003906 -128.304688 39.453125 -121.109375 L 36.234375 -121.109375 L 17.5625 -149.296875 C 26.570312 -159.285156 37.570312 -167.070312 50.5625 -172.65625 C 63.5625 -178.238281 77.738281 -181.03125 93.09375 -181.03125 C 116.601562 -181.03125 133.617188 -176.035156 144.140625 -166.046875 C 154.660156 -156.066406 159.921875 -141.894531 159.921875 -123.53125 L 159.921875 -46.390625 C 159.921875 -38.441406 163.410156 -34.46875 170.390625 -34.46875 C 173.078125 -34.46875 175.710938 -34.953125 178.296875 -35.921875 L 180.546875 -35.265625 L 183.765625 -4.1875 C 181.296875 -2.570312 177.859375 -1.253906 173.453125 -0.234375 C 169.054688 0.773438 164.226562 1.28125 158.96875 1.28125 C 148.332031 1.28125 140.035156 -0.753906 134.078125 -4.828125 C 128.117188 -8.910156 123.851562 -15.300781 121.28125 -24 L 117.890625 -24.3125 C 109.191406 -5.851562 92.976562 3.375 69.25 3.375 Z M 83.421875 -29.953125 C 93.734375 -29.953125 101.972656 -33.414062 108.140625 -40.34375 C 114.316406 -47.269531 117.40625 -56.90625 117.40625 -69.25 L 117.40625 -87.296875 L 114.34375 -87.9375 C 111.664062 -85.789062 108.148438 -83.992188 103.796875 -82.546875 C 99.453125 -81.097656 93.195312 -79.675781 85.03125 -78.28125 C 75.375 -76.664062 68.421875 -73.894531 64.171875 -69.96875 C 59.929688 -66.050781 57.8125 -60.5 57.8125 -53.3125 C 57.8125 -45.6875 60.066406 -39.882812 64.578125 -35.90625 C 69.085938 -31.9375 75.367188 -29.953125 83.421875 -29.953125 Z M 83.421875 -29.953125 "/></g></g></g><g fill="#ffffff" fill-opacity="1"><g transform="translate(788.689308, 506.495583)"><g><path d="M 1.5 11.015625 C 3.695312 9.660156 5.660156 8.03125 7.390625 6.125 C 9.128906 4.21875 10.0625 2.273438 10.1875 0.296875 C 8.238281 0.296875 6.707031 -0.28125 5.59375 -1.4375 C 4.488281 -2.601562 3.9375 -4.109375 3.9375 -5.953125 C 3.9375 -7.128906 4.203125 -8.195312 4.734375 -9.15625 C 5.273438 -10.113281 6.046875 -10.867188 7.046875 -11.421875 C 8.046875 -11.972656 9.191406 -12.25 10.484375 -12.25 C 12.578125 -12.25 14.25 -11.5625 15.5 -10.1875 C 16.75 -8.8125 17.375 -6.835938 17.375 -4.265625 C 17.375 0.203125 16.242188 4.082031 13.984375 7.375 C 11.722656 10.675781 8.707031 13.460938 4.9375 15.734375 Z M 10.5625 -29.171875 C 9.238281 -29.171875 8.070312 -29.4375 7.0625 -29.96875 C 6.050781 -30.507812 5.273438 -31.253906 4.734375 -32.203125 C 4.203125 -33.160156 3.9375 -34.238281 3.9375 -35.4375 C 3.9375 -36.632812 4.203125 -37.707031 4.734375 -38.65625 C 5.273438 -39.601562 6.050781 -40.347656 7.0625 -40.890625 C 8.070312 -41.441406 9.238281 -41.71875 10.5625 -41.71875 C 11.90625 -41.71875 13.082031 -41.445312 14.09375 -40.90625 C 15.113281 -40.375 15.890625 -39.632812 16.421875 -38.6875 C 16.960938 -37.738281 17.234375 -36.664062 17.234375 -35.46875 C 17.234375 -33.644531 16.625 -32.140625 15.40625 -30.953125 C 14.195312 -29.765625 12.582031 -29.171875 10.5625 -29.171875 Z M 10.5625 -29.171875 "/></g></g></g></svg>