<svg xmlns="http://www.w3.org/2000/svg" xmlns:xlink="http://www.w3.org/1999/xlink" width="1280" zoomAndPan="magnify" viewBox="0 0 960 749.999995" height="1000" preserveAspectRatio="xMidYMid meet" version="1.0"><defs><g/></defs><g fill="#d3cccb" fill-opacity="1"><g transform="translate(0.000003392, 490.032205)"><g><path d="M 84.296875 4.109375 C 70.441406 4.109375 58.414062 1.5625 48.21875 -3.53125 C 38.03125 -8.625 30.191406 -16.101562 24.703125 -25.96875 C 19.210938 -35.84375 16.46875 -47.707031 16.46875 -61.5625 C 16.46875 -74.363281 19.210938 -85.109375 24.703125 -93.796875 C 30.191406 -102.492188 38.6875 -109.617188 50.1875 -115.171875 C 61.6875 -120.734375 76.71875 -125.015625 95.28125 -128.015625 C 108.21875 -130.109375 118.050781 -132.394531 124.78125 -134.875 C 131.507812 -137.363281 136.050781 -140.175781 138.40625 -143.3125 C 140.757812 -146.445312 141.9375 -150.429688 141.9375 -155.265625 C 141.9375 -162.191406 139.515625 -167.484375 134.671875 -171.140625 C 129.835938 -174.804688 121.800781 -176.640625 110.5625 -176.640625 C 98.539062 -176.640625 87.101562 -173.957031 76.25 -168.59375 C 65.40625 -163.238281 56 -156.179688 48.03125 -147.421875 L 44.109375 -147.421875 L 21.375 -181.734375 C 32.351562 -193.890625 45.75 -203.363281 61.5625 -210.15625 C 77.375 -216.957031 94.625 -220.359375 113.3125 -220.359375 C 141.9375 -220.359375 162.648438 -214.28125 175.453125 -202.125 C 188.265625 -189.96875 194.671875 -172.710938 194.671875 -150.359375 L 194.671875 -56.46875 C 194.671875 -46.789062 198.921875 -41.953125 207.421875 -41.953125 C 210.679688 -41.953125 213.878906 -42.539062 217.015625 -43.71875 L 219.765625 -42.9375 L 223.6875 -5.09375 C 220.675781 -3.132812 216.492188 -1.535156 211.140625 -0.296875 C 205.785156 0.941406 199.90625 1.5625 193.5 1.5625 C 180.5625 1.5625 170.460938 -0.914062 163.203125 -5.875 C 155.953125 -10.84375 150.757812 -18.617188 147.625 -29.203125 L 143.5 -29.609375 C 132.914062 -7.128906 113.179688 4.109375 84.296875 4.109375 Z M 101.546875 -36.46875 C 114.097656 -36.46875 124.128906 -40.679688 131.640625 -49.109375 C 139.160156 -57.535156 142.921875 -69.265625 142.921875 -84.296875 L 142.921875 -106.25 L 139.1875 -107.046875 C 135.925781 -104.429688 131.644531 -102.238281 126.34375 -100.46875 C 121.050781 -98.707031 113.441406 -96.976562 103.515625 -95.28125 C 91.753906 -93.320312 83.289062 -89.957031 78.125 -85.1875 C 72.957031 -80.414062 70.375 -73.648438 70.375 -64.890625 C 70.375 -55.609375 73.117188 -48.550781 78.609375 -43.71875 C 84.097656 -38.882812 91.742188 -36.46875 101.546875 -36.46875 Z M 101.546875 -36.46875 "/></g></g></g><g fill="#022350" fill-opacity="1"><g transform="translate(17.499667, 490.032205)"><g><path d="M 84.296875 4.109375 C 70.441406 4.109375 58.414062 1.5625 48.21875 -3.53125 C 38.03125 -8.625 30.191406 -16.101562 24.703125 -25.96875 C 19.210938 -35.84375 16.46875 -47.707031 16.46875 -61.5625 C 16.46875 -74.363281 19.210938 -85.109375 24.703125 -93.796875 C 30.191406 -102.492188 38.6875 -109.617188 50.1875 -115.171875 C 61.6875 -120.734375 76.71875 -125.015625 95.28125 -128.015625 C 108.21875 -130.109375 118.050781 -132.394531 124.78125 -134.875 C 131.507812 -137.363281 136.050781 -140.175781 138.40625 -143.3125 C 140.757812 -146.445312 141.9375 -150.429688 141.9375 -155.265625 C 141.9375 -162.191406 139.515625 -167.484375 134.671875 -171.140625 C 129.835938 -174.804688 121.800781 -176.640625 110.5625 -176.640625 C 98.539062 -176.640625 87.101562 -173.957031 76.25 -168.59375 C 65.40625 -163.238281 56 -156.179688 48.03125 -147.421875 L 44.109375 -147.421875 L 21.375 -181.734375 C 32.351562 -193.890625 45.75 -203.363281 61.5625 -210.15625 C 77.375 -216.957031 94.625 -220.359375 113.3125 -220.359375 C 141.9375 -220.359375 162.648438 -214.28125 175.453125 -202.125 C 188.265625 -189.96875 194.671875 -172.710938 194.671875 -150.359375 L 194.671875 -56.46875 C 194.671875 -46.789062 198.921875 -41.953125 207.421875 -41.953125 C 210.679688 -41.953125 213.878906 -42.539062 217.015625 -43.71875 L 219.765625 -42.9375 L 223.6875 -5.09375 C 220.675781 -3.132812 216.492188 -1.535156 211.140625 -0.296875 C 205.785156 0.941406 199.90625 1.5625 193.5 1.5625 C 180.5625 1.5625 170.460938 -0.914062 163.203125 -5.875 C 155.953125 -10.84375 150.757812 -18.617188 147.625 -29.203125 L 143.5 -29.609375 C 132.914062 -7.128906 113.179688 4.109375 84.296875 4.109375 Z M 101.546875 -36.46875 C 114.097656 -36.46875 124.128906 -40.679688 131.640625 -49.109375 C 139.160156 -57.535156 142.921875 -69.265625 142.921875 -84.296875 L 142.921875 -106.25 L 139.1875 -107.046875 C 135.925781 -104.429688 131.644531 -102.238281 126.34375 -100.46875 C 121.050781 -98.707031 113.441406 -96.976562 103.515625 -95.28125 C 91.753906 -93.320312 83.289062 -89.957031 78.125 -85.1875 C 72.957031 -80.414062 70.375 -73.648438 70.375 -64.890625 C 70.375 -55.609375 73.117188 -48.550781 78.609375 -43.71875 C 84.097656 -38.882812 91.742188 -36.46875 101.546875 -36.46875 Z M 101.546875 -36.46875 "/></g></g></g><g fill="#d3cccb" fill-opacity="1"><g transform="translate(238.162271, 490.032205)"><g><path d="M 84.296875 4.109375 C 70.441406 4.109375 58.414062 1.5625 48.21875 -3.53125 C 38.03125 -8.625 30.191406 -16.101562 24.703125 -25.96875 C 19.210938 -35.84375 16.46875 -47.707031 16.46875 -61.5625 C 16.46875 -74.363281 19.210938 -85.109375 24.703125 -93.796875 C 30.191406 -102.492188 38.6875 -109.617188 50.1875 -115.171875 C 61.6875 -120.734375 76.71875 -125.015625 95.28125 -128.015625 C 108.21875 -130.109375 118.050781 -132.394531 124.78125 -134.875 C 131.507812 -137.363281 136.050781 -140.175781 138.40625 -143.3125 C 140.757812 -146.445312 141.9375 -150.429688 141.9375 -155.265625 C 141.9375 -162.191406 139.515625 -167.484375 134.671875 -171.140625 C 129.835938 -174.804688 121.800781 -176.640625 110.5625 -176.640625 C 98.539062 -176.640625 87.101562 -173.957031 76.25 -168.59375 C 65.40625 -163.238281 56 -156.179688 48.03125 -147.421875 L 44.109375 -147.421875 L 21.375 -181.734375 C 32.351562 -193.890625 45.75 -203.363281 61.5625 -210.15625 C 77.375 -216.957031 94.625 -220.359375 113.3125 -220.359375 C 141.9375 -220.359375 162.648438 -214.28125 175.453125 -202.125 C 188.265625 -189.96875 194.671875 -172.710938 194.671875 -150.359375 L 194.671875 -56.46875 C 194.671875 -46.789062 198.921875 -41.953125 207.421875 -41.953125 C 210.679688 -41.953125 213.878906 -42.539062 217.015625 -43.71875 L 219.765625 -42.9375 L 223.6875 -5.09375 C 220.675781 -3.132812 216.492188 -1.535156 211.140625 -0.296875 C 205.785156 0.941406 199.90625 1.5625 193.5 1.5625 C 180.5625 1.5625 170.460938 -0.914062 163.203125 -5.875 C 155.953125 -10.84375 150.757812 -18.617188 147.625 -29.203125 L 143.5 -29.609375 C 132.914062 -7.128906 113.179688 4.109375 84.296875 4.109375 Z M 101.546875 -36.46875 C 114.097656 -36.46875 124.128906 -40.679688 131.640625 -49.109375 C 139.160156 -57.535156 142.921875 -69.265625 142.921875 -84.296875 L 142.921875 -106.25 L 139.1875 -107.046875 C 135.925781 -104.429688 131.644531 -102.238281 126.34375 -100.46875 C 121.050781 -98.707031 113.441406 -96.976562 103.515625 -95.28125 C 91.753906 -93.320312 83.289062 -89.957031 78.125 -85.1875 C 72.957031 -80.414062 70.375 -73.648438 70.375 -64.890625 C 70.375 -55.609375 73.117188 -48.550781 78.609375 -43.71875 C 84.097656 -38.882812 91.742188 -36.46875 101.546875 -36.46875 Z M 101.546875 -36.46875 "/></g></g></g><g fill="#022350" fill-opacity="1"><g transform="translate(255.661954, 490.032205)"><g><path d="M 84.296875 4.109375 C 70.441406 4.109375 58.414062 1.5625 48.21875 -3.53125 C 38.03125 -8.625 30.191406 -16.101562 24.703125 -25.96875 C 19.210938 -35.84375 16.46875 -47.707031 16.46875 -61.5625 C 16.46875 -74.363281 19.210938 -85.109375 24.703125 -93.796875 C 30.191406 -102.492188 38.6875 -109.617188 50.1875 -115.171875 C 61.6875 -120.734375 76.71875 -125.015625 95.28125 -128.015625 C 108.21875 -130.109375 118.050781 -132.394531 124.78125 -134.875 C 131.507812 -137.363281 136.050781 -140.175781 138.40625 -143.3125 C 140.757812 -146.445312 141.9375 -150.429688 141.9375 -155.265625 C 141.9375 -162.191406 139.515625 -167.484375 134.671875 -171.140625 C 129.835938 -174.804688 121.800781 -176.640625 110.5625 -176.640625 C 98.539062 -176.640625 87.101562 -173.957031 76.25 -168.59375 C 65.40625 -163.238281 56 -156.179688 48.03125 -147.421875 L 44.109375 -147.421875 L 21.375 -181.734375 C 32.351562 -193.890625 45.75 -203.363281 61.5625 -210.15625 C 77.375 -216.957031 94.625 -220.359375 113.3125 -220.359375 C 141.9375 -220.359375 162.648438 -214.28125 175.453125 -202.125 C 188.265625 -189.96875 194.671875 -172.710938 194.671875 -150.359375 L 194.671875 -56.46875 C 194.671875 -46.789062 198.921875 -41.953125 207.421875 -41.953125 C 210.679688 -41.953125 213.878906 -42.539062 217.015625 -43.71875 L 219.765625 -42.9375 L 223.6875 -5.09375 C 220.675781 -3.132812 216.492188 -1.535156 211.140625 -0.296875 C 205.785156 0.941406 199.90625 1.5625 193.5 1.5625 C 180.5625 1.5625 170.460938 -0.914062 163.203125 -5.875 C 155.953125 -10.84375 150.757812 -18.617188 147.625 -29.203125 L 143.5 -29.609375 C 132.914062 -7.128906 113.179688 4.109375 84.296875 4.109375 Z M 101.546875 -36.46875 C 114.097656 -36.46875 124.128906 -40.679688 131.640625 -49.109375 C 139.160156 -57.535156 142.921875 -69.265625 142.921875 -84.296875 L 142.921875 -106.25 L 139.1875 -107.046875 C 135.925781 -104.429688 131.644531 -102.238281 126.34375 -100.46875 C 121.050781 -98.707031 113.441406 -96.976562 103.515625 -95.28125 C 91.753906 -93.320312 83.289062 -89.957031 78.125 -85.1875 C 72.957031 -80.414062 70.375 -73.648438 70.375 -64.890625 C 70.375 -55.609375 73.117188 -48.550781 78.609375 -43.71875 C 84.097656 -38.882812 91.742188 -36.46875 101.546875 -36.46875 Z M 101.546875 -36.46875 "/></g></g></g><g fill="#d3cccb" fill-opacity="1"><g transform="translate(476.324548, 490.032205)"><g><path d="M 106.84375 4.109375 C 89.71875 4.109375 74.585938 -0.0351562 61.453125 -8.328125 C 48.316406 -16.628906 38.023438 -29.175781 30.578125 -45.96875 C 23.128906 -62.769531 19.40625 -83.453125 19.40625 -108.015625 C 19.40625 -132.722656 23.226562 -153.472656 30.875 -170.265625 C 38.519531 -187.054688 49.101562 -199.601562 62.625 -207.90625 C 76.15625 -216.207031 91.8125 -220.359375 109.59375 -220.359375 C 123.050781 -220.359375 134.710938 -218.035156 144.578125 -213.390625 C 154.453125 -208.753906 162.785156 -201.535156 169.578125 -191.734375 L 173.703125 -192.71875 L 173.703125 -303.078125 L 228 -303.078125 L 228 0 L 173.703125 0 L 173.703125 -28.03125 L 169.578125 -28.8125 C 163.566406 -18.625 155.332031 -10.585938 144.875 -4.703125 C 134.414062 1.171875 121.738281 4.109375 106.84375 4.109375 Z M 124.484375 -41.953125 C 139.773438 -41.953125 151.863281 -47.40625 160.75 -58.3125 C 169.644531 -69.226562 174.09375 -85.796875 174.09375 -108.015625 C 174.09375 -130.234375 169.644531 -146.832031 160.75 -157.8125 C 151.863281 -168.789062 139.773438 -174.28125 124.484375 -174.28125 C 108.546875 -174.28125 96.359375 -168.953125 87.921875 -158.296875 C 79.492188 -147.648438 75.28125 -130.890625 75.28125 -108.015625 C 75.28125 -85.273438 79.492188 -68.578125 87.921875 -57.921875 C 96.359375 -47.273438 108.546875 -41.953125 124.484375 -41.953125 Z M 124.484375 -41.953125 "/></g></g></g><g fill="#022350" fill-opacity="1"><g transform="translate(493.824243, 490.032205)"><g><path d="M 106.84375 4.109375 C 89.71875 4.109375 74.585938 -0.0351562 61.453125 -8.328125 C 48.316406 -16.628906 38.023438 -29.175781 30.578125 -45.96875 C 23.128906 -62.769531 19.40625 -83.453125 19.40625 -108.015625 C 19.40625 -132.722656 23.226562 -153.472656 30.875 -170.265625 C 38.519531 -187.054688 49.101562 -199.601562 62.625 -207.90625 C 76.15625 -216.207031 91.8125 -220.359375 109.59375 -220.359375 C 123.050781 -220.359375 134.710938 -218.035156 144.578125 -213.390625 C 154.453125 -208.753906 162.785156 -201.535156 169.578125 -191.734375 L 173.703125 -192.71875 L 173.703125 -303.078125 L 228 -303.078125 L 228 0 L 173.703125 0 L 173.703125 -28.03125 L 169.578125 -28.8125 C 163.566406 -18.625 155.332031 -10.585938 144.875 -4.703125 C 134.414062 1.171875 121.738281 4.109375 106.84375 4.109375 Z M 124.484375 -41.953125 C 139.773438 -41.953125 151.863281 -47.40625 160.75 -58.3125 C 169.644531 -69.226562 174.09375 -85.796875 174.09375 -108.015625 C 174.09375 -130.234375 169.644531 -146.832031 160.75 -157.8125 C 151.863281 -168.789062 139.773438 -174.28125 124.484375 -174.28125 C 108.546875 -174.28125 96.359375 -168.953125 87.921875 -158.296875 C 79.492188 -147.648438 75.28125 -130.890625 75.28125 -108.015625 C 75.28125 -85.273438 79.492188 -68.578125 87.921875 -57.921875 C 96.359375 -47.273438 108.546875 -41.953125 124.484375 -41.953125 Z M 124.484375 -41.953125 "/></g></g></g><g fill="#d3cccb" fill-opacity="1"><g transform="translate(714.486833, 490.032205)"><g><path d="M 84.296875 4.109375 C 70.441406 4.109375 58.414062 1.5625 48.21875 -3.53125 C 38.03125 -8.625 30.191406 -16.101562 24.703125 -25.96875 C 19.210938 -35.84375 16.46875 -47.707031 16.46875 -61.5625 C 16.46875 -74.363281 19.210938 -85.109375 24.703125 -93.796875 C 30.191406 -102.492188 38.6875 -109.617188 50.1875 -115.171875 C 61.6875 -120.734375 76.71875 -125.015625 95.28125 -128.015625 C 108.21875 -130.109375 118.050781 -132.394531 124.78125 -134.875 C 131.507812 -137.363281 136.050781 -140.175781 138.40625 -143.3125 C 140.757812 -146.445312 141.9375 -150.429688 141.9375 -155.265625 C 141.9375 -162.191406 139.515625 -167.484375 134.671875 -171.140625 C 129.835938 -174.804688 121.800781 -176.640625 110.5625 -176.640625 C 98.539062 -176.640625 87.101562 -173.957031 76.25 -168.59375 C 65.40625 -163.238281 56 -156.179688 48.03125 -147.421875 L 44.109375 -147.421875 L 21.375 -181.734375 C 32.351562 -193.890625 45.75 -203.363281 61.5625 -210.15625 C 77.375 -216.957031 94.625 -220.359375 113.3125 -220.359375 C 141.9375 -220.359375 162.648438 -214.28125 175.453125 -202.125 C 188.265625 -189.96875 194.671875 -172.710938 194.671875 -150.359375 L 194.671875 -56.46875 C 194.671875 -46.789062 198.921875 -41.953125 207.421875 -41.953125 C 210.679688 -41.953125 213.878906 -42.539062 217.015625 -43.71875 L 219.765625 -42.9375 L 223.6875 -5.09375 C 220.675781 -3.132812 216.492188 -1.535156 211.140625 -0.296875 C 205.785156 0.941406 199.90625 1.5625 193.5 1.5625 C 180.5625 1.5625 170.460938 -0.914062 163.203125 -5.875 C 155.953125 -10.84375 150.757812 -18.617188 147.625 -29.203125 L 143.5 -29.609375 C 132.914062 -7.128906 113.179688 4.109375 84.296875 4.109375 Z M 101.546875 -36.46875 C 114.097656 -36.46875 124.128906 -40.679688 131.640625 -49.109375 C 139.160156 -57.535156 142.921875 -69.265625 142.921875 -84.296875 L 142.921875 -106.25 L 139.1875 -107.046875 C 135.925781 -104.429688 131.644531 -102.238281 126.34375 -100.46875 C 121.050781 -98.707031 113.441406 -96.976562 103.515625 -95.28125 C 91.753906 -93.320312 83.289062 -89.957031 78.125 -85.1875 C 72.957031 -80.414062 70.375 -73.648438 70.375 -64.890625 C 70.375 -55.609375 73.117188 -48.550781 78.609375 -43.71875 C 84.097656 -38.882812 91.742188 -36.46875 101.546875 -36.46875 Z M 101.546875 -36.46875 "/></g></g></g><g fill="#022350" fill-opacity="1"><g transform="translate(731.98648, 490.032205)"><g><path d="M 84.296875 4.109375 C 70.441406 4.109375 58.414062 1.5625 48.21875 -3.53125 C 38.03125 -8.625 30.191406 -16.101562 24.703125 -25.96875 C 19.210938 -35.84375 16.46875 -47.707031 16.46875 -61.5625 C 16.46875 -74.363281 19.210938 -85.109375 24.703125 -93.796875 C 30.191406 -102.492188 38.6875 -109.617188 50.1875 -115.171875 C 61.6875 -120.734375 76.71875 -125.015625 95.28125 -128.015625 C 108.21875 -130.109375 118.050781 -132.394531 124.78125 -134.875 C 131.507812 -137.363281 136.050781 -140.175781 138.40625 -143.3125 C 140.757812 -146.445312 141.9375 -150.429688 141.9375 -155.265625 C 141.9375 -162.191406 139.515625 -167.484375 134.671875 -171.140625 C 129.835938 -174.804688 121.800781 -176.640625 110.5625 -176.640625 C 98.539062 -176.640625 87.101562 -173.957031 76.25 -168.59375 C 65.40625 -163.238281 56 -156.179688 48.03125 -147.421875 L 44.109375 -147.421875 L 21.375 -181.734375 C 32.351562 -193.890625 45.75 -203.363281 61.5625 -210.15625 C 77.375 -216.957031 94.625 -220.359375 113.3125 -220.359375 C 141.9375 -220.359375 162.648438 -214.28125 175.453125 -202.125 C 188.265625 -189.96875 194.671875 -172.710938 194.671875 -150.359375 L 194.671875 -56.46875 C 194.671875 -46.789062 198.921875 -41.953125 207.421875 -41.953125 C 210.679688 -41.953125 213.878906 -42.539062 217.015625 -43.71875 L 219.765625 -42.9375 L 223.6875 -5.09375 C 220.675781 -3.132812 216.492188 -1.535156 211.140625 -0.296875 C 205.785156 0.941406 199.90625 1.5625 193.5 1.5625 C 180.5625 1.5625 170.460938 -0.914062 163.203125 -5.875 C 155.953125 -10.84375 150.757812 -18.617188 147.625 -29.203125 L 143.5 -29.609375 C 132.914062 -7.128906 113.179688 4.109375 84.296875 4.109375 Z M 101.546875 -36.46875 C 114.097656 -36.46875 124.128906 -40.679688 131.640625 -49.109375 C 139.160156 -57.535156 142.921875 -69.265625 142.921875 -84.296875 L 142.921875 -106.25 L 139.1875 -107.046875 C 135.925781 -104.429688 131.644531 -102.238281 126.34375 -100.46875 C 121.050781 -98.707031 113.441406 -96.976562 103.515625 -95.28125 C 91.753906 -93.320312 83.289062 -89.957031 78.125 -85.1875 C 72.957031 -80.414062 70.375 -73.648438 70.375 -64.890625 C 70.375 -55.609375 73.117188 -48.550781 78.609375 -43.71875 C 84.097656 -38.882812 91.742188 -36.46875 101.546875 -36.46875 Z M 101.546875 -36.46875 "/></g></g></g></svg>