<svg xmlns="http://www.w3.org/2000/svg" xmlns:xlink="http://www.w3.org/1999/xlink" width="500" zoomAndPan="magnify" viewBox="0 0 375 374.999991" height="500" preserveAspectRatio="xMidYMid meet" version="1.0"><path fill="#ffffff" d="M 14.242188 201.546875 L 18.878906 201.546875 C 24.664062 268.265625 70.757812 326.703125 134.699219 347.761719 C 135.160156 347.914062 135.636719 347.984375 136.125 347.980469 C 136.609375 347.972656 137.082031 347.886719 137.542969 347.722656 C 138 347.558594 138.421875 347.324219 138.800781 347.023438 C 139.183594 346.71875 139.503906 346.359375 139.765625 345.949219 C 140.027344 345.535156 140.210938 345.09375 140.324219 344.621094 C 140.4375 344.144531 140.472656 343.664062 140.425781 343.179688 C 140.378906 342.695312 140.253906 342.230469 140.050781 341.789062 C 139.851562 341.34375 139.582031 340.945312 139.246094 340.589844 L 135.652344 336.792969 C 135.179688 336.289062 134.734375 335.765625 134.308594 335.21875 C 133.886719 334.675781 133.492188 334.109375 133.121094 333.527344 C 132.75 332.945312 132.410156 332.347656 132.09375 331.730469 C 131.78125 331.117188 131.496094 330.488281 131.242188 329.847656 C 130.988281 329.207031 130.765625 328.554688 130.570312 327.890625 C 130.378906 327.230469 130.214844 326.558594 130.085938 325.882812 C 129.957031 325.203125 129.855469 324.519531 129.789062 323.832031 C 129.726562 323.148438 129.691406 322.457031 129.691406 321.769531 C 129.6875 321.078125 129.71875 320.390625 129.785156 319.703125 C 129.847656 319.015625 129.941406 318.332031 130.070312 317.652344 C 130.199219 316.976562 130.359375 316.304688 130.546875 315.640625 C 130.738281 314.976562 130.960938 314.324219 131.214844 313.683594 C 131.464844 313.039062 131.746094 312.410156 132.058594 311.796875 C 132.371094 311.179688 132.710938 310.582031 133.078125 309.996094 C 133.445312 309.414062 133.839844 308.847656 134.261719 308.300781 C 134.683594 307.753906 135.128906 307.226562 135.601562 306.722656 L 152.136719 289.257812 C 152.378906 288.996094 152.589844 288.710938 152.761719 288.398438 C 152.933594 288.082031 153.070312 287.753906 153.160156 287.410156 C 153.253906 287.066406 153.304688 286.714844 153.3125 286.355469 C 153.320312 286 153.285156 285.644531 153.207031 285.296875 C 153.128906 284.949219 153.011719 284.613281 152.851562 284.292969 C 152.691406 283.972656 152.496094 283.675781 152.265625 283.40625 C 152.035156 283.132812 151.773438 282.890625 151.484375 282.683594 C 151.191406 282.472656 150.882812 282.300781 150.550781 282.167969 C 148.457031 281.34375 146.394531 280.453125 144.363281 279.492188 C 142.332031 278.53125 140.332031 277.507812 138.367188 276.417969 C 136.398438 275.328125 134.472656 274.171875 132.582031 272.957031 C 130.691406 271.738281 128.84375 270.460938 127.035156 269.125 C 125.230469 267.785156 123.46875 266.390625 121.753906 264.9375 C 120.035156 263.484375 118.371094 261.980469 116.753906 260.417969 C 115.136719 258.855469 113.574219 257.242188 112.0625 255.578125 C 110.550781 253.914062 109.09375 252.203125 107.695312 250.441406 C 106.296875 248.683594 104.957031 246.878906 103.675781 245.03125 C 102.394531 243.183594 101.171875 241.296875 100.015625 239.371094 C 98.859375 237.445312 97.765625 235.480469 96.734375 233.484375 C 95.707031 231.484375 94.742188 229.453125 93.84375 227.394531 C 92.949219 225.332031 92.121094 223.242188 91.359375 221.128906 C 90.601562 219.011719 89.910156 216.875 89.289062 214.714844 C 88.671875 212.550781 88.121094 210.375 87.644531 208.175781 C 87.167969 205.980469 86.761719 203.769531 86.429688 201.546875 L 92.292969 201.546875 C 93.609375 201.550781 94.898438 201.359375 96.15625 200.972656 C 97.414062 200.589844 98.585938 200.03125 99.675781 199.292969 C 100.765625 198.554688 101.726562 197.675781 102.550781 196.648438 C 103.375 195.625 104.03125 194.5 104.519531 193.28125 C 105.007812 192.058594 105.304688 190.789062 105.410156 189.480469 C 105.515625 188.167969 105.429688 186.871094 105.144531 185.585938 C 104.863281 184.300781 104.398438 183.085938 103.75 181.941406 C 103.101562 180.796875 102.296875 179.769531 101.34375 178.867188 L 62.304688 141.960938 C 61.703125 141.382812 61.050781 140.867188 60.351562 140.414062 C 59.652344 139.964844 58.914062 139.582031 58.144531 139.269531 C 57.371094 138.957031 56.574219 138.722656 55.753906 138.5625 C 54.9375 138.402344 54.113281 138.324219 53.277344 138.320312 C 52.445312 138.320312 51.617188 138.398438 50.800781 138.558594 C 49.980469 138.714844 49.183594 138.949219 48.410156 139.257812 C 47.636719 139.570312 46.898438 139.949219 46.199219 140.402344 C 45.5 140.851562 44.847656 141.367188 44.246094 141.945312 L 5.183594 178.875 C 4.230469 179.777344 3.429688 180.804688 2.785156 181.949219 C 2.136719 183.09375 1.671875 184.308594 1.390625 185.59375 C 1.109375 186.878906 1.023438 188.175781 1.128906 189.484375 C 1.238281 190.796875 1.535156 192.0625 2.023438 193.28125 C 2.511719 194.503906 3.167969 195.625 3.992188 196.652344 C 4.816406 197.675781 5.777344 198.554688 6.863281 199.292969 C 7.953125 200.027344 9.128906 200.589844 10.386719 200.972656 C 11.644531 201.359375 12.929688 201.546875 14.242188 201.546875 Z M 14.242188 201.546875 " fill-opacity="1" fill-rule="nonzero"/><path fill="#ffffff" d="M 193.347656 270.492188 C 192.742188 270.246094 192.121094 270.050781 191.484375 269.898438 C 190.847656 269.75 190.207031 269.644531 189.554688 269.59375 C 188.902344 269.539062 188.25 269.53125 187.597656 269.578125 C 186.945312 269.621094 186.300781 269.714844 185.664062 269.855469 C 185.023438 269.996094 184.398438 270.183594 183.789062 270.417969 C 183.179688 270.652344 182.589844 270.929688 182.023438 271.253906 C 181.453125 271.578125 180.914062 271.941406 180.402344 272.34375 C 179.886719 272.75 179.40625 273.191406 178.960938 273.667969 L 141.992188 312.707031 C 141.425781 313.3125 140.917969 313.96875 140.472656 314.671875 C 140.03125 315.375 139.65625 316.113281 139.351562 316.882812 C 139.046875 317.65625 138.816406 318.453125 138.660156 319.269531 C 138.503906 320.085938 138.429688 320.910156 138.429688 321.742188 C 138.429688 322.570312 138.507812 323.394531 138.664062 324.210938 C 138.820312 325.027344 139.050781 325.824219 139.359375 326.59375 C 139.664062 327.367188 140.039062 328.105469 140.484375 328.808594 C 140.929688 329.507812 141.4375 330.164062 142.007812 330.769531 L 178.953125 369.789062 C 179.855469 370.742188 180.878906 371.546875 182.023438 372.195312 C 183.167969 372.839844 184.378906 373.308594 185.664062 373.589844 C 186.949219 373.875 188.246094 373.964844 189.554688 373.859375 C 190.863281 373.753906 192.132812 373.457031 193.351562 372.972656 C 194.574219 372.484375 195.699219 371.832031 196.722656 371.007812 C 197.746094 370.1875 198.628906 369.230469 199.367188 368.144531 C 200.105469 367.054688 200.667969 365.882812 201.054688 364.628906 C 201.441406 363.371094 201.632812 362.085938 201.632812 360.769531 L 201.632812 355.652344 C 268.566406 350.058594 327.195312 303.949219 348.339844 239.800781 C 348.492188 239.339844 348.5625 238.863281 348.558594 238.378906 C 348.550781 237.890625 348.46875 237.417969 348.304688 236.957031 C 348.140625 236.5 347.90625 236.078125 347.601562 235.699219 C 347.296875 235.316406 346.941406 234.996094 346.527344 234.734375 C 346.117188 234.472656 345.675781 234.285156 345.199219 234.171875 C 344.726562 234.058594 344.246094 234.027344 343.761719 234.074219 C 343.277344 234.121094 342.8125 234.242188 342.371094 234.445312 C 341.925781 234.648438 341.527344 234.914062 341.171875 235.25 L 336.839844 239.347656 L 336.835938 239.347656 C 336.332031 239.820312 335.808594 240.269531 335.261719 240.695312 C 334.714844 241.121094 334.152344 241.519531 333.570312 241.890625 C 332.984375 242.261719 332.386719 242.605469 331.769531 242.917969 C 331.15625 243.234375 330.527344 243.519531 329.882812 243.773438 C 329.238281 244.03125 328.585938 244.253906 327.921875 244.449219 C 327.257812 244.640625 326.585938 244.800781 325.90625 244.929688 C 325.230469 245.0625 324.542969 245.160156 323.855469 245.222656 C 323.167969 245.289062 322.476562 245.320312 321.785156 245.320312 C 321.09375 245.320312 320.40625 245.285156 319.714844 245.21875 C 319.027344 245.152344 318.34375 245.054688 317.664062 244.925781 C 316.984375 244.792969 316.316406 244.632812 315.652344 244.4375 C 314.988281 244.242188 314.335938 244.019531 313.691406 243.761719 C 313.050781 243.503906 312.421875 243.21875 311.804688 242.902344 C 311.191406 242.589844 310.59375 242.242188 310.007812 241.871094 C 309.425781 241.5 308.863281 241.101562 308.316406 240.675781 C 307.773438 240.25 307.25 239.796875 306.746094 239.320312 L 289.539062 223.054688 C 289.277344 222.8125 288.992188 222.605469 288.679688 222.429688 C 288.367188 222.257812 288.042969 222.125 287.699219 222.03125 C 287.355469 221.9375 287.003906 221.886719 286.648438 221.878906 C 286.292969 221.871094 285.9375 221.902344 285.589844 221.980469 C 285.242188 222.058594 284.910156 222.175781 284.589844 222.332031 C 284.269531 222.492188 283.972656 222.683594 283.703125 222.914062 C 283.429688 223.144531 283.1875 223.402344 282.976562 223.691406 C 282.769531 223.976562 282.597656 224.285156 282.460938 224.617188 C 281.621094 226.695312 280.71875 228.746094 279.746094 230.769531 C 278.773438 232.789062 277.738281 234.777344 276.632812 236.730469 C 275.53125 238.683594 274.367188 240.597656 273.140625 242.476562 C 271.914062 244.351562 270.628906 246.1875 269.28125 247.980469 C 267.933594 249.773438 266.53125 251.519531 265.070312 253.222656 C 263.609375 254.925781 262.097656 256.578125 260.527344 258.179688 C 258.960938 259.78125 257.339844 261.332031 255.671875 262.832031 C 254.003906 264.328125 252.285156 265.769531 250.523438 267.152344 C 248.757812 268.539062 246.953125 269.867188 245.101562 271.132812 C 243.25 272.398438 241.363281 273.605469 239.433594 274.75 C 237.503906 275.894531 235.539062 276.972656 233.542969 277.992188 C 231.542969 279.007812 229.511719 279.957031 227.453125 280.839844 C 225.390625 281.722656 223.300781 282.539062 221.1875 283.285156 C 219.074219 284.03125 216.9375 284.710938 214.777344 285.320312 C 212.621094 285.925781 210.445312 286.464844 208.25 286.929688 C 206.058594 287.394531 203.851562 287.789062 201.632812 288.109375 L 201.632812 282.691406 C 201.632812 282.035156 201.585938 281.386719 201.492188 280.738281 C 201.394531 280.09375 201.253906 279.457031 201.0625 278.832031 C 200.871094 278.207031 200.632812 277.597656 200.351562 277.007812 C 200.066406 276.417969 199.742188 275.851562 199.375 275.3125 C 199.007812 274.769531 198.601562 274.257812 198.160156 273.777344 C 197.714844 273.300781 197.238281 272.855469 196.726562 272.445312 C 196.214844 272.039062 195.675781 271.667969 195.109375 271.34375 C 194.542969 271.015625 193.957031 270.730469 193.347656 270.492188 Z M 193.347656 270.492188 " fill-opacity="1" fill-rule="nonzero"/><path fill="#ffffff" d="M 239.414062 38.125 C 239.886719 38.628906 240.335938 39.152344 240.757812 39.695312 C 241.183594 40.242188 241.578125 40.804688 241.949219 41.390625 C 242.320312 41.972656 242.660156 42.570312 242.976562 43.183594 C 243.289062 43.800781 243.574219 44.429688 243.828125 45.070312 C 244.082031 45.710938 244.308594 46.363281 244.5 47.027344 C 244.695312 47.6875 244.855469 48.359375 244.988281 49.039062 C 245.117188 49.714844 245.214844 50.398438 245.28125 51.085938 C 245.347656 51.773438 245.382812 52.460938 245.382812 53.152344 C 245.382812 53.84375 245.355469 54.53125 245.289062 55.21875 C 245.226562 55.90625 245.132812 56.589844 245.003906 57.265625 C 244.875 57.945312 244.714844 58.617188 244.527344 59.28125 C 244.335938 59.945312 244.113281 60.597656 243.859375 61.238281 C 243.609375 61.882812 243.328125 62.511719 243.015625 63.128906 C 242.703125 63.742188 242.363281 64.34375 241.996094 64.929688 C 241.628906 65.511719 241.234375 66.078125 240.8125 66.625 C 240.390625 67.171875 239.945312 67.699219 239.472656 68.203125 L 223.640625 84.921875 C 223.398438 85.183594 223.191406 85.46875 223.015625 85.78125 C 222.84375 86.089844 222.710938 86.417969 222.617188 86.761719 C 222.523438 87.105469 222.472656 87.457031 222.464844 87.8125 C 222.453125 88.167969 222.488281 88.519531 222.566406 88.867188 C 222.640625 89.21875 222.757812 89.550781 222.917969 89.871094 C 223.074219 90.191406 223.265625 90.484375 223.496094 90.757812 C 223.726562 91.03125 223.984375 91.273438 224.273438 91.480469 C 224.5625 91.691406 224.871094 91.863281 225.199219 92 C 227.289062 92.839844 229.351562 93.75 231.382812 94.726562 C 233.414062 95.707031 235.410156 96.75 237.375 97.855469 C 239.339844 98.964844 241.261719 100.136719 243.148438 101.371094 C 245.035156 102.605469 246.878906 103.902344 248.679688 105.257812 C 250.480469 106.613281 252.238281 108.027344 253.945312 109.496094 C 255.652344 110.96875 257.3125 112.492188 258.921875 114.070312 C 260.527344 115.652344 262.082031 117.28125 263.585938 118.964844 C 265.085938 120.644531 266.53125 122.375 267.917969 124.152344 C 269.308594 125.925781 270.636719 127.746094 271.902344 129.613281 C 273.171875 131.476562 274.378906 133.378906 275.523438 135.320312 C 276.664062 137.261719 277.742188 139.242188 278.757812 141.253906 C 279.773438 143.269531 280.71875 145.3125 281.597656 147.390625 C 282.476562 149.464844 283.289062 151.566406 284.03125 153.695312 C 284.773438 155.824219 285.441406 157.976562 286.042969 160.148438 C 286.644531 162.320312 287.171875 164.511719 287.628906 166.71875 C 288.085938 168.925781 288.46875 171.148438 288.78125 173.378906 L 282.777344 173.378906 C 281.464844 173.378906 280.175781 173.570312 278.917969 173.953125 C 277.660156 174.335938 276.484375 174.898438 275.394531 175.632812 C 274.304688 176.371094 273.347656 177.253906 272.523438 178.277344 C 271.699219 179.300781 271.042969 180.425781 270.554688 181.648438 C 270.066406 182.871094 269.769531 184.136719 269.664062 185.449219 C 269.554688 186.757812 269.644531 188.058594 269.925781 189.339844 C 270.210938 190.625 270.675781 191.839844 271.324219 192.988281 C 271.972656 194.132812 272.773438 195.15625 273.730469 196.058594 L 312.78125 232.980469 C 313.386719 233.550781 314.035156 234.0625 314.738281 234.511719 C 315.4375 234.957031 316.175781 235.335938 316.945312 235.644531 C 317.71875 235.953125 318.511719 236.1875 319.328125 236.34375 C 320.144531 236.5 320.96875 236.578125 321.800781 236.578125 C 322.632812 236.578125 323.457031 236.5 324.273438 236.34375 C 325.089844 236.1875 325.886719 235.957031 326.660156 235.648438 C 327.429688 235.339844 328.167969 234.960938 328.867188 234.511719 C 329.570312 234.066406 330.222656 233.554688 330.824219 232.984375 L 369.890625 196.050781 C 370.847656 195.148438 371.644531 194.121094 372.292969 192.976562 C 372.9375 191.832031 373.402344 190.617188 373.683594 189.332031 C 373.964844 188.046875 374.050781 186.75 373.945312 185.441406 C 373.835938 184.128906 373.539062 182.863281 373.050781 181.640625 C 372.5625 180.421875 371.90625 179.296875 371.082031 178.273438 C 370.253906 177.25 369.296875 176.371094 368.207031 175.632812 C 367.121094 174.898438 365.945312 174.335938 364.6875 173.953125 C 363.429688 173.570312 362.144531 173.378906 360.828125 173.378906 L 356.28125 173.378906 C 350.847656 105.539062 304.144531 46.511719 238.953125 25.695312 C 234.808594 24.226562 231.3125 29.773438 234.441406 32.875 Z M 239.414062 38.125 " fill-opacity="1" fill-rule="nonzero"/><path fill="#ffffff" d="M 28.109375 140.632812 C 28.519531 140.890625 28.960938 141.078125 29.433594 141.1875 C 29.90625 141.300781 30.382812 141.332031 30.867188 141.285156 C 31.347656 141.234375 31.8125 141.109375 32.253906 140.910156 C 32.695312 140.707031 33.089844 140.441406 33.445312 140.109375 L 38.253906 135.5625 C 38.757812 135.085938 39.28125 134.632812 39.828125 134.207031 C 40.375 133.78125 40.941406 133.382812 41.523438 133.007812 C 42.109375 132.636719 42.710938 132.292969 43.328125 131.976562 C 43.945312 131.660156 44.574219 131.375 45.21875 131.121094 C 45.863281 130.863281 46.519531 130.640625 47.183594 130.445312 C 47.847656 130.253906 48.523438 130.09375 49.203125 129.964844 C 49.886719 129.835938 50.570312 129.738281 51.261719 129.675781 C 51.949219 129.609375 52.644531 129.578125 53.335938 129.582031 C 54.027344 129.582031 54.722656 129.617188 55.410156 129.6875 C 56.101562 129.753906 56.785156 129.855469 57.464844 129.988281 C 58.144531 130.121094 58.816406 130.285156 59.484375 130.484375 C 60.148438 130.679688 60.800781 130.910156 61.445312 131.167969 C 62.085938 131.429688 62.714844 131.71875 63.332031 132.035156 C 63.945312 132.355469 64.542969 132.703125 65.128906 133.082031 C 65.710938 133.457031 66.273438 133.859375 66.816406 134.289062 C 67.359375 134.71875 67.882812 135.175781 68.382812 135.652344 L 85.234375 151.582031 C 85.496094 151.828125 85.785156 152.035156 86.097656 152.207031 C 86.410156 152.382812 86.738281 152.515625 87.082031 152.609375 C 87.429688 152.699219 87.78125 152.75 88.136719 152.757812 C 88.496094 152.765625 88.847656 152.730469 89.195312 152.652344 C 89.546875 152.574219 89.878906 152.453125 90.199219 152.296875 C 90.519531 152.136719 90.816406 151.941406 91.085938 151.707031 C 91.359375 151.476562 91.601562 151.214844 91.808594 150.925781 C 92.015625 150.632812 92.1875 150.324219 92.320312 149.992188 C 93.148438 147.890625 94.042969 145.816406 95.003906 143.773438 C 95.96875 141.730469 97 139.71875 98.09375 137.746094 C 99.191406 135.769531 100.347656 133.832031 101.570312 131.933594 C 102.796875 130.035156 104.078125 128.175781 105.425781 126.363281 C 106.769531 124.546875 108.175781 122.777344 109.636719 121.058594 C 111.097656 119.335938 112.613281 117.664062 114.1875 116.039062 C 115.757812 114.417969 117.382812 112.847656 119.058594 111.332031 C 120.734375 109.816406 122.457031 108.359375 124.226562 106.957031 C 126 105.554688 127.8125 104.214844 129.671875 102.929688 C 131.53125 101.648438 133.433594 100.429688 135.371094 99.269531 C 137.3125 98.113281 139.289062 97.023438 141.300781 95.996094 C 143.3125 94.96875 145.355469 94.007812 147.429688 93.113281 C 149.507812 92.222656 151.609375 91.398438 153.738281 90.644531 C 155.867188 89.890625 158.019531 89.207031 160.191406 88.59375 C 162.367188 87.980469 164.558594 87.441406 166.769531 86.972656 C 168.980469 86.503906 171.203125 86.109375 173.4375 85.789062 L 173.4375 92.234375 C 173.4375 93.550781 173.632812 94.835938 174.019531 96.089844 C 174.40625 97.347656 174.96875 98.519531 175.703125 99.605469 C 176.441406 100.695312 177.324219 101.648438 178.347656 102.472656 C 179.375 103.292969 180.496094 103.949219 181.71875 104.433594 C 182.9375 104.921875 184.203125 105.214844 185.511719 105.324219 C 186.824219 105.429688 188.121094 105.339844 189.402344 105.058594 C 190.6875 104.773438 191.898438 104.308594 193.042969 103.660156 C 194.1875 103.015625 195.210938 102.214844 196.113281 101.257812 L 233.078125 62.21875 C 233.644531 61.613281 234.152344 60.960938 234.597656 60.257812 C 235.039062 59.554688 235.414062 58.820312 235.722656 58.046875 C 236.027344 57.273438 236.257812 56.480469 236.410156 55.664062 C 236.566406 54.847656 236.644531 54.023438 236.644531 53.195312 C 236.644531 52.363281 236.566406 51.539062 236.410156 50.722656 C 236.257812 49.910156 236.027344 49.113281 235.722656 48.339844 C 235.414062 47.570312 235.039062 46.832031 234.597656 46.128906 C 234.152344 45.429688 233.644531 44.773438 233.078125 44.167969 C 233.070312 44.164062 233.070312 44.160156 233.0625 44.15625 L 196.121094 5.136719 C 195.214844 4.183594 194.191406 3.378906 193.050781 2.730469 C 191.90625 2.082031 190.691406 1.617188 189.410156 1.332031 C 188.125 1.050781 186.828125 0.960938 185.519531 1.066406 C 184.207031 1.171875 182.941406 1.46875 181.71875 1.953125 C 180.5 2.441406 179.375 3.09375 178.351562 3.917969 C 177.324219 4.738281 176.441406 5.695312 175.703125 6.785156 C 174.964844 7.871094 174.40625 9.042969 174.019531 10.300781 C 173.632812 11.554688 173.4375 12.84375 173.4375 14.15625 L 173.4375 18.25 C 105.824219 23.902344 46.996094 70.609375 26.269531 135.597656 C 26.121094 136.058594 26.054688 136.53125 26.0625 137.019531 C 26.074219 137.503906 26.160156 137.972656 26.328125 138.429688 C 26.492188 138.886719 26.730469 139.300781 27.035156 139.679688 C 27.339844 140.058594 27.699219 140.375 28.109375 140.632812 Z M 28.109375 140.632812 " fill-opacity="1" fill-rule="nonzero"/></svg>