<svg xmlns="http://www.w3.org/2000/svg" xmlns:xlink="http://www.w3.org/1999/xlink" width="500" zoomAndPan="magnify" viewBox="0 0 375 374.999991" height="500" preserveAspectRatio="xMidYMid meet" version="1.0"><defs><clipPath id="fa6312bc95"><path d="M 0 44 L 375 44 L 375 331.226562 L 0 331.226562 Z M 0 44 " clip-rule="nonzero"/></clipPath></defs><g clip-path="url(#fa6312bc95)"><path fill="#ffffff" d="M 372.703125 125.429688 C 374.742188 123.386719 374.742188 120.082031 372.703125 118.042969 C 370.664062 116.003906 367.355469 116 365.316406 118.042969 L 279.042969 204.3125 L 205.542969 130.8125 C 205.527344 130.796875 205.507812 130.785156 205.492188 130.765625 C 205.414062 130.691406 205.332031 130.621094 205.25 130.550781 C 205.199219 130.503906 205.148438 130.460938 205.09375 130.417969 C 205.015625 130.355469 204.9375 130.300781 204.859375 130.246094 C 204.792969 130.199219 204.730469 130.152344 204.664062 130.109375 C 204.59375 130.066406 204.527344 130.027344 204.457031 129.988281 C 204.375 129.941406 204.292969 129.894531 204.210938 129.851562 C 204.152344 129.820312 204.089844 129.792969 204.027344 129.765625 C 203.9375 129.722656 203.84375 129.679688 203.746094 129.644531 C 203.6875 129.621094 203.628906 129.601562 203.566406 129.582031 C 203.46875 129.546875 203.371094 129.511719 203.273438 129.484375 C 203.207031 129.464844 203.136719 129.449219 203.066406 129.433594 C 202.976562 129.414062 202.882812 129.390625 202.792969 129.371094 C 202.707031 129.359375 202.625 129.347656 202.542969 129.335938 C 202.460938 129.328125 202.382812 129.3125 202.304688 129.308594 C 202.207031 129.296875 202.105469 129.296875 202.007812 129.292969 C 201.941406 129.289062 201.875 129.285156 201.808594 129.285156 C 201.703125 129.289062 201.597656 129.296875 201.492188 129.300781 C 201.429688 129.304688 201.371094 129.308594 201.308594 129.3125 C 201.207031 129.324219 201.101562 129.34375 201 129.359375 C 200.933594 129.371094 200.871094 129.378906 200.804688 129.390625 C 200.714844 129.410156 200.621094 129.433594 200.53125 129.457031 C 200.453125 129.476562 200.375 129.496094 200.300781 129.519531 C 200.226562 129.542969 200.152344 129.570312 200.078125 129.597656 C 199.984375 129.632812 199.894531 129.664062 199.804688 129.703125 C 199.742188 129.730469 199.683594 129.757812 199.621094 129.789062 C 199.523438 129.835938 199.421875 129.882812 199.324219 129.9375 C 199.304688 129.949219 199.285156 129.957031 199.265625 129.96875 L 172.128906 145.402344 C 164.398438 149.425781 155.609375 150.082031 147.363281 147.25 C 140.328125 144.832031 134.539062 140.167969 130.738281 133.925781 C 136.714844 129.046875 151.3125 118.03125 172.691406 107.8125 C 178.488281 105.042969 185.015625 104.246094 191.570312 104.617188 C 191.804688 104.648438 192.039062 104.671875 192.273438 104.671875 C 192.296875 104.671875 192.316406 104.667969 192.335938 104.667969 C 212.148438 106.066406 231.9375 117.898438 232.203125 118.058594 C 234.28125 119.324219 236.960938 118.984375 238.660156 117.238281 L 300.777344 53.40625 C 302.789062 51.335938 302.746094 48.03125 300.679688 46.019531 C 298.609375 44.007812 295.304688 44.054688 293.292969 46.121094 L 233.972656 107.074219 C 226.917969 103.308594 210.738281 95.65625 193.648438 94.3125 C 161.890625 78.824219 128.875 86.847656 118.511719 90.050781 L 85.957031 57.496094 C 83.917969 55.457031 80.609375 55.457031 78.570312 57.496094 C 76.53125 59.539062 76.53125 62.84375 78.570312 64.882812 L 113.410156 99.722656 C 114.859375 101.171875 117.027344 101.636719 118.949219 100.917969 C 119.246094 100.804688 143.417969 91.941406 170.390625 97.414062 C 169.652344 97.714844 168.917969 98.039062 168.1875 98.386719 C 138.28125 112.679688 121.335938 128.167969 120.628906 128.820312 C 118.972656 130.351562 118.484375 132.769531 119.417969 134.820312 C 124.238281 145.421875 132.957031 153.347656 143.972656 157.128906 C 148.460938 158.671875 153.070312 159.4375 157.65625 159.4375 C 164.324219 159.4375 170.9375 157.816406 177.050781 154.617188 C 177.105469 154.585938 177.160156 154.558594 177.210938 154.527344 L 200.96875 141.015625 L 283.058594 223.105469 C 283.0625 223.109375 283.066406 223.113281 283.066406 223.113281 L 300.042969 240.089844 C 302.316406 242.363281 303.570312 245.386719 303.570312 248.605469 C 303.570312 251.824219 302.316406 254.847656 300.042969 257.121094 L 291.527344 265.636719 L 271.167969 245.28125 L 266.027344 240.140625 C 263.988281 238.101562 260.679688 238.101562 258.640625 240.140625 C 256.601562 242.179688 256.601562 245.488281 258.640625 247.527344 L 285.90625 274.792969 C 290.601562 279.488281 290.601562 287.128906 285.90625 291.824219 C 283.632812 294.097656 280.605469 295.351562 277.390625 295.351562 C 274.171875 295.351562 271.148438 294.097656 268.871094 291.824219 L 263.734375 286.683594 C 263.734375 286.683594 263.734375 286.683594 263.730469 286.683594 L 234.753906 257.703125 C 232.714844 255.664062 229.40625 255.664062 227.367188 257.703125 C 225.328125 259.742188 225.328125 263.050781 227.367188 265.089844 L 256.347656 294.070312 C 261.042969 298.765625 261.042969 306.40625 256.347656 311.101562 C 251.652344 315.796875 244.007812 315.796875 239.3125 311.101562 L 210.335938 282.125 C 210.332031 282.121094 210.328125 282.117188 210.324219 282.113281 L 203.480469 275.269531 C 201.441406 273.230469 198.132812 273.230469 196.09375 275.269531 C 194.054688 277.308594 194.054688 280.617188 196.09375 282.65625 L 212.375 298.933594 C 217.070312 303.632812 216.78125 311.558594 211.730469 316.609375 C 206.679688 321.660156 198.75 321.949219 194.054688 317.253906 L 185.539062 308.738281 L 189.460938 304.816406 C 193.578125 300.699219 195.84375 295.226562 195.84375 289.40625 C 195.84375 283.582031 193.578125 278.109375 189.460938 273.992188 L 188.476562 273.007812 C 184.066406 268.601562 178.222656 266.484375 172.433594 266.652344 C 173.511719 264.042969 174.074219 261.222656 174.074219 258.316406 C 174.074219 252.496094 171.808594 247.023438 167.691406 242.90625 L 166.707031 241.921875 C 163.050781 238.269531 158.328125 236.074219 153.242188 235.628906 C 153.832031 233.636719 154.140625 231.546875 154.140625 229.414062 C 154.140625 223.59375 151.875 218.117188 147.757812 214.003906 L 146.773438 213.015625 L 146.773438 213.019531 C 142.65625 208.902344 137.183594 206.632812 131.359375 206.632812 C 129.226562 206.632812 127.136719 206.941406 125.144531 207.53125 C 124.699219 202.445312 122.503906 197.722656 118.851562 194.066406 L 117.867188 193.082031 C 113.75 188.964844 108.277344 186.699219 102.457031 186.699219 C 96.636719 186.699219 91.164062 188.96875 87.046875 193.085938 L 78.46875 201.664062 L 9.625 132.820312 C 7.585938 130.78125 4.277344 130.78125 2.238281 132.820312 C 0.199219 134.863281 0.199219 138.167969 2.238281 140.207031 L 71.082031 209.050781 L 65.269531 214.859375 C 56.773438 223.355469 56.773438 237.183594 65.269531 245.679688 L 77.972656 258.382812 C 78.238281 258.648438 78.523438 258.875 78.824219 259.070312 C 78.824219 259.105469 78.820312 259.140625 78.820312 259.175781 C 78.820312 264.996094 81.089844 270.46875 85.207031 274.585938 C 89.726562 279.105469 95.664062 281.367188 101.601562 281.367188 C 103.679688 281.367188 105.757812 281.082031 107.777344 280.527344 C 108.113281 285.816406 110.332031 290.738281 114.109375 294.519531 L 115.976562 296.386719 C 119.984375 300.394531 125.246094 302.394531 130.507812 302.394531 C 132.402344 302.394531 134.300781 302.128906 136.136719 301.609375 C 136.074219 302.285156 136.042969 302.964844 136.042969 303.648438 C 136.042969 309.46875 138.308594 314.945312 142.425781 319.058594 L 143.410156 320.046875 C 147.660156 324.292969 153.238281 326.417969 158.820312 326.417969 C 164.402344 326.417969 169.984375 324.292969 174.230469 320.046875 L 178.152344 316.125 L 186.667969 324.640625 C 190.9375 328.910156 196.582031 331.03125 202.300781 331.03125 C 208.328125 331.03125 214.4375 328.679688 219.117188 323.996094 C 222.503906 320.613281 224.667969 316.480469 225.609375 312.171875 L 231.925781 318.488281 C 236.3125 322.875 242.070312 325.066406 247.828125 325.066406 C 253.589844 325.066406 259.347656 322.875 263.734375 318.488281 C 267.601562 314.621094 269.761719 309.679688 270.214844 304.617188 C 272.539062 305.394531 274.964844 305.785156 277.390625 305.785156 C 283.148438 305.785156 288.910156 303.59375 293.292969 299.210938 C 300.085938 292.421875 301.613281 282.332031 297.886719 274.054688 L 307.433594 264.507812 C 316.199219 255.738281 316.199219 241.472656 307.429688 232.703125 L 290.449219 215.71875 L 286.429688 211.703125 Z M 72.65625 238.292969 C 68.234375 233.871094 68.234375 226.671875 72.65625 222.246094 L 94.433594 200.46875 C 96.578125 198.328125 99.425781 197.148438 102.457031 197.148438 C 105.488281 197.148438 108.339844 198.328125 110.480469 200.46875 C 110.480469 200.472656 110.480469 200.472656 110.480469 200.472656 L 111.464844 201.453125 C 113.609375 203.597656 114.789062 206.449219 114.789062 209.480469 C 114.789062 212.511719 113.609375 215.359375 111.464844 217.503906 L 81.667969 247.300781 Z M 92.59375 267.199219 C 90.449219 265.054688 89.269531 262.207031 89.269531 259.175781 C 89.269531 256.144531 90.449219 253.292969 92.59375 251.152344 L 109.59375 234.148438 L 118.851562 224.890625 C 118.855469 224.886719 118.855469 224.886719 118.859375 224.882812 L 123.335938 220.40625 C 125.480469 218.261719 128.328125 217.082031 131.359375 217.082031 C 134.390625 217.082031 137.242188 218.261719 139.382812 220.40625 L 140.371094 221.390625 C 142.511719 223.535156 143.691406 226.382812 143.691406 229.414062 C 143.691406 232.445312 142.511719 235.292969 140.371094 237.4375 L 110.609375 267.199219 C 105.640625 272.167969 97.558594 272.167969 92.59375 267.199219 Z M 123.363281 289 L 121.496094 287.132812 C 119.355469 284.988281 118.171875 282.140625 118.171875 279.109375 C 118.171875 276.078125 119.355469 273.230469 121.496094 271.085938 L 132.59375 259.988281 L 143.277344 249.308594 C 145.417969 247.167969 148.265625 245.988281 151.296875 245.988281 C 154.328125 245.988281 157.175781 247.167969 159.320312 249.3125 L 160.304688 250.296875 C 162.449219 252.4375 163.628906 255.289062 163.628906 258.320312 C 163.628906 261.351562 162.449219 264.199219 160.304688 266.34375 L 137.648438 289 C 133.710938 292.9375 127.300781 292.941406 123.363281 289 Z M 150.796875 312.660156 L 149.8125 311.671875 C 147.667969 309.53125 146.488281 306.679688 146.488281 303.648438 C 146.488281 300.617188 147.667969 297.769531 149.8125 295.625 L 165.039062 280.394531 C 167.253906 278.183594 170.160156 277.078125 173.066406 277.078125 C 175.96875 277.078125 178.875 278.183594 181.089844 280.394531 L 182.074219 281.382812 C 184.214844 283.523438 185.398438 286.375 185.398438 289.40625 C 185.398438 292.4375 184.214844 295.285156 182.074219 297.429688 L 174.460938 305.042969 C 174.460938 305.042969 174.457031 305.042969 174.457031 305.042969 C 174.457031 305.042969 174.457031 305.042969 174.457031 305.046875 L 166.84375 312.65625 C 162.417969 317.082031 155.21875 317.082031 150.796875 312.660156 Z M 150.796875 312.660156 " fill-opacity="1" fill-rule="nonzero"/></g></svg>