<svg xmlns="http://www.w3.org/2000/svg" xmlns:xlink="http://www.w3.org/1999/xlink" width="1080" zoomAndPan="magnify" viewBox="0 0 810 809.999993" height="1080" preserveAspectRatio="xMidYMid meet" version="1.0"><defs><clipPath id="6e24b00c98"><path d="M 133 236 L 666 236 L 666 720 L 133 720 Z M 133 236 " clip-rule="nonzero"/></clipPath></defs><path fill="#68a0eb" d="M 492.371094 204.953125 L 479.929688 223.921875 L 419.222656 309.875 L 648.578125 463.015625 L 672.175781 428.984375 L 682.351562 337.214844 L 689.738281 325.589844 L 492.371094 204.953125 " fill-opacity="1" fill-rule="nonzero"/><path fill="#68a0eb" d="M 329.164062 392.597656 C 329.164062 394.671875 327.484375 396.351562 325.417969 396.351562 L 324.574219 396.351562 C 322.519531 396.351562 320.839844 394.671875 320.839844 392.597656 C 320.839844 390.53125 322.519531 388.855469 324.574219 388.855469 L 325.417969 388.855469 C 327.484375 388.855469 329.164062 390.53125 329.164062 392.597656 " fill-opacity="1" fill-rule="nonzero"/><path fill="#68a0eb" d="M 479.929688 331.371094 C 433.296875 353.050781 342.625 357.191406 342.625 357.191406 L 329.167969 375.535156 C 364.988281 433.835938 311.660156 466.324219 302.507812 471.324219 C 293.347656 476.324219 282.640625 452.992188 282.640625 452.992188 C 282.640625 452.992188 243.890625 379.058594 248.101562 352.929688 C 252.597656 325.035156 316.664062 263.082031 316.664062 263.082031 C 342.492188 251.417969 480.988281 223.921875 480.988281 223.921875 L 479.929688 331.371094 " fill-opacity="1" fill-rule="nonzero"/><path fill="#68a0eb" d="M 254.171875 576.117188 C 244.042969 590.492188 222.789062 593.003906 206.691406 581.683594 C 190.582031 570.375 185.730469 549.535156 195.859375 535.128906 L 228.921875 488.070312 C 239.035156 473.683594 260.289062 471.179688 276.382812 482.484375 C 292.492188 493.808594 297.34375 514.65625 287.230469 529.0625 L 254.171875 576.117188 " fill-opacity="1" fill-rule="nonzero"/><path fill="#68a0eb" d="M 314.183594 616.179688 C 302.605469 632.683594 280.152344 636.863281 264.058594 625.542969 C 247.945312 614.230469 244.296875 591.699219 255.875 575.207031 L 293.757812 521.304688 C 305.339844 504.808594 327.796875 500.609375 343.90625 511.941406 C 360.003906 523.25 363.664062 545.78125 352.082031 562.273438 L 314.183594 616.179688 " fill-opacity="1" fill-rule="nonzero"/><path fill="#68a0eb" d="M 374 656.230469 C 363.511719 671.148438 341.96875 674.078125 325.859375 662.769531 C 309.765625 651.472656 305.207031 630.175781 315.6875 615.253906 L 349.976562 566.472656 C 360.480469 551.558594 382.011719 548.628906 398.125 559.929688 C 414.234375 571.257812 418.78125 592.53125 408.289062 607.453125 L 374 656.230469 " fill-opacity="1" fill-rule="nonzero"/><path fill="#68a0eb" d="M 427.949219 695.34375 C 419.273438 707.695312 400.132812 709.242188 385.214844 698.761719 C 370.328125 688.285156 365.273438 669.753906 373.960938 657.390625 L 402.378906 616.996094 C 411.042969 604.621094 430.191406 603.089844 445.089844 613.570312 C 460 624.054688 465.035156 642.566406 456.347656 654.914062 L 427.949219 695.34375 " fill-opacity="1" fill-rule="nonzero"/><g clip-path="url(#6e24b00c98)"><path fill="#68a0eb" d="M 644.753906 458.027344 L 429.878906 309.5 L 394.386719 247.035156 C 393.433594 245.703125 391.902344 244.917969 390.265625 244.917969 C 385.558594 244.917969 299.988281 245.660156 288.195312 246.054688 L 271.269531 236.371094 L 265.242188 244.605469 L 284.410156 255.574219 C 285.234375 256.046875 286.207031 256.347656 287.101562 256.238281 C 314.488281 255.316406 370.6875 254.828125 382.980469 254.511719 L 422.15625 316.128906 C 422.5 316.605469 422.917969 317.015625 423.390625 317.335938 L 639.054688 466.40625 C 656.292969 477.933594 660.949219 501.335938 649.4375 518.582031 C 642.433594 529.0625 630.71875 535.316406 618.089844 535.316406 C 610.664062 535.316406 603.457031 533.125 597.199219 528.949219 L 589.285156 523.789062 L 508.371094 467.859375 C 506.066406 466.265625 502.902344 466.839844 501.324219 469.148438 C 499.730469 471.453125 500.308594 474.609375 502.609375 476.199219 L 583.300781 531.96875 L 594.910156 540.972656 C 611.453125 552.910156 615.496094 575.699219 603.914062 591.773438 C 597.261719 601.019531 586.753906 606.320312 575.105469 606.320312 C 568.75 606.320312 562.507812 604.613281 556.890625 601.511719 L 473.648438 543.976562 C 471.355469 542.382812 468.183594 542.949219 466.597656 545.265625 C 465.003906 547.566406 465.582031 550.726562 467.886719 552.316406 L 548.605469 608.109375 C 554.886719 620.296875 553.773438 635.101562 545.621094 646.03125 C 538.84375 655.136719 528.417969 660.355469 517.027344 660.355469 C 510.363281 660.355469 503.828125 658.507812 498.125 655.011719 C 498.082031 654.988281 498.023438 655.003906 497.980469 654.976562 L 443.828125 617.546875 C 443.027344 617.933594 442.210938 618.210938 441.386719 618.367188 C 439.566406 619.664062 437.652344 620.789062 435.71875 621.9375 C 435.113281 622.304688 434.476562 622.617188 433.867188 622.988281 C 433.867188 622.988281 479.0625 650.394531 491.425781 662.773438 C 497.054688 668.40625 493.394531 689.121094 487.960938 696.414062 C 481.582031 704.972656 471.796875 709.886719 461.105469 709.886719 C 453.878906 709.886719 446.96875 707.589844 441.292969 703.367188 L 408.320312 676.882812 C 408.03125 676.652344 407.710938 676.449219 407.386719 676.285156 C 341.289062 643.792969 246.484375 551.570312 195.855469 499.488281 L 195.410156 499.027344 C 192.898438 494.320312 175.046875 458.492188 163.199219 434.640625 C 162.839844 433.902344 162.300781 433.265625 161.636719 432.785156 L 139.421875 416.667969 L 133.4375 424.851562 L 154.675781 440.261719 C 186.554688 504.46875 186.957031 504.882812 187.683594 505.636719 L 188.585938 506.5625 C 239.542969 558.980469 334.96875 651.757812 402.402344 685.140625 L 435.089844 711.386719 C 442.683594 717.035156 451.679688 720.027344 461.105469 720.027344 C 475.03125 720.027344 487.769531 713.628906 496.097656 702.476562 C 503.441406 692.613281 506.121094 680.363281 503.894531 668.59375 C 508.140625 669.851562 512.558594 670.5 517.027344 670.5 C 531.652344 670.5 545.039062 663.792969 553.757812 652.097656 C 561.839844 641.253906 564.566406 627.445312 561.679688 614.519531 C 566.03125 615.804688 570.554688 616.460938 575.105469 616.460938 C 590.058594 616.460938 603.558594 609.628906 612.152344 597.699219 C 623.589844 581.808594 623.191406 560.855469 612.820312 545.164062 C 614.570312 545.359375 616.042969 545.753906 618.09375 545.457031 C 634.105469 545.457031 648.976562 537.519531 657.871094 524.21875 C 672.492188 502.320312 666.574219 472.605469 644.753906 458.027344 " fill-opacity="1" fill-rule="nonzero"/></g><path fill="#68a0eb" d="M 230.957031 205.019531 L 103.316406 427.757812 L 115.332031 436.539062 L 265.933594 230.597656 L 230.957031 205.019531 " fill-opacity="1" fill-rule="nonzero"/><path fill="#68a0eb" d="M 100.800781 339.070312 C 94.660156 342.941406 86.550781 341.109375 82.675781 334.96875 C 78.792969 328.824219 80.640625 320.726562 86.777344 316.839844 C 92.90625 312.96875 101.023438 314.792969 104.898438 320.933594 C 108.773438 327.074219 106.9375 335.183594 100.800781 339.070312 Z M 80.507812 378.488281 C 74.367188 382.371094 66.25 380.535156 62.375 374.394531 C 58.5 368.265625 60.34375 360.15625 66.476562 356.28125 C 72.613281 352.410156 80.726562 354.234375 84.597656 360.351562 C 88.476562 366.503906 86.640625 374.625 80.507812 378.488281 Z M 60.210938 417.914062 C 54.070312 421.796875 45.960938 419.976562 42.078125 413.824219 C 38.203125 407.683594 40.042969 399.582031 46.175781 395.699219 C 52.316406 391.828125 60.421875 393.648438 64.308594 399.792969 C 68.183594 405.945312 66.34375 414.042969 60.210938 417.914062 Z M 147.691406 148.128906 L -0.0195312 405.910156 L 80.914062 452.300781 L 228.632812 194.519531 L 147.691406 148.128906 " fill-opacity="1" fill-rule="nonzero"/><path fill="#68a0eb" d="M 707.570312 305.660156 C 701.597656 305.390625 696.960938 300.332031 697.222656 294.371094 C 697.492188 288.398438 702.566406 283.753906 708.527344 284.015625 C 714.5 284.285156 719.121094 289.347656 718.855469 295.320312 C 718.605469 301.292969 713.539062 305.917969 707.570312 305.660156 Z M 501.078125 175.675781 L 489.808594 194.117188 L 710.824219 329.214844 L 740.875 280.066406 L 501.078125 175.675781 " fill-opacity="1" fill-rule="nonzero"/><path fill="#68a0eb" d="M 757.820312 244.871094 C 746.710938 244.386719 738.144531 235.003906 738.632812 223.902344 C 739.125 212.808594 748.496094 204.210938 759.597656 204.710938 C 770.683594 205.207031 779.277344 214.59375 778.777344 225.683594 C 778.292969 236.777344 768.910156 245.363281 757.820312 244.871094 Z M 537.582031 81.058594 L 500.34375 166.597656 L 772.742188 285.179688 L 809.980469 199.652344 L 537.582031 81.058594 " fill-opacity="1" fill-rule="nonzero"/></svg>