<svg xmlns="http://www.w3.org/2000/svg" xmlns:xlink="http://www.w3.org/1999/xlink" width="500" zoomAndPan="magnify" viewBox="0 0 375 374.999991" height="500" preserveAspectRatio="xMidYMid meet" version="1.0"><defs><clipPath id="565345bfa7"><path d="M 0 23.4375 L 375 23.4375 L 375 351.9375 L 0 351.9375 Z M 0 23.4375 " clip-rule="nonzero"/></clipPath></defs><rect x="-37.5" width="450" fill="#ffffff" y="-37.499999" height="449.999989" fill-opacity="1"/><rect x="-37.5" width="450" fill="#ffffff" y="-37.499999" height="449.999989" fill-opacity="1"/><g clip-path="url(#565345bfa7)"><path fill="#022350" d="M 326.175781 301.09375 C 322.441406 296.371094 321.351562 289.78125 322.988281 283.984375 C 324.621094 278.191406 328.832031 273.253906 334.109375 270.355469 C 340.746094 266.710938 349.046875 266.40625 356.027344 269.277344 C 362.179688 256.480469 368.492188 243.347656 375.035156 229.722656 C 269.324219 201.78125 178.066406 123.636719 134.179688 23.484375 C 119.007812 28.769531 104.457031 34.234375 90.324219 39.828125 C 93.476562 46.644531 92.539062 55.433594 87.8125 61.445312 C 81.765625 69.144531 70.742188 72.074219 61.285156 69.542969 C 55.050781 67.875 49.21875 63.609375 46.621094 57.964844 C 30.882812 64.753906 15.445312 71.628906 0.015625 78.507812 C 15.375 152.257812 55.304688 219.042969 111.335938 267.511719 C 167.367188 315.976562 239.203125 345.871094 316.449219 351.515625 C 323.382812 337.113281 330.316406 322.714844 337.371094 308.054688 C 332.742188 306.6875 328.804688 304.417969 326.175781 301.09375 Z M 326.175781 301.09375 " fill-opacity="1" fill-rule="nonzero"/></g><path fill="#f2f2f2" d="M 203.933594 103.242188 L 203.214844 108.925781 L 202.492188 103.242188 C 202.1875 100.832031 200.289062 98.933594 197.878906 98.628906 L 192.195312 97.90625 L 197.878906 97.1875 C 200.289062 96.882812 202.1875 94.984375 202.492188 92.574219 L 203.214844 86.890625 L 203.933594 92.574219 C 204.238281 94.984375 206.136719 96.882812 208.546875 97.1875 L 214.230469 97.90625 L 208.546875 98.628906 C 206.136719 98.933594 204.238281 100.832031 203.933594 103.242188 Z M 20.96875 129.972656 C 23.46875 128.882812 25.941406 127.8125 28.394531 126.75 C 28.953125 126.511719 29.210938 125.859375 28.972656 125.300781 C 28.730469 124.742188 28.078125 124.484375 27.519531 124.722656 C 25.066406 125.785156 22.589844 126.859375 20.089844 127.949219 C 19.53125 128.195312 19.273438 128.847656 19.519531 129.40625 C 19.699219 129.820312 20.105469 130.070312 20.53125 130.070312 C 20.679688 130.066406 20.824219 130.039062 20.96875 129.972656 Z M 32.449219 125 C 34.945312 123.925781 37.425781 122.855469 39.886719 121.800781 C 40.445312 121.558594 40.710938 120.910156 40.46875 120.351562 C 40.230469 119.792969 39.578125 119.527344 39.019531 119.769531 C 36.558594 120.824219 34.078125 121.890625 31.582031 122.96875 C 31.019531 123.207031 30.761719 123.859375 31.003906 124.417969 C 31.183594 124.832031 31.589844 125.085938 32.019531 125.085938 C 32.15625 125.085938 32.304688 125.058594 32.449219 125 Z M 43.941406 120.058594 L 51.386719 116.871094 C 51.945312 116.632812 52.207031 115.980469 51.96875 115.421875 C 51.726562 114.859375 51.074219 114.601562 50.515625 114.839844 L 43.074219 118.03125 C 42.515625 118.273438 42.25 118.921875 42.492188 119.480469 C 42.671875 119.902344 43.078125 120.152344 43.507812 120.152344 C 43.65625 120.148438 43.804688 120.117188 43.941406 120.058594 Z M 55.449219 115.132812 C 57.941406 114.066406 60.421875 113 62.890625 111.9375 C 63.453125 111.695312 63.710938 111.046875 63.46875 110.488281 C 63.230469 109.929688 62.578125 109.667969 62.019531 109.910156 C 59.554688 110.972656 57.074219 112.035156 54.582031 113.101562 C 54.023438 113.339844 53.757812 113.992188 54 114.550781 C 54.179688 114.96875 54.585938 115.21875 55.015625 115.21875 C 55.15625 115.21875 55.304688 115.191406 55.449219 115.132812 Z M 66.957031 110.1875 C 69.445312 109.113281 71.925781 108.042969 74.390625 106.96875 C 74.949219 106.722656 75.207031 106.070312 74.964844 105.511719 C 74.71875 104.953125 74.066406 104.695312 73.507812 104.941406 C 71.039062 106.011719 68.5625 107.082031 66.078125 108.15625 C 65.519531 108.394531 65.261719 109.046875 65.5 109.605469 C 65.679688 110.019531 66.089844 110.273438 66.515625 110.273438 C 66.664062 110.277344 66.8125 110.246094 66.957031 110.1875 Z M 78.449219 105.203125 C 80.929688 104.125 83.398438 103.039062 85.871094 101.945312 C 86.429688 101.699219 86.683594 101.042969 86.433594 100.484375 C 86.1875 99.925781 85.539062 99.675781 84.972656 99.921875 C 82.507812 101.011719 80.039062 102.097656 77.5625 103.175781 C 77.003906 103.421875 76.75 104.074219 76.996094 104.632812 C 77.175781 105.046875 77.582031 105.296875 78.007812 105.296875 C 78.152344 105.296875 78.300781 105.265625 78.449219 105.203125 Z M 89.90625 100.152344 C 92.371094 99.054688 94.832031 97.949219 97.296875 96.835938 C 97.851562 96.585938 98.101562 95.933594 97.847656 95.375 C 97.597656 94.820312 96.941406 94.570312 96.382812 94.824219 C 93.921875 95.9375 91.464844 97.039062 89.003906 98.132812 C 88.445312 98.382812 88.195312 99.035156 88.445312 99.59375 C 88.632812 100.003906 89.03125 100.25 89.457031 100.25 C 89.605469 100.25 89.757812 100.21875 89.90625 100.152344 Z M 101.316406 95.007812 C 103.761719 93.890625 106.214844 92.757812 108.675781 91.613281 C 109.230469 91.355469 109.472656 90.699219 109.210938 90.144531 C 108.953125 89.589844 108.296875 89.351562 107.742188 89.609375 C 105.292969 90.75 102.84375 91.878906 100.402344 92.996094 C 99.847656 93.25 99.601562 93.90625 99.855469 94.457031 C 100.042969 94.863281 100.441406 95.105469 100.863281 95.105469 C 101.011719 95.109375 101.167969 95.078125 101.316406 95.007812 Z M 112.679688 89.738281 C 115.113281 88.59375 117.550781 87.433594 120 86.257812 C 120.546875 85.996094 120.78125 85.335938 120.515625 84.785156 C 120.253906 84.234375 119.59375 84.003906 119.042969 84.269531 C 116.601562 85.441406 114.167969 86.597656 111.738281 87.746094 C 111.183594 88.003906 110.949219 88.664062 111.207031 89.214844 C 111.394531 89.613281 111.792969 89.847656 112.210938 89.847656 C 112.367188 89.847656 112.527344 89.8125 112.679688 89.738281 Z M 123.980469 84.332031 C 126.394531 83.160156 128.8125 81.964844 131.253906 80.75 C 131.796875 80.476562 132.019531 79.8125 131.746094 79.265625 C 131.472656 78.722656 130.808594 78.5 130.265625 78.773438 C 127.835938 79.980469 125.414062 81.171875 123.011719 82.347656 C 122.460938 82.613281 122.234375 83.273438 122.5 83.824219 C 122.691406 84.21875 123.089844 84.449219 123.496094 84.449219 C 123.660156 84.441406 123.828125 84.40625 123.980469 84.332031 Z M 135.210938 78.769531 C 137.601562 77.558594 140.007812 76.328125 142.433594 75.082031 C 142.972656 74.800781 143.183594 74.136719 142.90625 73.597656 C 142.625 73.054688 141.960938 72.839844 141.421875 73.121094 C 139.003906 74.367188 136.605469 75.59375 134.21875 76.796875 C 133.671875 77.074219 133.453125 77.734375 133.726562 78.277344 C 133.921875 78.660156 134.308594 78.886719 134.714844 78.886719 C 134.878906 78.882812 135.046875 78.847656 135.210938 78.769531 Z M 146.351562 73.039062 C 148.722656 71.800781 151.105469 70.535156 153.503906 69.246094 C 154.039062 68.960938 154.242188 68.289062 153.957031 67.75 C 153.671875 67.214844 153 67.011719 152.460938 67.296875 C 150.066406 68.582031 147.6875 69.84375 145.328125 71.074219 C 144.785156 71.355469 144.578125 72.027344 144.859375 72.566406 C 145.058594 72.945312 145.441406 73.15625 145.839844 73.15625 C 146.015625 73.167969 146.191406 73.125 146.351562 73.039062 Z M 55.859375 263.515625 L 53.90625 278.945312 L 51.953125 263.515625 C 51.125 256.972656 45.96875 251.816406 39.425781 250.988281 L 23.996094 249.035156 L 39.425781 247.082031 C 45.96875 246.253906 51.125 241.097656 51.953125 234.554688 L 53.90625 219.125 L 55.859375 234.554688 C 56.6875 241.097656 61.84375 246.253906 68.386719 247.082031 L 83.816406 249.035156 L 68.386719 250.988281 C 61.84375 251.816406 56.691406 256.972656 55.859375 263.515625 Z M 89.453125 283.511719 L 88.355469 292.195312 L 87.253906 283.511719 C 86.789062 279.824219 83.882812 276.921875 80.199219 276.453125 L 71.511719 275.355469 L 80.199219 274.257812 C 83.882812 273.789062 86.789062 270.886719 87.253906 267.199219 L 88.355469 258.515625 L 89.453125 267.199219 C 89.917969 270.886719 92.824219 273.789062 96.507812 274.257812 L 105.195312 275.355469 L 96.507812 276.453125 C 92.820312 276.921875 89.917969 279.824219 89.453125 283.511719 Z M 172.03125 89.703125 L 170.933594 98.386719 L 169.832031 89.703125 C 169.367188 86.019531 166.460938 83.113281 162.777344 82.648438 L 154.089844 81.546875 L 162.777344 80.449219 C 166.460938 79.980469 169.367188 77.078125 169.832031 73.394531 L 170.933594 64.707031 L 172.03125 73.394531 C 172.496094 77.078125 175.402344 79.980469 179.085938 80.449219 L 187.773438 81.546875 L 179.085938 82.648438 C 175.402344 83.113281 172.496094 86.019531 172.03125 89.703125 Z M 145.414062 118.058594 L 102.382812 134.828125 L 102.289062 134.667969 L 137.703125 105.046875 L 132.65625 96.527344 L 83.28125 141.246094 L 87.484375 148.34375 L 150.464844 126.574219 Z M 112.011719 158.4375 C 109.816406 160.09375 108.214844 161.882812 107.207031 163.792969 C 106.203125 165.703125 105.648438 167.652344 105.542969 169.648438 C 105.351562 171.628906 105.550781 173.5625 106.140625 175.457031 C 106.726562 177.351562 107.597656 179.050781 108.738281 180.5625 C 109.878906 182.074219 111.28125 183.371094 112.941406 184.453125 C 114.601562 185.53125 116.429688 186.277344 118.425781 186.6875 C 120.332031 187.085938 122.34375 187.058594 124.457031 186.609375 C 126.570312 186.160156 128.722656 185.109375 130.914062 183.449219 L 158.414062 162.660156 C 160.507812 161.078125 162.085938 159.308594 163.140625 157.363281 C 164.199219 155.417969 164.816406 153.453125 165.007812 151.472656 C 165.109375 149.476562 164.863281 147.539062 164.277344 145.644531 C 163.6875 143.753906 162.824219 142.046875 161.683594 140.539062 C 160.539062 139.027344 159.136719 137.730469 157.476562 136.648438 C 155.8125 135.570312 154.03125 134.832031 152.125 134.433594 C 150.128906 134.027344 148.050781 134.0625 145.890625 134.550781 C 143.730469 135.035156 141.601562 136.070312 139.503906 137.652344 Z M 145.148438 145.109375 C 146.949219 143.746094 148.65625 143.238281 150.269531 143.59375 C 151.875 143.949219 153.195312 144.808594 154.230469 146.175781 C 155.257812 147.539062 155.726562 149.046875 155.628906 150.691406 C 155.53125 152.335938 154.582031 153.84375 152.773438 155.203125 L 125.277344 175.992188 C 123.472656 177.355469 121.761719 177.863281 120.15625 177.507812 C 118.542969 177.152344 117.226562 176.292969 116.195312 174.925781 C 115.160156 173.558594 114.695312 172.054688 114.796875 170.410156 C 114.890625 168.765625 115.84375 167.261719 117.648438 165.898438 Z M 188.644531 172.671875 L 152.59375 206.871094 C 150.910156 208.46875 149.289062 209.25 147.734375 209.207031 C 146.175781 209.164062 144.832031 208.546875 143.695312 207.351562 C 142.5625 206.15625 142.015625 204.777344 142.054688 203.222656 C 142.09375 201.667969 142.957031 200.09375 144.644531 198.496094 L 180.695312 164.296875 L 174.257812 157.511719 L 137.542969 192.34375 C 135.988281 193.816406 134.832031 195.460938 134.074219 197.28125 C 133.3125 199.09375 132.90625 200.996094 132.855469 202.988281 C 132.800781 204.972656 133.109375 206.898438 133.773438 208.75 C 134.4375 210.601562 135.488281 212.289062 136.914062 213.792969 C 138.34375 215.296875 139.980469 216.445312 141.816406 217.226562 C 143.65625 218.011719 145.566406 218.429688 147.558594 218.484375 C 149.542969 218.535156 151.453125 218.222656 153.289062 217.53125 C 155.121094 216.84375 156.816406 215.769531 158.367188 214.296875 L 195.082031 179.464844 Z M 184.839844 232.351562 L 182.761719 234.796875 C 181.929688 235.777344 181.101562 236.476562 180.265625 236.886719 C 179.429688 237.300781 178.648438 237.519531 177.910156 237.53125 C 177.125 237.507812 176.398438 237.351562 175.726562 237.0625 C 175.050781 236.769531 174.476562 236.425781 174.015625 236.03125 C 172.386719 234.644531 171.671875 233.195312 171.875 231.6875 C 172.078125 230.171875 172.789062 228.695312 174.015625 227.253906 L 195.621094 201.816406 C 197.042969 200.136719 198.511719 198.996094 200.027344 198.398438 C 201.539062 197.796875 203.179688 198.25 204.949219 199.75 C 206.296875 200.894531 206.9375 202.324219 206.855469 204.015625 C 206.777344 205.714844 206.144531 207.261719 204.960938 208.65625 L 202.941406 211.035156 L 210.070312 217.089844 L 212.445312 214.296875 C 213.910156 212.574219 214.96875 210.730469 215.636719 208.769531 C 216.300781 206.804688 216.574219 204.851562 216.457031 202.914062 C 216.222656 198.941406 214.425781 195.535156 211.074219 192.6875 C 209.351562 191.222656 207.53125 190.179688 205.613281 189.554688 C 203.699219 188.929688 201.792969 188.695312 199.898438 188.847656 C 198 189 196.179688 189.539062 194.4375 190.464844 C 192.691406 191.386719 191.125 192.664062 189.738281 194.292969 L 166.476562 221.683594 C 164.535156 223.964844 163.304688 226.148438 162.78125 228.226562 C 162.253906 230.304688 162.160156 232.292969 162.484375 234.171875 C 162.8125 236.054688 163.515625 237.773438 164.597656 239.332031 C 165.675781 240.894531 166.890625 242.246094 168.246094 243.390625 C 169.828125 244.734375 171.574219 245.679688 173.480469 246.21875 C 175.386719 246.757812 177.308594 246.925781 179.242188 246.726562 C 181.179688 246.523438 183.019531 245.984375 184.769531 245.105469 C 186.519531 244.226562 188.050781 243.019531 189.351562 241.480469 L 191.960938 238.40625 Z M 197.164062 265.054688 L 213.488281 241.007812 L 223.046875 247.496094 L 206.722656 271.542969 L 214.457031 276.792969 L 251.121094 222.785156 L 243.382812 217.535156 L 227.679688 240.667969 L 218.121094 234.179688 L 233.824219 211.046875 L 226.085938 205.789062 L 189.421875 259.796875 Z M 250.203125 296.574219 L 254.621094 288.332031 L 238.300781 279.582031 L 247.347656 262.695312 L 261.570312 270.316406 L 265.726562 262.558594 L 251.503906 254.9375 L 260.554688 238.050781 L 276.878906 246.800781 L 281.035156 239.042969 L 256.46875 225.878906 L 225.636719 283.410156 Z M 268.234375 304.480469 L 278.703125 278.648438 L 283.890625 280.75 L 281.492188 309.847656 L 290.667969 313.566406 L 292.511719 282.160156 C 295.902344 281.753906 298.660156 280.53125 300.777344 278.484375 C 302.890625 276.441406 304.667969 273.632812 306.117188 270.066406 C 310.917969 258.230469 308.214844 250.246094 298.019531 246.113281 L 284.082031 240.464844 L 259.566406 300.964844 Z M 293.945312 253.960938 C 296.949219 255.175781 298.664062 256.796875 299.097656 258.820312 C 299.265625 259.878906 299.195312 261.023438 298.894531 262.25 C 298.597656 263.480469 298.132812 264.859375 297.515625 266.386719 C 296.898438 267.917969 296.265625 269.226562 295.628906 270.324219 C 294.984375 271.417969 294.277344 272.265625 293.503906 272.875 C 292.671875 273.460938 291.714844 273.785156 290.640625 273.839844 C 289.558594 273.894531 288.257812 273.621094 286.730469 272.996094 L 281.800781 271 L 289.445312 252.136719 Z M 293.945312 253.960938 " fill-opacity="1" fill-rule="nonzero"/></svg>