<svg xmlns="http://www.w3.org/2000/svg" xmlns:xlink="http://www.w3.org/1999/xlink" width="500" zoomAndPan="magnify" viewBox="0 0 375 374.999991" height="500" preserveAspectRatio="xMidYMid meet" version="1.0"><defs><clipPath id="e854a40fc6"><path d="M 0 6.476562 L 375 6.476562 L 375 368 L 0 368 Z M 0 6.476562 " clip-rule="nonzero"/></clipPath></defs><rect x="-37.5" width="450" fill="#ffffff" y="-37.499999" height="449.999989" fill-opacity="1"/><rect x="-37.5" width="450" fill="#ffffff" y="-37.499999" height="449.999989" fill-opacity="1"/><path fill="#0a57a2" d="M 9.503906 11.933594 L 335.777344 11.933594 L 335.777344 65.074219 L 9.503906 65.074219 Z M 9.503906 11.933594 " fill-opacity="1" fill-rule="evenodd"/><path fill="#ffffff" d="M 367.640625 332.304688 L 338.117188 361.5 L 303.289062 327.660156 L 275.09375 353.535156 L 257.511719 292.179688 C 174.101562 292.824219 82.304688 292.675781 8.359375 289.503906 L 10.074219 65.074219 L 336.347656 65.074219 L 336.84375 259.316406 L 361.667969 266.625 L 335.132812 297.800781 Z M 367.640625 332.304688 " fill-opacity="1" fill-rule="evenodd"/><path fill="#7fd3ff" d="M 5.976562 275.355469 L 251.871094 275.355469 L 251.871094 287.351562 L 4.132812 287.351562 C 5.09375 284.148438 5.085938 280.070312 3.609375 276.765625 C 4.449219 276.335938 5.246094 275.859375 5.976562 275.355469 Z M 331.78125 18.222656 L 4.609375 18.222656 L 4.609375 30.21875 L 331.78125 30.21875 Z M 335.132812 297.8125 L 338.976562 293.292969 L 333.710938 288.023438 L 356.597656 265.136719 L 332.351562 257.996094 L 333.496094 257.996094 L 333.496094 68.507812 L 321.5 68.507812 L 321.5 254.804688 L 239.9375 230.804688 L 240.238281 231.839844 L 321.507812 256.460938 L 321.507812 257.996094 L 326.578125 257.996094 L 342.046875 262.683594 L 320.964844 283.765625 C 318.617188 286.113281 318.617188 289.921875 320.964844 292.273438 L 351.582031 322.890625 L 329.789062 344.683594 L 299.171875 314.066406 C 296.824219 311.714844 293.015625 311.714844 290.664062 314.066406 L 269.769531 334.960938 L 273.558594 348.183594 L 294.921875 326.820312 L 299.367188 331.265625 L 303.296875 327.660156 L 334 357.484375 L 334.054688 357.4375 L 363.550781 327.941406 Z M 335.132812 297.8125 " fill-opacity="1" fill-rule="nonzero"/><g clip-path="url(#e854a40fc6)"><path fill="#022350" d="M 30.304688 38.929688 L 30.304688 38.414062 C 30.304688 35.09375 33 32.398438 36.320312 32.398438 C 39.644531 32.398438 42.339844 35.09375 42.339844 38.414062 L 42.339844 38.929688 C 42.339844 42.25 39.644531 44.945312 36.320312 44.945312 C 33 44.945312 30.304688 42.25 30.304688 38.929688 Z M 62.402344 44.421875 C 65.722656 44.421875 68.417969 41.726562 68.417969 38.40625 L 68.417969 37.890625 C 68.417969 34.566406 65.722656 31.875 62.402344 31.875 C 59.078125 31.875 56.382812 34.566406 56.382812 37.890625 L 56.382812 38.40625 C 56.382812 41.726562 59.078125 44.421875 62.402344 44.421875 Z M 88.480469 44.421875 C 91.800781 44.421875 94.496094 41.726562 94.496094 38.40625 L 94.496094 37.890625 C 94.496094 34.566406 91.800781 31.875 88.480469 31.875 C 85.15625 31.875 82.460938 34.566406 82.460938 37.890625 L 82.460938 38.40625 C 82.460938 41.726562 85.15625 44.421875 88.480469 44.421875 Z M 241.632812 203.769531 C 243.484375 203.152344 244.832031 201.710938 245.414062 199.988281 L 256.652344 166.507812 L 267.890625 199.988281 C 268.9375 203.132812 272.34375 204.828125 275.480469 203.769531 C 277.332031 203.152344 278.679688 201.710938 279.257812 199.988281 L 296.175781 149.5625 C 297.226562 146.425781 295.53125 143.019531 292.398438 141.972656 C 289.261719 140.925781 285.855469 142.617188 284.808594 145.753906 L 273.570312 179.234375 L 262.332031 145.753906 C 261.75 144.03125 260.402344 142.589844 258.550781 141.972656 C 255.417969 140.925781 252.011719 142.617188 250.960938 145.753906 L 239.722656 179.234375 L 228.484375 145.753906 C 227.4375 142.609375 224.03125 140.914062 220.898438 141.972656 C 217.761719 143.019531 216.058594 146.425781 217.117188 149.5625 L 234.042969 199.988281 C 235.09375 203.125 238.496094 204.816406 241.632812 203.769531 Z M 206.375 141.964844 C 203.238281 140.914062 199.832031 142.609375 198.785156 145.742188 L 187.546875 179.226562 L 176.308594 145.742188 C 175.726562 144.023438 174.382812 142.582031 172.527344 141.964844 C 169.394531 140.914062 165.988281 142.609375 164.9375 145.742188 L 153.699219 179.226562 L 142.460938 145.742188 C 141.414062 142.601562 138.007812 140.90625 134.875 141.964844 C 131.738281 143.011719 130.035156 146.417969 131.09375 149.550781 L 148.019531 199.980469 C 149.070312 203.125 152.476562 204.816406 155.609375 203.761719 C 157.460938 203.140625 158.808594 201.703125 159.390625 199.980469 L 170.628906 166.5 L 181.867188 199.980469 C 182.914062 203.125 186.320312 204.816406 189.457031 203.761719 C 191.308594 203.140625 192.65625 201.703125 193.234375 199.980469 L 210.15625 149.550781 C 211.210938 146.417969 209.507812 143.019531 206.375 141.964844 Z M 120.339844 141.964844 C 117.207031 140.914062 113.800781 142.609375 112.753906 145.742188 L 101.515625 179.226562 L 90.277344 145.753906 C 89.695312 144.03125 88.347656 142.589844 86.496094 141.972656 C 83.359375 140.925781 79.953125 142.617188 78.90625 145.753906 L 67.667969 179.234375 L 56.429688 145.753906 C 55.382812 142.609375 51.976562 140.914062 48.839844 141.972656 C 45.707031 143.019531 44.003906 146.425781 45.0625 149.5625 L 61.988281 199.988281 C 63.035156 203.132812 66.441406 204.828125 69.578125 203.769531 C 71.429688 203.152344 72.777344 201.710938 73.359375 199.988281 L 84.597656 166.507812 L 95.835938 199.988281 C 96.882812 203.132812 100.289062 204.828125 103.421875 203.769531 C 105.277344 203.152344 106.625 201.710938 107.203125 199.988281 L 124.121094 149.5625 C 125.179688 146.417969 123.476562 143.019531 120.339844 141.964844 Z M 372.609375 335.878906 L 342.308594 366.175781 C 339.960938 368.527344 336.152344 368.527344 333.804688 366.175781 L 303.1875 335.558594 L 279.257812 359.488281 C 276.910156 361.835938 273.101562 361.835938 270.753906 359.488281 C 270.015625 358.746094 269.507812 357.867188 269.238281 356.941406 L 251.242188 297.539062 L 6.085938 297.539062 C 2.765625 297.539062 0.0703125 294.84375 0.0703125 291.523438 L 0.0703125 64.660156 C 0.0703125 64.660156 0.0703125 64.652344 0.0703125 64.652344 C 0.0703125 64.652344 0.0703125 64.644531 0.0703125 64.644531 L 0.0703125 12.492188 C 0.0703125 9.171875 2.765625 6.476562 6.085938 6.476562 L 335.160156 6.476562 C 338.480469 6.476562 341.175781 9.171875 341.175781 12.492188 L 341.175781 256.085938 L 363.410156 262.824219 C 366.59375 263.777344 368.386719 267.136719 367.425781 270.320312 C 367.117188 271.339844 366.5625 272.210938 365.851562 272.902344 L 341.992188 296.761719 L 372.609375 327.382812 C 374.957031 329.71875 374.957031 333.539062 372.609375 335.878906 Z M 12.105469 18.511719 L 12.105469 58.636719 L 329.144531 58.636719 L 329.144531 18.511719 Z M 247.601562 285.496094 L 231.59375 232.65625 C 230.636719 229.472656 232.433594 226.113281 235.605469 225.160156 C 236.785156 224.804688 237.984375 224.832031 239.085938 225.160156 L 329.132812 252.4375 L 329.132812 70.667969 L 12.105469 70.667969 L 12.105469 285.507812 L 247.601562 285.507812 Z M 359.84375 331.628906 L 329.226562 301.011719 C 326.878906 298.664062 326.878906 294.855469 329.226562 292.507812 L 350.308594 271.421875 L 333.4375 266.3125 C 333.402344 266.304688 333.355469 266.285156 333.316406 266.277344 L 246.367188 239.9375 L 261.441406 289.707031 C 261.453125 289.726562 261.453125 289.746094 261.460938 289.765625 L 277.855469 343.878906 L 298.9375 322.796875 C 301.285156 320.445312 305.09375 320.445312 307.445312 322.796875 L 338.0625 353.414062 Z M 359.84375 331.628906 " fill-opacity="1" fill-rule="nonzero"/></g></svg>